G04 EAGLE Gerber X2 export*
%TF.Part,Single*%
%TF.FileFunction,Copper,L1,Top,Mixed*%
%TF.FilePolarity,Positive*%
%TF.GenerationSoftware,Autodesk,EAGLE,8.7.0*%
%TF.CreationDate,2018-03-20T01:52:59Z*%
G75*
%MOIN*%
%FSLAX34Y34*%
%LPD*%
%AMOC8*
5,1,8,0,0,1.08239X$1,22.5*%
G01*
%ADD10R,0.031496X0.031496*%
%ADD11R,0.051181X0.035433*%
%ADD12R,0.066000X0.066000*%
%ADD13C,0.066000*%
%ADD14R,0.025591X0.012992*%
%ADD15R,0.037402X0.037402*%
%ADD16P,0.082262X8X112.500000*%
%ADD17C,0.032000*%
%ADD18C,0.020000*%
%ADD19C,0.023780*%
%ADD20C,0.012000*%
%ADD21C,0.006000*%
%ADD22C,0.024000*%

G36*
X8079Y151D02*
X8079Y151D01*
X8082Y151D01*
X8082Y152D01*
X8084Y152D01*
X8085Y154D01*
X8087Y155D01*
X8088Y156D01*
X8089Y157D01*
X8090Y159D01*
X8091Y161D01*
X8091Y162D01*
X8091Y163D01*
X8091Y164D01*
X8091Y165D01*
X8091Y4205D01*
X8091Y4207D01*
X8091Y4209D01*
X8090Y4210D01*
X8090Y4212D01*
X8088Y4213D01*
X8087Y4215D01*
X8086Y4216D01*
X8086Y4217D01*
X8083Y4217D01*
X8082Y4219D01*
X8080Y4219D01*
X8079Y4219D01*
X8077Y4219D01*
X165Y4219D01*
X163Y4219D01*
X161Y4219D01*
X160Y4218D01*
X159Y4218D01*
X157Y4216D01*
X155Y4215D01*
X154Y4214D01*
X153Y4213D01*
X153Y4211D01*
X151Y4209D01*
X151Y4208D01*
X151Y4207D01*
X151Y4205D01*
X151Y165D01*
X151Y163D01*
X151Y161D01*
X152Y160D01*
X152Y159D01*
X154Y157D01*
X155Y155D01*
X156Y154D01*
X157Y153D01*
X159Y153D01*
X161Y151D01*
X162Y151D01*
X163Y151D01*
X164Y151D01*
X165Y151D01*
X8077Y151D01*
X8079Y151D01*
G37*
%LPC*%
G36*
X3113Y1407D02*
X3113Y1407D01*
X3077Y1442D01*
X3077Y1808D01*
X3113Y1843D01*
X3478Y1843D01*
X3492Y1829D01*
X3494Y1828D01*
X3496Y1826D01*
X3497Y1826D01*
X3498Y1826D01*
X3500Y1825D01*
X3502Y1825D01*
X3503Y1825D01*
X3504Y1825D01*
X3506Y1826D01*
X3509Y1826D01*
X3510Y1827D01*
X3510Y1828D01*
X3511Y1828D01*
X3512Y1829D01*
X3643Y1960D01*
X3646Y1965D01*
X3647Y1970D01*
X3647Y2176D01*
X3646Y2179D01*
X3645Y2183D01*
X3643Y2186D01*
X3597Y2232D01*
X3596Y2233D01*
X3595Y2234D01*
X3593Y2235D01*
X3591Y2236D01*
X3590Y2236D01*
X3589Y2236D01*
X3587Y2236D01*
X3585Y2236D01*
X3584Y2236D01*
X3582Y2236D01*
X3581Y2235D01*
X3578Y2234D01*
X3578Y2233D01*
X3577Y2232D01*
X3576Y2230D01*
X3574Y2229D01*
X3574Y2228D01*
X3573Y2227D01*
X3573Y2222D01*
X3573Y2115D01*
X3537Y2079D01*
X3231Y2079D01*
X3195Y2115D01*
X3195Y2296D01*
X3196Y2297D01*
X3196Y2298D01*
X3197Y2299D01*
X3197Y2301D01*
X3198Y2303D01*
X3197Y2304D01*
X3197Y2305D01*
X3197Y2307D01*
X3196Y2310D01*
X3195Y2311D01*
X3195Y2493D01*
X3196Y2494D01*
X3196Y2495D01*
X3197Y2496D01*
X3197Y2498D01*
X3198Y2500D01*
X3197Y2501D01*
X3197Y2502D01*
X3197Y2504D01*
X3196Y2506D01*
X3195Y2508D01*
X3195Y2689D01*
X3196Y2690D01*
X3196Y2691D01*
X3197Y2692D01*
X3197Y2695D01*
X3198Y2697D01*
X3197Y2698D01*
X3197Y2699D01*
X3197Y2701D01*
X3196Y2703D01*
X3195Y2704D01*
X3195Y2885D01*
X3231Y2921D01*
X3537Y2921D01*
X3573Y2885D01*
X3573Y2703D01*
X3573Y2701D01*
X3573Y2699D01*
X3574Y2698D01*
X3574Y2697D01*
X3576Y2695D01*
X3577Y2693D01*
X3578Y2693D01*
X3578Y2692D01*
X3581Y2691D01*
X3582Y2690D01*
X3584Y2690D01*
X3585Y2689D01*
X3587Y2689D01*
X3848Y2689D01*
X3853Y2685D01*
X3854Y2684D01*
X3855Y2683D01*
X3857Y2682D01*
X3859Y2681D01*
X3860Y2681D01*
X3861Y2681D01*
X3863Y2681D01*
X3865Y2681D01*
X3866Y2681D01*
X3867Y2681D01*
X3869Y2682D01*
X3871Y2683D01*
X3872Y2684D01*
X3873Y2685D01*
X3874Y2686D01*
X3876Y2688D01*
X3876Y2689D01*
X3877Y2690D01*
X3877Y2695D01*
X3877Y2998D01*
X3913Y3033D01*
X4337Y3033D01*
X4373Y2998D01*
X4373Y2960D01*
X4373Y2958D01*
X4373Y2956D01*
X4374Y2955D01*
X4374Y2954D01*
X4376Y2952D01*
X4377Y2950D01*
X4378Y2950D01*
X4379Y2949D01*
X4381Y2948D01*
X4383Y2947D01*
X4384Y2947D01*
X4385Y2946D01*
X4386Y2946D01*
X4387Y2946D01*
X4780Y2946D01*
X4985Y2741D01*
X4991Y2738D01*
X4995Y2737D01*
X5282Y2737D01*
X5282Y2736D01*
X5284Y2735D01*
X5285Y2735D01*
X5286Y2734D01*
X5288Y2734D01*
X5290Y2733D01*
X5292Y2734D01*
X5293Y2734D01*
X5295Y2735D01*
X5297Y2735D01*
X5298Y2736D01*
X5299Y2736D01*
X5299Y2737D01*
X5300Y2738D01*
X5680Y3117D01*
X5684Y3123D01*
X5684Y3127D01*
X5684Y3308D01*
X5942Y3566D01*
X6308Y3566D01*
X6566Y3308D01*
X6566Y2942D01*
X6308Y2684D01*
X5942Y2684D01*
X5917Y2710D01*
X5915Y2711D01*
X5913Y2712D01*
X5912Y2713D01*
X5911Y2713D01*
X5909Y2713D01*
X5907Y2714D01*
X5906Y2714D01*
X5905Y2714D01*
X5903Y2713D01*
X5900Y2712D01*
X5899Y2711D01*
X5898Y2711D01*
X5897Y2710D01*
X5517Y2330D01*
X5517Y2329D01*
X5516Y2328D01*
X5515Y2326D01*
X5514Y2324D01*
X5514Y2323D01*
X5513Y2322D01*
X5513Y2320D01*
X5513Y2318D01*
X5514Y2317D01*
X5514Y2316D01*
X5515Y2314D01*
X5516Y2312D01*
X5517Y2311D01*
X5517Y2310D01*
X5519Y2309D01*
X5521Y2307D01*
X5522Y2307D01*
X5523Y2306D01*
X5527Y2306D01*
X5677Y2306D01*
X5678Y2306D01*
X5683Y2307D01*
X5687Y2310D01*
X5942Y2566D01*
X6308Y2566D01*
X6566Y2308D01*
X6566Y1942D01*
X6308Y1684D01*
X5942Y1684D01*
X5687Y1940D01*
X5681Y1944D01*
X5677Y1944D01*
X4675Y1944D01*
X4569Y2050D01*
X4569Y2172D01*
X4569Y2174D01*
X4568Y2178D01*
X4565Y2182D01*
X4397Y2350D01*
X4396Y2350D01*
X4395Y2351D01*
X4393Y2352D01*
X4391Y2353D01*
X4390Y2353D01*
X4389Y2354D01*
X4387Y2353D01*
X4385Y2354D01*
X4384Y2353D01*
X4383Y2353D01*
X4381Y2352D01*
X4379Y2351D01*
X4378Y2350D01*
X4377Y2350D01*
X4376Y2348D01*
X4374Y2346D01*
X4374Y2345D01*
X4373Y2344D01*
X4373Y2340D01*
X4373Y2002D01*
X4337Y1967D01*
X4110Y1967D01*
X4106Y1966D01*
X4104Y1965D01*
X4100Y1963D01*
X3602Y1464D01*
X3528Y1464D01*
X3526Y1464D01*
X3523Y1464D01*
X3522Y1463D01*
X3521Y1463D01*
X3520Y1461D01*
X3518Y1460D01*
X3517Y1459D01*
X3516Y1458D01*
X3515Y1456D01*
X3514Y1454D01*
X3514Y1453D01*
X3514Y1452D01*
X3514Y1451D01*
X3514Y1450D01*
X3514Y1442D01*
X3478Y1407D01*
X3113Y1407D01*
G37*
%LPD*%
%LPC*%
G36*
X520Y2109D02*
X520Y2109D01*
X484Y2145D01*
X484Y2855D01*
X520Y2891D01*
X1230Y2891D01*
X1266Y2855D01*
X1266Y2537D01*
X1266Y2534D01*
X1266Y2532D01*
X1267Y2531D01*
X1267Y2530D01*
X1269Y2528D01*
X1270Y2526D01*
X1271Y2526D01*
X1272Y2525D01*
X1274Y2524D01*
X1276Y2523D01*
X1277Y2523D01*
X1278Y2522D01*
X1279Y2523D01*
X1280Y2522D01*
X2452Y2522D01*
X2459Y2524D01*
X2462Y2526D01*
X2463Y2527D01*
X2769Y2527D01*
X2805Y2492D01*
X2805Y2311D01*
X2769Y2276D01*
X2463Y2276D01*
X2462Y2277D01*
X2457Y2280D01*
X2452Y2281D01*
X1280Y2281D01*
X1278Y2280D01*
X1276Y2280D01*
X1275Y2280D01*
X1274Y2279D01*
X1272Y2278D01*
X1270Y2277D01*
X1269Y2276D01*
X1268Y2275D01*
X1268Y2273D01*
X1266Y2271D01*
X1266Y2270D01*
X1266Y2269D01*
X1266Y2268D01*
X1266Y2267D01*
X1266Y2145D01*
X1230Y2109D01*
X520Y2109D01*
G37*
%LPD*%
%LPC*%
G36*
X2463Y2670D02*
X2463Y2670D01*
X2427Y2705D01*
X2427Y2885D01*
X2463Y2921D01*
X2769Y2921D01*
X2805Y2885D01*
X2805Y2705D01*
X2769Y2670D01*
X2463Y2670D01*
G37*
%LPD*%
D10*
X2705Y1625D03*
X3295Y1625D03*
D11*
X5000Y1751D03*
X5000Y2499D03*
D12*
X875Y2500D03*
D13*
X875Y1500D03*
D14*
X2616Y2402D03*
X2616Y2205D03*
X2616Y2598D03*
X2616Y2795D03*
X3384Y2402D03*
X3384Y2205D03*
X3384Y2598D03*
X3384Y2795D03*
D15*
X4125Y2785D03*
X4125Y2215D03*
D16*
X6125Y2125D03*
X6125Y1125D03*
X6125Y3125D03*
D17*
X6000Y3125D01*
X5374Y2499D02*
X5000Y2499D01*
X5374Y2499D02*
X6000Y3125D01*
D18*
X5000Y2499D02*
X4714Y2785D01*
X4125Y2785D01*
D19*
X375Y3250D03*
X1250Y3250D03*
X2500Y1125D03*
X2875Y1125D03*
X2750Y3250D03*
X3500Y3250D03*
X4750Y1250D03*
X5250Y1250D03*
X1625Y2875D03*
X1625Y2000D03*
X2250Y2000D03*
X2250Y2875D03*
D18*
X3768Y1857D02*
X4125Y2215D01*
X3768Y1857D02*
X3535Y1625D01*
X3295Y1625D01*
D20*
X3384Y2402D02*
X3598Y2402D01*
X3768Y2232D02*
X3768Y1857D01*
X3768Y2232D02*
X3598Y2402D01*
X2616Y2402D02*
X973Y2402D01*
X875Y2500D01*
D21*
X3384Y2598D02*
X3811Y2598D01*
X4367Y2508D02*
X4750Y2125D01*
X3901Y2508D02*
X3811Y2598D01*
X3901Y2508D02*
X4367Y2508D01*
D22*
X4750Y2125D02*
X6125Y2125D01*
M02*
