G04 EAGLE Gerber X2 export*
%TF.Part,Single*%
%TF.FileFunction,Legend,Top,1*%
%TF.FilePolarity,Positive*%
%TF.GenerationSoftware,Autodesk,EAGLE,8.7.0*%
%TF.CreationDate,2018-03-20T01:52:59Z*%
G75*
%MOIN*%
%FSLAX34Y34*%
%LPD*%
%AMOC8*
5,1,8,0,0,1.08239X$1,22.5*%
G01*
%ADD10C,0.006000*%
%ADD11C,0.010000*%
%ADD12C,0.005000*%
%ADD13C,0.016000*%
%ADD14C,0.015748*%


D10*
X6951Y1149D02*
X7024Y1149D01*
X7024Y905D01*
X6878Y905D01*
X6861Y906D01*
X6844Y911D01*
X6829Y918D01*
X6815Y928D01*
X6803Y940D01*
X6793Y954D01*
X6786Y969D01*
X6781Y986D01*
X6780Y1003D01*
X6780Y1247D01*
X6782Y1266D01*
X6787Y1285D01*
X6797Y1301D01*
X6809Y1316D01*
X6824Y1328D01*
X6840Y1338D01*
X6859Y1343D01*
X6878Y1345D01*
X7024Y1345D01*
X7260Y1345D02*
X7260Y905D01*
X7504Y905D02*
X7260Y1345D01*
X7504Y1345D02*
X7504Y905D01*
X7740Y905D02*
X7740Y1345D01*
X7862Y1345D01*
X7883Y1343D01*
X7904Y1338D01*
X7923Y1329D01*
X7940Y1316D01*
X7955Y1301D01*
X7968Y1284D01*
X7977Y1265D01*
X7982Y1244D01*
X7984Y1223D01*
X7984Y1027D01*
X7982Y1006D01*
X7977Y985D01*
X7968Y966D01*
X7955Y949D01*
X7940Y934D01*
X7923Y921D01*
X7904Y912D01*
X7883Y907D01*
X7862Y905D01*
X7740Y905D01*
X6780Y2027D02*
X6780Y2223D01*
X6782Y2244D01*
X6787Y2265D01*
X6796Y2284D01*
X6809Y2301D01*
X6824Y2316D01*
X6841Y2329D01*
X6860Y2338D01*
X6881Y2343D01*
X6902Y2345D01*
X6923Y2343D01*
X6944Y2338D01*
X6963Y2329D01*
X6980Y2316D01*
X6995Y2301D01*
X7008Y2284D01*
X7017Y2265D01*
X7022Y2244D01*
X7024Y2223D01*
X7024Y2027D01*
X7022Y2006D01*
X7017Y1985D01*
X7008Y1966D01*
X6995Y1949D01*
X6980Y1934D01*
X6963Y1921D01*
X6944Y1912D01*
X6923Y1907D01*
X6902Y1905D01*
X6881Y1907D01*
X6860Y1912D01*
X6841Y1921D01*
X6824Y1934D01*
X6809Y1949D01*
X6796Y1966D01*
X6787Y1985D01*
X6782Y2006D01*
X6780Y2027D01*
X7239Y1978D02*
X7239Y2198D01*
X7240Y1978D02*
X7242Y1962D01*
X7247Y1946D01*
X7256Y1932D01*
X7267Y1921D01*
X7281Y1912D01*
X7297Y1907D01*
X7313Y1905D01*
X7435Y1905D01*
X7435Y2198D01*
X7604Y2198D02*
X7751Y2198D01*
X7653Y2345D02*
X7653Y1978D01*
X7654Y1978D02*
X7656Y1962D01*
X7661Y1946D01*
X7670Y1932D01*
X7681Y1921D01*
X7695Y1912D01*
X7711Y1907D01*
X7727Y1905D01*
X7751Y1905D01*
X7073Y3076D02*
X6780Y3076D01*
X6927Y2929D02*
X6927Y3223D01*
X7260Y3345D02*
X7407Y2905D01*
X7553Y3345D01*
X976Y3030D02*
X878Y3030D01*
X861Y3031D01*
X844Y3036D01*
X829Y3043D01*
X815Y3053D01*
X803Y3065D01*
X793Y3079D01*
X786Y3094D01*
X781Y3111D01*
X780Y3128D01*
X780Y3372D01*
X782Y3391D01*
X787Y3410D01*
X797Y3426D01*
X809Y3441D01*
X824Y3453D01*
X840Y3463D01*
X859Y3468D01*
X878Y3470D01*
X976Y3470D01*
X927Y970D02*
X780Y530D01*
X1073Y530D02*
X927Y970D01*
X1037Y640D02*
X817Y640D01*
D11*
X-506Y2000D02*
X-504Y2074D01*
X-498Y2148D01*
X-488Y2222D01*
X-474Y2294D01*
X-457Y2366D01*
X-435Y2437D01*
X-410Y2507D01*
X-381Y2575D01*
X-348Y2642D01*
X-312Y2706D01*
X-272Y2769D01*
X-229Y2830D01*
X-183Y2888D01*
X-134Y2943D01*
X-82Y2996D01*
X-27Y3046D01*
X31Y3093D01*
X91Y3137D01*
X153Y3177D01*
X217Y3214D01*
X283Y3248D01*
X351Y3278D01*
X420Y3304D01*
X491Y3326D01*
X563Y3345D01*
X635Y3360D01*
X709Y3371D01*
X782Y3378D01*
X856Y3381D01*
X931Y3380D01*
X1005Y3375D01*
X1078Y3366D01*
X1151Y3353D01*
X1223Y3336D01*
X1295Y3316D01*
X1365Y3291D01*
X1433Y3263D01*
X1500Y3231D01*
X1566Y3196D01*
X1629Y3157D01*
X1690Y3115D01*
X1748Y3070D01*
X1805Y3021D01*
X1858Y2970D01*
X1909Y2916D01*
X1956Y2859D01*
X2001Y2800D01*
X2042Y2738D01*
X2080Y2674D01*
X2115Y2609D01*
X2145Y2541D01*
X2173Y2472D01*
X2196Y2402D01*
X2216Y2330D01*
X2232Y2258D01*
X2244Y2185D01*
X2252Y2111D01*
X2256Y2037D01*
X2256Y1963D01*
X2252Y1889D01*
X2244Y1815D01*
X2232Y1742D01*
X2216Y1670D01*
X2196Y1598D01*
X2173Y1528D01*
X2145Y1459D01*
X2115Y1391D01*
X2080Y1326D01*
X2042Y1262D01*
X2001Y1200D01*
X1956Y1141D01*
X1909Y1084D01*
X1858Y1030D01*
X1805Y979D01*
X1748Y930D01*
X1690Y885D01*
X1629Y843D01*
X1565Y804D01*
X1500Y769D01*
X1433Y737D01*
X1365Y709D01*
X1295Y684D01*
X1223Y664D01*
X1151Y647D01*
X1078Y634D01*
X1005Y625D01*
X931Y620D01*
X856Y619D01*
X782Y622D01*
X709Y629D01*
X635Y640D01*
X563Y655D01*
X491Y674D01*
X420Y696D01*
X351Y722D01*
X283Y752D01*
X217Y786D01*
X153Y823D01*
X91Y863D01*
X31Y907D01*
X-27Y954D01*
X-82Y1004D01*
X-134Y1057D01*
X-183Y1112D01*
X-229Y1170D01*
X-272Y1231D01*
X-312Y1294D01*
X-348Y1358D01*
X-381Y1425D01*
X-410Y1493D01*
X-435Y1563D01*
X-457Y1634D01*
X-474Y1706D01*
X-488Y1778D01*
X-498Y1852D01*
X-504Y1926D01*
X-506Y2000D01*
D12*
X2459Y1901D02*
X3541Y1901D01*
X3541Y1349D01*
X2459Y1349D01*
X2459Y1901D01*
X4636Y1533D02*
X5364Y1533D01*
X5364Y2717D01*
X4636Y2717D01*
X4636Y1533D01*
D13*
X375Y1500D02*
X-375Y1500D01*
X-375Y2500D02*
X375Y2500D01*
D12*
X2606Y2106D02*
X3394Y2106D01*
X3394Y2894D02*
X2606Y2894D01*
D14*
X3394Y2008D03*
D12*
X4401Y1949D02*
X4401Y3051D01*
X4401Y1949D02*
X3849Y1949D01*
X3849Y3051D01*
X4401Y3051D01*
X5625Y625D02*
X6625Y625D01*
X6625Y3625D01*
X5625Y3625D01*
X5625Y625D01*
M02*
