G04 EAGLE Gerber X2 export*
%TF.Part,Single*%
%TF.FileFunction,Copper,L2,Bot,Mixed*%
%TF.FilePolarity,Positive*%
%TF.GenerationSoftware,Autodesk,EAGLE,8.7.0*%
%TF.CreationDate,2018-03-20T01:52:59Z*%
G75*
%MOIN*%
%FSLAX34Y34*%
%LPD*%
%AMOC8*
5,1,8,0,0,1.08239X$1,22.5*%
G01*
%ADD10R,0.066000X0.066000*%
%ADD11C,0.066000*%
%ADD12P,0.082262X8X112.500000*%
%ADD13C,0.023780*%

G36*
X8079Y151D02*
X8079Y151D01*
X8082Y151D01*
X8082Y152D01*
X8084Y152D01*
X8085Y154D01*
X8087Y155D01*
X8088Y156D01*
X8089Y157D01*
X8090Y159D01*
X8091Y161D01*
X8091Y162D01*
X8091Y163D01*
X8091Y164D01*
X8091Y165D01*
X8091Y4205D01*
X8091Y4207D01*
X8091Y4209D01*
X8090Y4210D01*
X8090Y4212D01*
X8088Y4213D01*
X8087Y4215D01*
X8086Y4216D01*
X8086Y4217D01*
X8083Y4217D01*
X8082Y4219D01*
X8080Y4219D01*
X8079Y4219D01*
X8077Y4219D01*
X165Y4219D01*
X163Y4219D01*
X161Y4219D01*
X160Y4218D01*
X159Y4218D01*
X157Y4216D01*
X155Y4215D01*
X154Y4214D01*
X153Y4213D01*
X153Y4211D01*
X151Y4209D01*
X151Y4208D01*
X151Y4207D01*
X151Y4205D01*
X151Y165D01*
X151Y163D01*
X151Y161D01*
X152Y160D01*
X152Y159D01*
X154Y157D01*
X155Y155D01*
X156Y154D01*
X157Y153D01*
X159Y153D01*
X161Y151D01*
X162Y151D01*
X163Y151D01*
X164Y151D01*
X165Y151D01*
X8077Y151D01*
X8079Y151D01*
G37*
%LPC*%
G36*
X5942Y2684D02*
X5942Y2684D01*
X5684Y2942D01*
X5684Y3308D01*
X5942Y3566D01*
X6308Y3566D01*
X6566Y3308D01*
X6566Y2942D01*
X6308Y2684D01*
X5942Y2684D01*
G37*
%LPD*%
%LPC*%
G36*
X5942Y1684D02*
X5942Y1684D01*
X5684Y1942D01*
X5684Y2308D01*
X5942Y2566D01*
X6308Y2566D01*
X6566Y2308D01*
X6566Y1942D01*
X6308Y1684D01*
X5942Y1684D01*
G37*
%LPD*%
%LPC*%
G36*
X520Y2109D02*
X520Y2109D01*
X484Y2145D01*
X484Y2855D01*
X520Y2891D01*
X1230Y2891D01*
X1266Y2855D01*
X1266Y2145D01*
X1230Y2109D01*
X520Y2109D01*
G37*
%LPD*%
D10*
X875Y2500D03*
D11*
X875Y1500D03*
D12*
X6125Y2125D03*
X6125Y1125D03*
X6125Y3125D03*
D13*
X375Y3250D03*
X1250Y3250D03*
X2500Y1125D03*
X2875Y1125D03*
X2750Y3250D03*
X3500Y3250D03*
X4750Y1250D03*
X5250Y1250D03*
X1625Y2875D03*
X1625Y2000D03*
X2250Y2000D03*
X2250Y2875D03*
M02*
