G04 EAGLE Gerber X2 export*
%TF.Part,Single*%
%TF.FileFunction,Legend,Bot,1*%
%TF.FilePolarity,Positive*%
%TF.GenerationSoftware,Autodesk,EAGLE,8.7.0*%
%TF.CreationDate,2018-03-19T04:16:22Z*%
G75*
%MOIN*%
%FSLAX34Y34*%
%LPD*%
%AMOC8*
5,1,8,0,0,1.08239X$1,22.5*%
G01*
%ADD10C,0.006000*%


D10*
X4470Y2256D02*
X4030Y2403D01*
X4470Y2549D01*
X4128Y2960D02*
X4111Y2959D01*
X4094Y2954D01*
X4079Y2947D01*
X4065Y2937D01*
X4053Y2925D01*
X4043Y2911D01*
X4036Y2896D01*
X4031Y2879D01*
X4030Y2862D01*
X4032Y2835D01*
X4037Y2808D01*
X4046Y2782D01*
X4058Y2758D01*
X4073Y2735D01*
X4091Y2715D01*
X4372Y2728D02*
X4389Y2729D01*
X4406Y2734D01*
X4421Y2741D01*
X4435Y2751D01*
X4447Y2763D01*
X4457Y2777D01*
X4464Y2792D01*
X4469Y2809D01*
X4470Y2826D01*
X4468Y2849D01*
X4464Y2873D01*
X4457Y2895D01*
X4446Y2916D01*
X4433Y2936D01*
X4287Y2777D02*
X4297Y2763D01*
X4309Y2751D01*
X4323Y2741D01*
X4338Y2734D01*
X4355Y2729D01*
X4372Y2728D01*
X4213Y2911D02*
X4203Y2925D01*
X4191Y2937D01*
X4177Y2947D01*
X4162Y2954D01*
X4145Y2959D01*
X4128Y2960D01*
X4213Y2911D02*
X4287Y2777D01*
X4348Y3151D02*
X4152Y3151D01*
X4348Y3151D02*
X4369Y3153D01*
X4390Y3158D01*
X4409Y3167D01*
X4426Y3180D01*
X4441Y3195D01*
X4454Y3212D01*
X4463Y3231D01*
X4468Y3252D01*
X4470Y3273D01*
X4468Y3294D01*
X4463Y3315D01*
X4454Y3334D01*
X4441Y3351D01*
X4426Y3366D01*
X4409Y3379D01*
X4390Y3388D01*
X4369Y3393D01*
X4348Y3395D01*
X4152Y3395D01*
X4131Y3393D01*
X4110Y3388D01*
X4091Y3379D01*
X4074Y3366D01*
X4059Y3351D01*
X4046Y3334D01*
X4037Y3315D01*
X4032Y3294D01*
X4030Y3273D01*
X4032Y3252D01*
X4037Y3231D01*
X4046Y3212D01*
X4059Y3195D01*
X4074Y3180D01*
X4091Y3167D01*
X4110Y3158D01*
X4131Y3153D01*
X4152Y3151D01*
X4030Y3624D02*
X4470Y3624D01*
X4470Y3746D01*
X4468Y3767D01*
X4463Y3788D01*
X4454Y3807D01*
X4441Y3824D01*
X4426Y3839D01*
X4409Y3852D01*
X4390Y3861D01*
X4369Y3866D01*
X4348Y3868D01*
X4327Y3866D01*
X4306Y3861D01*
X4287Y3852D01*
X4270Y3839D01*
X4255Y3824D01*
X4242Y3807D01*
X4233Y3788D01*
X4228Y3767D01*
X4226Y3746D01*
X4226Y3624D01*
X4226Y4148D02*
X4226Y4295D01*
X4225Y4148D02*
X4226Y4131D01*
X4231Y4114D01*
X4238Y4099D01*
X4248Y4085D01*
X4260Y4073D01*
X4274Y4063D01*
X4289Y4056D01*
X4306Y4051D01*
X4323Y4050D01*
X4323Y4051D02*
X4348Y4051D01*
X4369Y4053D01*
X4390Y4058D01*
X4409Y4067D01*
X4426Y4080D01*
X4441Y4095D01*
X4454Y4112D01*
X4463Y4131D01*
X4468Y4152D01*
X4470Y4173D01*
X4468Y4194D01*
X4463Y4215D01*
X4454Y4234D01*
X4441Y4251D01*
X4426Y4266D01*
X4409Y4279D01*
X4390Y4288D01*
X4369Y4293D01*
X4348Y4295D01*
X4226Y4295D01*
X4200Y4293D01*
X4175Y4288D01*
X4151Y4280D01*
X4128Y4269D01*
X4107Y4254D01*
X4087Y4238D01*
X4071Y4218D01*
X4056Y4197D01*
X4045Y4174D01*
X4037Y4150D01*
X4032Y4125D01*
X4030Y4099D01*
X4152Y4501D02*
X4173Y4503D01*
X4194Y4508D01*
X4213Y4517D01*
X4230Y4530D01*
X4245Y4545D01*
X4258Y4562D01*
X4267Y4581D01*
X4272Y4602D01*
X4274Y4623D01*
X4272Y4644D01*
X4267Y4665D01*
X4258Y4684D01*
X4245Y4701D01*
X4230Y4716D01*
X4213Y4729D01*
X4194Y4738D01*
X4173Y4743D01*
X4152Y4745D01*
X4131Y4743D01*
X4110Y4738D01*
X4091Y4729D01*
X4074Y4716D01*
X4059Y4701D01*
X4046Y4684D01*
X4037Y4665D01*
X4032Y4644D01*
X4030Y4623D01*
X4032Y4602D01*
X4037Y4581D01*
X4046Y4562D01*
X4059Y4545D01*
X4074Y4530D01*
X4091Y4517D01*
X4110Y4508D01*
X4131Y4503D01*
X4152Y4501D01*
X4372Y4525D02*
X4390Y4527D01*
X4407Y4532D01*
X4424Y4540D01*
X4438Y4551D01*
X4450Y4564D01*
X4460Y4579D01*
X4466Y4596D01*
X4470Y4614D01*
X4470Y4632D01*
X4466Y4650D01*
X4460Y4667D01*
X4450Y4682D01*
X4438Y4695D01*
X4424Y4706D01*
X4407Y4714D01*
X4390Y4719D01*
X4372Y4721D01*
X4354Y4719D01*
X4337Y4714D01*
X4320Y4706D01*
X4306Y4695D01*
X4294Y4682D01*
X4284Y4667D01*
X4278Y4650D01*
X4274Y4632D01*
X4274Y4614D01*
X4278Y4596D01*
X4284Y4579D01*
X4294Y4564D01*
X4306Y4551D01*
X4320Y4540D01*
X4337Y4532D01*
X4354Y4527D01*
X4372Y4525D01*
X4470Y5085D02*
X4468Y5104D01*
X4463Y5123D01*
X4455Y5140D01*
X4444Y5156D01*
X4431Y5169D01*
X4415Y5180D01*
X4398Y5188D01*
X4379Y5193D01*
X4360Y5195D01*
X4470Y5085D02*
X4468Y5063D01*
X4463Y5041D01*
X4455Y5021D01*
X4443Y5002D01*
X4429Y4985D01*
X4412Y4971D01*
X4393Y4959D01*
X4372Y4951D01*
X4275Y5158D02*
X4289Y5171D01*
X4305Y5181D01*
X4322Y5189D01*
X4341Y5193D01*
X4360Y5195D01*
X4274Y5158D02*
X4030Y4951D01*
X4030Y5195D01*
X4274Y5401D02*
X4274Y5547D01*
X4275Y5547D02*
X4274Y5564D01*
X4269Y5581D01*
X4262Y5596D01*
X4252Y5610D01*
X4240Y5622D01*
X4226Y5632D01*
X4211Y5639D01*
X4194Y5644D01*
X4177Y5645D01*
X4152Y5645D01*
X4131Y5643D01*
X4110Y5638D01*
X4091Y5629D01*
X4074Y5616D01*
X4059Y5601D01*
X4046Y5584D01*
X4037Y5565D01*
X4032Y5544D01*
X4030Y5523D01*
X4032Y5502D01*
X4037Y5481D01*
X4046Y5462D01*
X4059Y5445D01*
X4074Y5430D01*
X4091Y5417D01*
X4110Y5408D01*
X4131Y5403D01*
X4152Y5401D01*
X4274Y5401D01*
X4274Y5400D02*
X4300Y5402D01*
X4325Y5407D01*
X4349Y5415D01*
X4372Y5426D01*
X4393Y5441D01*
X4413Y5457D01*
X4429Y5477D01*
X4444Y5498D01*
X4455Y5521D01*
X4463Y5545D01*
X4468Y5570D01*
X4470Y5596D01*
X4409Y5887D02*
X4379Y5874D01*
X4348Y5863D01*
X4316Y5856D01*
X4283Y5851D01*
X4250Y5850D01*
X4409Y5888D02*
X4426Y5896D01*
X4441Y5907D01*
X4453Y5921D01*
X4462Y5937D01*
X4468Y5955D01*
X4470Y5973D01*
X4468Y5991D01*
X4462Y6009D01*
X4453Y6025D01*
X4441Y6039D01*
X4426Y6050D01*
X4409Y6058D01*
X4379Y6071D01*
X4348Y6082D01*
X4316Y6089D01*
X4283Y6094D01*
X4250Y6095D01*
X4250Y5850D02*
X4217Y5851D01*
X4185Y5856D01*
X4152Y5863D01*
X4121Y5874D01*
X4091Y5887D01*
X4091Y5888D02*
X4074Y5896D01*
X4059Y5907D01*
X4047Y5921D01*
X4038Y5937D01*
X4032Y5955D01*
X4030Y5973D01*
X4091Y6058D02*
X4121Y6071D01*
X4152Y6082D01*
X4184Y6089D01*
X4217Y6094D01*
X4250Y6095D01*
X4091Y6058D02*
X4074Y6050D01*
X4059Y6039D01*
X4047Y6025D01*
X4038Y6009D01*
X4032Y5991D01*
X4030Y5973D01*
X4128Y5875D02*
X4372Y6071D01*
X4780Y2236D02*
X5220Y2236D01*
X5024Y2236D02*
X5024Y2480D01*
X5220Y2480D02*
X4780Y2480D01*
X4780Y2832D02*
X4781Y2849D01*
X4786Y2866D01*
X4793Y2881D01*
X4803Y2895D01*
X4815Y2907D01*
X4829Y2917D01*
X4844Y2924D01*
X4861Y2929D01*
X4878Y2930D01*
X4780Y2832D02*
X4782Y2805D01*
X4787Y2778D01*
X4796Y2752D01*
X4808Y2728D01*
X4823Y2705D01*
X4841Y2685D01*
X5122Y2698D02*
X5139Y2699D01*
X5156Y2704D01*
X5171Y2711D01*
X5185Y2721D01*
X5197Y2733D01*
X5207Y2747D01*
X5214Y2762D01*
X5219Y2779D01*
X5220Y2796D01*
X5218Y2819D01*
X5214Y2843D01*
X5207Y2865D01*
X5196Y2886D01*
X5183Y2906D01*
X5037Y2747D02*
X5047Y2733D01*
X5059Y2721D01*
X5073Y2711D01*
X5088Y2704D01*
X5105Y2699D01*
X5122Y2698D01*
X4963Y2881D02*
X4953Y2895D01*
X4941Y2907D01*
X4927Y2917D01*
X4912Y2924D01*
X4895Y2929D01*
X4878Y2930D01*
X4963Y2881D02*
X5037Y2747D01*
X5220Y3136D02*
X4780Y3136D01*
X5220Y3136D02*
X5220Y3258D01*
X5218Y3279D01*
X5213Y3300D01*
X5204Y3319D01*
X5191Y3336D01*
X5176Y3351D01*
X5159Y3364D01*
X5140Y3373D01*
X5119Y3378D01*
X5098Y3380D01*
X4902Y3380D01*
X4881Y3378D01*
X4860Y3373D01*
X4841Y3364D01*
X4824Y3351D01*
X4809Y3336D01*
X4796Y3319D01*
X4787Y3300D01*
X4782Y3279D01*
X4780Y3258D01*
X4780Y3136D01*
X4780Y3617D02*
X5220Y3617D01*
X4780Y3617D02*
X4780Y3812D01*
X4951Y3996D02*
X4951Y4289D01*
X4976Y4598D02*
X4976Y4745D01*
X4975Y4598D02*
X4976Y4581D01*
X4981Y4564D01*
X4988Y4549D01*
X4998Y4535D01*
X5010Y4523D01*
X5024Y4513D01*
X5039Y4506D01*
X5056Y4501D01*
X5073Y4500D01*
X5073Y4501D02*
X5098Y4501D01*
X5119Y4503D01*
X5140Y4508D01*
X5159Y4517D01*
X5176Y4530D01*
X5191Y4545D01*
X5204Y4562D01*
X5213Y4581D01*
X5218Y4602D01*
X5220Y4623D01*
X5218Y4644D01*
X5213Y4665D01*
X5204Y4684D01*
X5191Y4701D01*
X5176Y4716D01*
X5159Y4729D01*
X5140Y4738D01*
X5119Y4743D01*
X5098Y4745D01*
X4976Y4745D01*
X4950Y4743D01*
X4925Y4738D01*
X4901Y4730D01*
X4878Y4719D01*
X4857Y4704D01*
X4837Y4688D01*
X4821Y4668D01*
X4806Y4647D01*
X4795Y4624D01*
X4787Y4600D01*
X4782Y4575D01*
X4780Y4549D01*
X5122Y4951D02*
X5220Y5073D01*
X4780Y5073D01*
X4780Y4951D02*
X4780Y5195D01*
X5000Y5400D02*
X5033Y5401D01*
X5066Y5406D01*
X5098Y5413D01*
X5129Y5424D01*
X5159Y5437D01*
X5159Y5438D02*
X5176Y5446D01*
X5191Y5457D01*
X5203Y5471D01*
X5212Y5487D01*
X5218Y5505D01*
X5220Y5523D01*
X5218Y5541D01*
X5212Y5559D01*
X5203Y5575D01*
X5191Y5589D01*
X5176Y5600D01*
X5159Y5608D01*
X5129Y5621D01*
X5098Y5632D01*
X5066Y5639D01*
X5033Y5644D01*
X5000Y5645D01*
X5000Y5400D02*
X4967Y5401D01*
X4935Y5406D01*
X4902Y5413D01*
X4871Y5424D01*
X4841Y5437D01*
X4841Y5438D02*
X4824Y5446D01*
X4809Y5457D01*
X4797Y5471D01*
X4788Y5487D01*
X4782Y5505D01*
X4780Y5523D01*
X4841Y5608D02*
X4871Y5621D01*
X4902Y5632D01*
X4934Y5639D01*
X4967Y5644D01*
X5000Y5645D01*
X4841Y5608D02*
X4824Y5600D01*
X4809Y5589D01*
X4797Y5575D01*
X4788Y5559D01*
X4782Y5541D01*
X4780Y5523D01*
X4878Y5425D02*
X5122Y5621D01*
X5000Y5850D02*
X5033Y5851D01*
X5066Y5856D01*
X5098Y5863D01*
X5129Y5874D01*
X5159Y5887D01*
X5159Y5888D02*
X5176Y5896D01*
X5191Y5907D01*
X5203Y5921D01*
X5212Y5937D01*
X5218Y5955D01*
X5220Y5973D01*
X5218Y5991D01*
X5212Y6009D01*
X5203Y6025D01*
X5191Y6039D01*
X5176Y6050D01*
X5159Y6058D01*
X5129Y6071D01*
X5098Y6082D01*
X5066Y6089D01*
X5033Y6094D01*
X5000Y6095D01*
X5000Y5850D02*
X4967Y5851D01*
X4935Y5856D01*
X4902Y5863D01*
X4871Y5874D01*
X4841Y5887D01*
X4841Y5888D02*
X4824Y5896D01*
X4809Y5907D01*
X4797Y5921D01*
X4788Y5937D01*
X4782Y5955D01*
X4780Y5973D01*
X4841Y6058D02*
X4871Y6071D01*
X4902Y6082D01*
X4934Y6089D01*
X4967Y6094D01*
X5000Y6095D01*
X4841Y6058D02*
X4824Y6050D01*
X4809Y6039D01*
X4797Y6025D01*
X4788Y6009D01*
X4782Y5991D01*
X4780Y5973D01*
X4878Y5875D02*
X5122Y6071D01*
X2405Y1428D02*
X2405Y1306D01*
X2405Y1428D02*
X2407Y1449D01*
X2412Y1470D01*
X2421Y1489D01*
X2434Y1506D01*
X2449Y1521D01*
X2466Y1534D01*
X2485Y1543D01*
X2506Y1548D01*
X2527Y1550D01*
X2548Y1548D01*
X2569Y1543D01*
X2588Y1534D01*
X2605Y1521D01*
X2620Y1506D01*
X2633Y1489D01*
X2642Y1470D01*
X2647Y1449D01*
X2649Y1428D01*
X2845Y1452D02*
X2845Y1306D01*
X2845Y1452D02*
X2843Y1470D01*
X2838Y1487D01*
X2830Y1504D01*
X2819Y1518D01*
X2806Y1530D01*
X2791Y1540D01*
X2774Y1546D01*
X2756Y1550D01*
X2738Y1550D01*
X2720Y1546D01*
X2703Y1540D01*
X2688Y1530D01*
X2675Y1518D01*
X2664Y1504D01*
X2656Y1487D01*
X2651Y1470D01*
X2649Y1452D01*
X2649Y1354D01*
X2356Y1735D02*
X2894Y1931D01*
X2747Y2116D02*
X2845Y2238D01*
X2405Y2238D01*
X2405Y2116D02*
X2405Y2360D01*
X2527Y2566D02*
X2548Y2568D01*
X2569Y2573D01*
X2588Y2582D01*
X2605Y2595D01*
X2620Y2610D01*
X2633Y2627D01*
X2642Y2646D01*
X2647Y2667D01*
X2649Y2688D01*
X2647Y2709D01*
X2642Y2730D01*
X2633Y2749D01*
X2620Y2766D01*
X2605Y2781D01*
X2588Y2794D01*
X2569Y2803D01*
X2548Y2808D01*
X2527Y2810D01*
X2506Y2808D01*
X2485Y2803D01*
X2466Y2794D01*
X2449Y2781D01*
X2434Y2766D01*
X2421Y2749D01*
X2412Y2730D01*
X2407Y2709D01*
X2405Y2688D01*
X2407Y2667D01*
X2412Y2646D01*
X2421Y2627D01*
X2434Y2610D01*
X2449Y2595D01*
X2466Y2582D01*
X2485Y2573D01*
X2506Y2568D01*
X2527Y2566D01*
X2747Y2590D02*
X2765Y2592D01*
X2782Y2597D01*
X2799Y2605D01*
X2813Y2616D01*
X2825Y2629D01*
X2835Y2644D01*
X2841Y2661D01*
X2845Y2679D01*
X2845Y2697D01*
X2841Y2715D01*
X2835Y2732D01*
X2825Y2747D01*
X2813Y2760D01*
X2799Y2771D01*
X2782Y2779D01*
X2765Y2784D01*
X2747Y2786D01*
X2729Y2784D01*
X2712Y2779D01*
X2695Y2771D01*
X2681Y2760D01*
X2669Y2747D01*
X2659Y2732D01*
X2653Y2715D01*
X2649Y2697D01*
X2649Y2679D01*
X2653Y2661D01*
X2659Y2644D01*
X2669Y2629D01*
X2681Y2616D01*
X2695Y2605D01*
X2712Y2597D01*
X2729Y2592D01*
X2747Y2590D01*
X2356Y2995D02*
X2894Y3191D01*
X2845Y3510D02*
X2843Y3529D01*
X2838Y3548D01*
X2830Y3565D01*
X2819Y3581D01*
X2806Y3594D01*
X2790Y3605D01*
X2773Y3613D01*
X2754Y3618D01*
X2735Y3620D01*
X2845Y3510D02*
X2843Y3488D01*
X2838Y3466D01*
X2830Y3446D01*
X2818Y3427D01*
X2804Y3410D01*
X2787Y3396D01*
X2768Y3384D01*
X2747Y3376D01*
X2650Y3583D02*
X2664Y3596D01*
X2680Y3606D01*
X2697Y3614D01*
X2716Y3618D01*
X2735Y3620D01*
X2649Y3583D02*
X2405Y3376D01*
X2405Y3620D01*
X2625Y3825D02*
X2658Y3826D01*
X2691Y3831D01*
X2723Y3838D01*
X2754Y3849D01*
X2784Y3862D01*
X2784Y3863D02*
X2801Y3871D01*
X2816Y3882D01*
X2828Y3896D01*
X2837Y3912D01*
X2843Y3930D01*
X2845Y3948D01*
X2843Y3966D01*
X2837Y3984D01*
X2828Y4000D01*
X2816Y4014D01*
X2801Y4025D01*
X2784Y4033D01*
X2754Y4046D01*
X2723Y4057D01*
X2691Y4064D01*
X2658Y4069D01*
X2625Y4070D01*
X2625Y3825D02*
X2592Y3826D01*
X2560Y3831D01*
X2527Y3838D01*
X2496Y3849D01*
X2466Y3862D01*
X2466Y3863D02*
X2449Y3871D01*
X2434Y3882D01*
X2422Y3896D01*
X2413Y3912D01*
X2407Y3930D01*
X2405Y3948D01*
X2466Y4033D02*
X2496Y4046D01*
X2527Y4057D01*
X2559Y4064D01*
X2592Y4069D01*
X2625Y4070D01*
X2466Y4033D02*
X2449Y4025D01*
X2434Y4014D01*
X2422Y4000D01*
X2413Y3984D01*
X2407Y3966D01*
X2405Y3948D01*
X2503Y3850D02*
X2747Y4046D01*
X2747Y4276D02*
X2845Y4398D01*
X2405Y4398D01*
X2405Y4276D02*
X2405Y4520D01*
X2527Y4726D02*
X2548Y4728D01*
X2569Y4733D01*
X2588Y4742D01*
X2605Y4755D01*
X2620Y4770D01*
X2633Y4787D01*
X2642Y4806D01*
X2647Y4827D01*
X2649Y4848D01*
X2647Y4869D01*
X2642Y4890D01*
X2633Y4909D01*
X2620Y4926D01*
X2605Y4941D01*
X2588Y4954D01*
X2569Y4963D01*
X2548Y4968D01*
X2527Y4970D01*
X2506Y4968D01*
X2485Y4963D01*
X2466Y4954D01*
X2449Y4941D01*
X2434Y4926D01*
X2421Y4909D01*
X2412Y4890D01*
X2407Y4869D01*
X2405Y4848D01*
X2407Y4827D01*
X2412Y4806D01*
X2421Y4787D01*
X2434Y4770D01*
X2449Y4755D01*
X2466Y4742D01*
X2485Y4733D01*
X2506Y4728D01*
X2527Y4726D01*
X2747Y4750D02*
X2765Y4752D01*
X2782Y4757D01*
X2799Y4765D01*
X2813Y4776D01*
X2825Y4789D01*
X2835Y4804D01*
X2841Y4821D01*
X2845Y4839D01*
X2845Y4857D01*
X2841Y4875D01*
X2835Y4892D01*
X2825Y4907D01*
X2813Y4920D01*
X2799Y4931D01*
X2782Y4939D01*
X2765Y4944D01*
X2747Y4946D01*
X2729Y4944D01*
X2712Y4939D01*
X2695Y4931D01*
X2681Y4920D01*
X2669Y4907D01*
X2659Y4892D01*
X2653Y4875D01*
X2649Y4857D01*
X2649Y4839D01*
X2653Y4821D01*
X2659Y4804D01*
X2669Y4789D01*
X2681Y4776D01*
X2695Y4765D01*
X2712Y4757D01*
X2729Y4752D01*
X2747Y4750D01*
X1470Y3153D02*
X1030Y3153D01*
X1470Y3031D02*
X1470Y3276D01*
X1030Y3547D02*
X1030Y3645D01*
X1030Y3547D02*
X1031Y3530D01*
X1036Y3513D01*
X1043Y3498D01*
X1053Y3484D01*
X1065Y3472D01*
X1079Y3462D01*
X1094Y3455D01*
X1111Y3450D01*
X1128Y3449D01*
X1372Y3449D01*
X1391Y3451D01*
X1410Y3456D01*
X1426Y3466D01*
X1441Y3478D01*
X1453Y3493D01*
X1463Y3509D01*
X1468Y3528D01*
X1470Y3547D01*
X1470Y3645D01*
X1470Y3802D02*
X1262Y3948D01*
X1470Y4095D01*
X1262Y3948D02*
X1030Y3948D01*
M02*
