G04 EAGLE Gerber X2 export*
%TF.Part,Single*%
%TF.FileFunction,Copper,L1,Top,Mixed*%
%TF.FilePolarity,Positive*%
%TF.GenerationSoftware,Autodesk,EAGLE,8.7.0*%
%TF.CreationDate,2018-03-19T04:16:22Z*%
G75*
%MOIN*%
%FSLAX34Y34*%
%LPD*%
%AMOC8*
5,1,8,0,0,1.08239X$1,22.5*%
G01*
%ADD10R,0.031496X0.031496*%
%ADD11R,0.051181X0.035433*%
%ADD12R,0.012992X0.025591*%
%ADD13R,0.031496X0.088583*%
%ADD14P,0.082262X8X292.500000*%
%ADD15R,0.037402X0.037402*%
%ADD16R,0.062992X0.074803*%
%ADD17P,0.082262X8X112.500000*%
%ADD18C,0.012000*%
%ADD19C,0.023780*%
%ADD20C,0.016000*%
%ADD21C,0.032000*%

G36*
X5454Y151D02*
X5454Y151D01*
X5457Y151D01*
X5457Y152D01*
X5459Y152D01*
X5460Y154D01*
X5462Y155D01*
X5463Y156D01*
X5464Y157D01*
X5465Y159D01*
X5466Y161D01*
X5466Y162D01*
X5466Y163D01*
X5466Y164D01*
X5466Y165D01*
X5466Y8080D01*
X5466Y8082D01*
X5466Y8084D01*
X5465Y8085D01*
X5465Y8087D01*
X5463Y8088D01*
X5462Y8090D01*
X5461Y8091D01*
X5461Y8092D01*
X5458Y8092D01*
X5457Y8094D01*
X5455Y8094D01*
X5454Y8094D01*
X5452Y8094D01*
X165Y8094D01*
X163Y8094D01*
X161Y8094D01*
X160Y8093D01*
X159Y8093D01*
X157Y8091D01*
X155Y8090D01*
X154Y8089D01*
X153Y8088D01*
X153Y8086D01*
X151Y8084D01*
X151Y8083D01*
X151Y8082D01*
X151Y8080D01*
X151Y165D01*
X151Y163D01*
X151Y161D01*
X152Y160D01*
X152Y159D01*
X154Y157D01*
X155Y155D01*
X156Y154D01*
X157Y153D01*
X159Y153D01*
X161Y151D01*
X162Y151D01*
X163Y151D01*
X164Y151D01*
X165Y151D01*
X5452Y151D01*
X5454Y151D01*
G37*
%LPC*%
G36*
X865Y5695D02*
X865Y5695D01*
X829Y5731D01*
X829Y5990D01*
X828Y5992D01*
X828Y5994D01*
X828Y5995D01*
X827Y5996D01*
X826Y5998D01*
X825Y6000D01*
X824Y6001D01*
X823Y6002D01*
X821Y6002D01*
X819Y6004D01*
X818Y6004D01*
X817Y6004D01*
X816Y6004D01*
X815Y6004D01*
X764Y6004D01*
X760Y6003D01*
X758Y6003D01*
X754Y6000D01*
X699Y5945D01*
X551Y5945D01*
X445Y6051D01*
X445Y6199D01*
X551Y6305D01*
X699Y6305D01*
X754Y6250D01*
X760Y6246D01*
X764Y6246D01*
X773Y6246D01*
X775Y6246D01*
X780Y6247D01*
X783Y6250D01*
X786Y6253D01*
X1123Y6253D01*
X1198Y6178D01*
X1240Y6136D01*
X1242Y6135D01*
X1244Y6133D01*
X1245Y6133D01*
X1246Y6133D01*
X1248Y6132D01*
X1250Y6132D01*
X1251Y6132D01*
X1252Y6132D01*
X1254Y6133D01*
X1256Y6133D01*
X1258Y6134D01*
X1258Y6135D01*
X1259Y6135D01*
X1260Y6136D01*
X1420Y6296D01*
X1421Y6298D01*
X1422Y6298D01*
X1422Y6300D01*
X1424Y6302D01*
X1424Y6304D01*
X1424Y6305D01*
X1425Y6306D01*
X1425Y6393D01*
X1424Y6395D01*
X1424Y6397D01*
X1423Y6398D01*
X1423Y6399D01*
X1422Y6401D01*
X1420Y6403D01*
X1419Y6403D01*
X1419Y6404D01*
X1417Y6405D01*
X1415Y6406D01*
X1413Y6406D01*
X1413Y6407D01*
X1412Y6407D01*
X1410Y6407D01*
X1363Y6407D01*
X1327Y6442D01*
X1327Y6808D01*
X1352Y6832D01*
X1353Y6834D01*
X1354Y6836D01*
X1355Y6837D01*
X1355Y6838D01*
X1355Y6840D01*
X1356Y6842D01*
X1356Y6844D01*
X1356Y6845D01*
X1355Y6847D01*
X1354Y6849D01*
X1353Y6850D01*
X1353Y6851D01*
X1352Y6852D01*
X1329Y6875D01*
X1323Y6879D01*
X1319Y6879D01*
X1200Y6879D01*
X956Y7123D01*
X950Y7127D01*
X946Y7127D01*
X752Y7127D01*
X717Y7163D01*
X717Y7587D01*
X752Y7623D01*
X1177Y7623D01*
X1212Y7587D01*
X1212Y7214D01*
X1213Y7210D01*
X1214Y7208D01*
X1216Y7204D01*
X1263Y7157D01*
X1264Y7157D01*
X1265Y7156D01*
X1267Y7155D01*
X1269Y7154D01*
X1270Y7154D01*
X1271Y7153D01*
X1273Y7154D01*
X1276Y7153D01*
X1277Y7154D01*
X1278Y7154D01*
X1280Y7155D01*
X1282Y7156D01*
X1283Y7157D01*
X1284Y7157D01*
X1285Y7159D01*
X1286Y7161D01*
X1286Y7162D01*
X1287Y7163D01*
X1288Y7167D01*
X1288Y7587D01*
X1323Y7623D01*
X1748Y7623D01*
X1783Y7587D01*
X1783Y7529D01*
X1784Y7527D01*
X1784Y7525D01*
X1784Y7524D01*
X1785Y7523D01*
X1786Y7521D01*
X1787Y7519D01*
X1788Y7518D01*
X1789Y7517D01*
X1791Y7517D01*
X1793Y7515D01*
X1795Y7515D01*
X1796Y7515D01*
X1797Y7515D01*
X2044Y7515D01*
X2046Y7515D01*
X2048Y7515D01*
X2049Y7516D01*
X2051Y7516D01*
X2052Y7518D01*
X2054Y7519D01*
X2055Y7520D01*
X2056Y7521D01*
X2056Y7523D01*
X2058Y7525D01*
X2058Y7526D01*
X2058Y7527D01*
X2058Y7528D01*
X2058Y7529D01*
X2058Y7576D01*
X2094Y7612D01*
X2656Y7612D01*
X2692Y7576D01*
X2692Y7529D01*
X2692Y7527D01*
X2692Y7525D01*
X2693Y7524D01*
X2693Y7523D01*
X2695Y7521D01*
X2696Y7519D01*
X2697Y7518D01*
X2698Y7517D01*
X2700Y7517D01*
X2701Y7515D01*
X2703Y7515D01*
X2704Y7515D01*
X2706Y7515D01*
X3261Y7515D01*
X3262Y7515D01*
X3267Y7516D01*
X3271Y7519D01*
X3317Y7566D01*
X3683Y7566D01*
X3941Y7308D01*
X3941Y6942D01*
X3683Y6684D01*
X3317Y6684D01*
X3059Y6942D01*
X3059Y7219D01*
X3059Y7221D01*
X3059Y7223D01*
X3058Y7224D01*
X3058Y7225D01*
X3056Y7227D01*
X3055Y7229D01*
X3054Y7230D01*
X3053Y7231D01*
X3051Y7231D01*
X3049Y7233D01*
X3048Y7233D01*
X3047Y7233D01*
X3046Y7233D01*
X3045Y7233D01*
X2706Y7233D01*
X2704Y7233D01*
X2702Y7233D01*
X2701Y7232D01*
X2699Y7232D01*
X2698Y7230D01*
X2696Y7229D01*
X2695Y7228D01*
X2694Y7227D01*
X2694Y7225D01*
X2692Y7223D01*
X2692Y7222D01*
X2692Y7221D01*
X2692Y7220D01*
X2692Y7219D01*
X2692Y7172D01*
X2656Y7136D01*
X2094Y7136D01*
X2058Y7172D01*
X2058Y7219D01*
X2058Y7221D01*
X2058Y7223D01*
X2057Y7224D01*
X2057Y7225D01*
X2055Y7227D01*
X2054Y7229D01*
X2053Y7230D01*
X2052Y7231D01*
X2050Y7231D01*
X2048Y7233D01*
X2047Y7233D01*
X2046Y7233D01*
X2044Y7233D01*
X1797Y7233D01*
X1795Y7233D01*
X1793Y7233D01*
X1792Y7232D01*
X1791Y7232D01*
X1789Y7230D01*
X1787Y7229D01*
X1787Y7228D01*
X1786Y7227D01*
X1785Y7225D01*
X1784Y7223D01*
X1784Y7222D01*
X1783Y7221D01*
X1783Y7220D01*
X1783Y7219D01*
X1783Y7163D01*
X1748Y7127D01*
X1453Y7127D01*
X1452Y7127D01*
X1451Y7127D01*
X1449Y7126D01*
X1446Y7126D01*
X1446Y7125D01*
X1445Y7125D01*
X1443Y7123D01*
X1441Y7121D01*
X1441Y7120D01*
X1440Y7119D01*
X1440Y7117D01*
X1439Y7115D01*
X1439Y7114D01*
X1439Y7113D01*
X1439Y7111D01*
X1439Y7109D01*
X1440Y7108D01*
X1440Y7107D01*
X1443Y7103D01*
X1500Y7046D01*
X1577Y6969D01*
X1579Y6967D01*
X1610Y6946D01*
X1611Y6938D01*
X1612Y6936D01*
X1613Y6934D01*
X1614Y6933D01*
X1614Y6932D01*
X1615Y6931D01*
X1621Y6925D01*
X1621Y6887D01*
X1621Y6886D01*
X1621Y6885D01*
X1626Y6855D01*
X1627Y6854D01*
X1627Y6853D01*
X1628Y6851D01*
X1629Y6849D01*
X1630Y6848D01*
X1630Y6847D01*
X1632Y6846D01*
X1634Y6845D01*
X1635Y6844D01*
X1636Y6844D01*
X1640Y6843D01*
X1728Y6843D01*
X1764Y6808D01*
X1764Y6442D01*
X1728Y6407D01*
X1680Y6407D01*
X1678Y6406D01*
X1676Y6406D01*
X1675Y6405D01*
X1674Y6405D01*
X1672Y6404D01*
X1670Y6403D01*
X1670Y6402D01*
X1669Y6401D01*
X1668Y6399D01*
X1667Y6397D01*
X1666Y6395D01*
X1666Y6394D01*
X1666Y6393D01*
X1666Y6200D01*
X1591Y6125D01*
X1563Y6097D01*
X1562Y6096D01*
X1561Y6095D01*
X1560Y6093D01*
X1559Y6091D01*
X1559Y6090D01*
X1559Y6089D01*
X1559Y6087D01*
X1559Y6085D01*
X1559Y6084D01*
X1559Y6082D01*
X1560Y6081D01*
X1561Y6078D01*
X1562Y6078D01*
X1563Y6077D01*
X1564Y6076D01*
X1566Y6074D01*
X1567Y6074D01*
X1568Y6073D01*
X1573Y6073D01*
X1635Y6073D01*
X1671Y6037D01*
X1671Y5731D01*
X1635Y5695D01*
X1454Y5695D01*
X1453Y5696D01*
X1452Y5696D01*
X1451Y5697D01*
X1449Y5697D01*
X1447Y5698D01*
X1446Y5697D01*
X1445Y5697D01*
X1443Y5697D01*
X1440Y5696D01*
X1439Y5695D01*
X1257Y5695D01*
X1256Y5696D01*
X1255Y5696D01*
X1254Y5697D01*
X1252Y5697D01*
X1250Y5698D01*
X1249Y5697D01*
X1248Y5697D01*
X1246Y5697D01*
X1244Y5696D01*
X1242Y5695D01*
X1061Y5695D01*
X1060Y5696D01*
X1059Y5696D01*
X1058Y5697D01*
X1055Y5697D01*
X1053Y5698D01*
X1052Y5697D01*
X1051Y5697D01*
X1049Y5697D01*
X1047Y5696D01*
X1046Y5695D01*
X865Y5695D01*
G37*
%LPD*%
%LPC*%
G36*
X1675Y440D02*
X1675Y440D01*
X1639Y476D01*
X1639Y668D01*
X1638Y672D01*
X1638Y674D01*
X1635Y678D01*
X813Y1500D01*
X813Y2289D01*
X815Y2292D01*
X815Y2297D01*
X815Y2665D01*
X851Y2701D01*
X1216Y2701D01*
X1252Y2665D01*
X1252Y2297D01*
X1253Y2290D01*
X1254Y2289D01*
X1254Y1689D01*
X1255Y1687D01*
X1255Y1686D01*
X1255Y1685D01*
X1256Y1682D01*
X1258Y1679D01*
X1641Y1296D01*
X1643Y1295D01*
X1645Y1294D01*
X1646Y1293D01*
X1647Y1293D01*
X1649Y1293D01*
X1651Y1292D01*
X1652Y1292D01*
X1653Y1292D01*
X1655Y1293D01*
X1657Y1294D01*
X1659Y1294D01*
X1659Y1295D01*
X1660Y1295D01*
X1661Y1296D01*
X1675Y1310D01*
X2355Y1310D01*
X2390Y1274D01*
X2390Y476D01*
X2355Y440D01*
X1675Y440D01*
G37*
%LPD*%
%LPC*%
G36*
X2895Y440D02*
X2895Y440D01*
X2860Y476D01*
X2860Y1274D01*
X2895Y1310D01*
X3265Y1310D01*
X3267Y1310D01*
X3269Y1310D01*
X3270Y1311D01*
X3271Y1311D01*
X3273Y1313D01*
X3275Y1314D01*
X3276Y1315D01*
X3277Y1316D01*
X3277Y1318D01*
X3279Y1320D01*
X3279Y1321D01*
X3279Y1322D01*
X3279Y1323D01*
X3279Y1324D01*
X3279Y1717D01*
X3278Y1720D01*
X3278Y1723D01*
X3275Y1727D01*
X3059Y1942D01*
X3059Y2308D01*
X3317Y2566D01*
X3683Y2566D01*
X3941Y2308D01*
X3941Y1942D01*
X3725Y1727D01*
X3721Y1721D01*
X3721Y1717D01*
X3721Y1048D01*
X3615Y943D01*
X3612Y937D01*
X3611Y933D01*
X3611Y476D01*
X3575Y440D01*
X2895Y440D01*
G37*
%LPD*%
%LPC*%
G36*
X851Y3799D02*
X851Y3799D01*
X815Y3835D01*
X815Y4771D01*
X851Y4807D01*
X880Y4807D01*
X882Y4807D01*
X887Y4808D01*
X890Y4811D01*
X911Y4832D01*
X912Y4833D01*
X941Y4867D01*
X944Y4868D01*
X946Y4868D01*
X947Y4869D01*
X948Y4869D01*
X950Y4871D01*
X982Y4903D01*
X983Y4904D01*
X984Y4905D01*
X985Y4907D01*
X986Y4909D01*
X986Y4910D01*
X986Y4911D01*
X986Y4913D01*
X986Y4915D01*
X986Y4916D01*
X986Y4918D01*
X985Y4919D01*
X984Y4922D01*
X983Y4922D01*
X982Y4923D01*
X980Y4924D01*
X979Y4926D01*
X978Y4926D01*
X977Y4927D01*
X972Y4927D01*
X865Y4927D01*
X829Y4963D01*
X829Y5269D01*
X865Y5305D01*
X1045Y5305D01*
X1080Y5269D01*
X1080Y5003D01*
X1081Y5001D01*
X1081Y4999D01*
X1082Y4998D01*
X1082Y4997D01*
X1083Y4995D01*
X1085Y4993D01*
X1086Y4993D01*
X1086Y4992D01*
X1088Y4991D01*
X1090Y4990D01*
X1092Y4989D01*
X1093Y4989D01*
X1095Y4989D01*
X1205Y4989D01*
X1208Y4989D01*
X1210Y4990D01*
X1211Y4990D01*
X1212Y4990D01*
X1214Y4992D01*
X1216Y4993D01*
X1216Y4994D01*
X1217Y4995D01*
X1218Y4997D01*
X1219Y4999D01*
X1219Y5000D01*
X1220Y5001D01*
X1219Y5002D01*
X1220Y5003D01*
X1220Y5159D01*
X1222Y5163D01*
X1223Y5167D01*
X1223Y5269D01*
X1258Y5305D01*
X1439Y5305D01*
X1474Y5269D01*
X1474Y4963D01*
X1465Y4954D01*
X1462Y4949D01*
X1461Y4944D01*
X1461Y4888D01*
X1320Y4747D01*
X1266Y4747D01*
X1264Y4747D01*
X1262Y4747D01*
X1261Y4746D01*
X1259Y4746D01*
X1258Y4744D01*
X1256Y4743D01*
X1255Y4742D01*
X1254Y4742D01*
X1254Y4739D01*
X1252Y4738D01*
X1252Y4736D01*
X1252Y4735D01*
X1252Y4733D01*
X1252Y3835D01*
X1216Y3799D01*
X851Y3799D01*
G37*
%LPD*%
%LPC*%
G36*
X3317Y5684D02*
X3317Y5684D01*
X3059Y5942D01*
X3059Y6308D01*
X3317Y6566D01*
X3683Y6566D01*
X3941Y6308D01*
X3941Y5942D01*
X3683Y5684D01*
X3317Y5684D01*
G37*
%LPD*%
D10*
X955Y6625D03*
X1545Y6625D03*
D11*
X2375Y6626D03*
X2375Y7374D03*
D12*
X1348Y5116D03*
X1545Y5116D03*
X1152Y5116D03*
X955Y5116D03*
X1348Y5884D03*
X1545Y5884D03*
X1152Y5884D03*
X955Y5884D03*
D13*
X1033Y2197D03*
X1467Y2197D03*
X1033Y4303D03*
X1467Y4303D03*
D14*
X3500Y2125D03*
X3500Y3125D03*
D15*
X1535Y7375D03*
X965Y7375D03*
D16*
X3235Y875D03*
X2015Y875D03*
D17*
X3500Y6125D03*
X3500Y5125D03*
X3500Y7125D03*
D18*
X1340Y4938D02*
X1270Y4868D01*
X1340Y5108D02*
X1348Y5116D01*
X1340Y5108D02*
X1340Y4938D01*
X1270Y4868D02*
X1118Y4868D01*
X1000Y4750D01*
X1033Y4303D01*
D19*
X2125Y6000D03*
X2500Y6000D03*
X2500Y5250D03*
X2125Y5250D03*
X500Y4375D03*
X500Y3375D03*
X500Y2375D03*
X2000Y2375D03*
X2000Y3375D03*
X2000Y4375D03*
X1875Y5000D03*
X500Y6875D03*
X500Y6500D03*
D18*
X1348Y5884D02*
X1356Y5892D01*
X1356Y6062D01*
X1545Y6250D01*
X1545Y6625D01*
X1500Y6875D01*
X1375Y7000D01*
X1250Y7000D01*
X965Y7285D01*
X965Y7375D01*
D20*
X1535Y7375D02*
X1536Y7374D01*
X2375Y7374D01*
X3251Y7374D01*
X3500Y7125D01*
D21*
X2015Y875D02*
X1750Y875D01*
X1033Y1592D02*
X1033Y2197D01*
X1033Y1592D02*
X1750Y875D01*
D18*
X1152Y5884D02*
X1144Y5892D01*
X1144Y6062D01*
X1073Y6132D01*
X836Y6132D01*
X829Y6125D01*
X625Y6125D01*
D19*
X625Y6125D03*
D21*
X3500Y2125D02*
X3500Y1140D01*
X3235Y875D01*
M02*
