G04 EAGLE Gerber X2 export*
%TF.Part,Single*%
%TF.FileFunction,Copper,L2,Bot,Mixed*%
%TF.FilePolarity,Positive*%
%TF.GenerationSoftware,Autodesk,EAGLE,8.7.0*%
%TF.CreationDate,2018-03-20T01:21:41Z*%
G75*
%MOIN*%
%FSLAX34Y34*%
%LPD*%
%AMOC8*
5,1,8,0,0,1.08239X$1,22.5*%
G01*
%ADD10P,0.075767X8X112.500000*%
%ADD11P,0.075767X8X292.500000*%
%ADD12P,0.075767X8X202.500000*%
%ADD13P,0.075767X8X22.500000*%
%ADD14P,0.082262X8X112.500000*%
%ADD15C,0.012000*%
%ADD16C,0.029780*%

G36*
X11579Y401D02*
X11579Y401D01*
X11582Y401D01*
X11582Y402D01*
X11584Y402D01*
X11585Y404D01*
X11587Y405D01*
X11588Y406D01*
X11589Y407D01*
X11590Y409D01*
X11591Y411D01*
X11591Y412D01*
X11591Y413D01*
X11591Y414D01*
X11591Y415D01*
X11591Y10580D01*
X11591Y10582D01*
X11591Y10584D01*
X11590Y10585D01*
X11590Y10587D01*
X11588Y10588D01*
X11587Y10590D01*
X11586Y10591D01*
X11586Y10592D01*
X11583Y10592D01*
X11582Y10594D01*
X11580Y10594D01*
X11579Y10594D01*
X11577Y10594D01*
X415Y10594D01*
X413Y10594D01*
X411Y10594D01*
X410Y10593D01*
X409Y10593D01*
X407Y10591D01*
X405Y10590D01*
X404Y10589D01*
X403Y10588D01*
X403Y10586D01*
X401Y10584D01*
X401Y10583D01*
X401Y10582D01*
X401Y10580D01*
X401Y415D01*
X401Y413D01*
X401Y411D01*
X402Y410D01*
X402Y409D01*
X404Y407D01*
X405Y405D01*
X406Y404D01*
X407Y403D01*
X409Y403D01*
X411Y401D01*
X412Y401D01*
X413Y401D01*
X414Y401D01*
X415Y401D01*
X11577Y401D01*
X11579Y401D01*
G37*
%LPC*%
G36*
X2455Y589D02*
X2455Y589D01*
X2214Y830D01*
X2214Y1170D01*
X2455Y1411D01*
X2795Y1411D01*
X2820Y1386D01*
X2822Y1385D01*
X2824Y1383D01*
X2825Y1383D01*
X2826Y1382D01*
X2828Y1382D01*
X2830Y1382D01*
X2831Y1382D01*
X2832Y1382D01*
X2834Y1383D01*
X2837Y1383D01*
X2838Y1384D01*
X2839Y1385D01*
X2840Y1386D01*
X3200Y1746D01*
X5567Y1746D01*
X5568Y1746D01*
X5569Y1746D01*
X5572Y1747D01*
X5574Y1747D01*
X5575Y1748D01*
X5576Y1748D01*
X5577Y1750D01*
X5579Y1752D01*
X5579Y1753D01*
X5580Y1754D01*
X5580Y1756D01*
X5581Y1758D01*
X5581Y1759D01*
X5582Y1760D01*
X5581Y1762D01*
X5581Y1764D01*
X5580Y1765D01*
X5580Y1766D01*
X5577Y1770D01*
X5540Y1807D01*
X5540Y1981D01*
X5663Y2104D01*
X5837Y2104D01*
X5940Y2000D01*
X5946Y1996D01*
X5951Y1996D01*
X6694Y1996D01*
X6695Y1996D01*
X6701Y1997D01*
X6704Y2000D01*
X7411Y2707D01*
X7415Y2713D01*
X7415Y2717D01*
X7415Y2837D01*
X7538Y2960D01*
X7712Y2960D01*
X7835Y2837D01*
X7835Y2663D01*
X7712Y2540D01*
X7592Y2540D01*
X7588Y2539D01*
X7586Y2539D01*
X7582Y2536D01*
X6875Y1829D01*
X6816Y1770D01*
X6815Y1769D01*
X6814Y1768D01*
X6814Y1766D01*
X6812Y1764D01*
X6812Y1763D01*
X6812Y1762D01*
X6812Y1760D01*
X6812Y1758D01*
X6812Y1757D01*
X6812Y1756D01*
X6814Y1754D01*
X6814Y1752D01*
X6815Y1751D01*
X6816Y1750D01*
X6818Y1749D01*
X6819Y1747D01*
X6821Y1747D01*
X6822Y1746D01*
X6826Y1746D01*
X7194Y1746D01*
X7195Y1746D01*
X7201Y1747D01*
X7204Y1750D01*
X7536Y2082D01*
X7540Y2088D01*
X7540Y2092D01*
X7540Y2212D01*
X7663Y2335D01*
X7837Y2335D01*
X7960Y2212D01*
X7960Y2040D01*
X7960Y2039D01*
X7960Y2038D01*
X7961Y2036D01*
X7961Y2033D01*
X7962Y2032D01*
X7962Y2031D01*
X7964Y2030D01*
X7966Y2028D01*
X7967Y2028D01*
X7967Y2027D01*
X7970Y2027D01*
X7972Y2026D01*
X7973Y2026D01*
X7974Y2026D01*
X7976Y2026D01*
X7978Y2026D01*
X7979Y2027D01*
X7980Y2027D01*
X7984Y2030D01*
X8125Y2171D01*
X8129Y2177D01*
X8129Y2180D01*
X8129Y2181D01*
X8129Y5694D01*
X8129Y5697D01*
X8128Y5701D01*
X8125Y5704D01*
X7418Y6411D01*
X7412Y6415D01*
X7408Y6415D01*
X7288Y6415D01*
X7165Y6538D01*
X7165Y6590D01*
X7165Y6592D01*
X7165Y6593D01*
X7164Y6595D01*
X7164Y6597D01*
X7163Y6598D01*
X7163Y6599D01*
X7161Y6600D01*
X7159Y6602D01*
X7158Y6602D01*
X7158Y6603D01*
X7155Y6604D01*
X7153Y6605D01*
X7152Y6604D01*
X7151Y6605D01*
X7149Y6604D01*
X7147Y6604D01*
X7146Y6603D01*
X7145Y6603D01*
X7141Y6601D01*
X7045Y6504D01*
X6807Y6504D01*
X6803Y6503D01*
X6800Y6503D01*
X6797Y6500D01*
X6712Y6415D01*
X6538Y6415D01*
X6415Y6538D01*
X6415Y6590D01*
X6415Y6592D01*
X6415Y6593D01*
X6414Y6595D01*
X6414Y6597D01*
X6413Y6598D01*
X6413Y6599D01*
X6411Y6600D01*
X6409Y6602D01*
X6408Y6602D01*
X6408Y6603D01*
X6405Y6604D01*
X6403Y6605D01*
X6402Y6604D01*
X6401Y6605D01*
X6399Y6604D01*
X6397Y6604D01*
X6396Y6603D01*
X6395Y6603D01*
X6391Y6601D01*
X6339Y6548D01*
X6335Y6543D01*
X6335Y6538D01*
X6212Y6415D01*
X6038Y6415D01*
X5915Y6538D01*
X5915Y6712D01*
X6038Y6835D01*
X6212Y6835D01*
X6238Y6809D01*
X6240Y6808D01*
X6241Y6806D01*
X6242Y6806D01*
X6243Y6805D01*
X6246Y6805D01*
X6248Y6805D01*
X6249Y6805D01*
X6250Y6805D01*
X6252Y6806D01*
X6254Y6806D01*
X6255Y6807D01*
X6256Y6807D01*
X6257Y6808D01*
X6258Y6809D01*
X6644Y7195D01*
X7611Y7195D01*
X9746Y5060D01*
X9746Y1425D01*
X9746Y1423D01*
X9746Y1421D01*
X9747Y1420D01*
X9747Y1419D01*
X9749Y1417D01*
X9750Y1415D01*
X9751Y1414D01*
X9752Y1413D01*
X9754Y1413D01*
X9756Y1411D01*
X9757Y1411D01*
X9758Y1411D01*
X9759Y1411D01*
X9760Y1411D01*
X9795Y1411D01*
X10036Y1170D01*
X10036Y830D01*
X9795Y589D01*
X9455Y589D01*
X9214Y830D01*
X9214Y1170D01*
X9455Y1411D01*
X9490Y1411D01*
X9492Y1411D01*
X9494Y1411D01*
X9495Y1412D01*
X9496Y1412D01*
X9498Y1414D01*
X9500Y1415D01*
X9501Y1416D01*
X9502Y1417D01*
X9502Y1419D01*
X9504Y1421D01*
X9504Y1422D01*
X9504Y1423D01*
X9504Y1424D01*
X9504Y1425D01*
X9504Y4954D01*
X9503Y4958D01*
X9503Y4960D01*
X9500Y4964D01*
X8770Y5694D01*
X8769Y5695D01*
X8768Y5695D01*
X8766Y5696D01*
X8764Y5697D01*
X8763Y5698D01*
X8762Y5698D01*
X8760Y5698D01*
X8758Y5698D01*
X8757Y5698D01*
X8756Y5697D01*
X8754Y5696D01*
X8752Y5695D01*
X8751Y5695D01*
X8750Y5694D01*
X8749Y5692D01*
X8747Y5690D01*
X8747Y5689D01*
X8746Y5688D01*
X8746Y5684D01*
X8746Y1425D01*
X8746Y1423D01*
X8746Y1421D01*
X8747Y1420D01*
X8747Y1419D01*
X8749Y1417D01*
X8750Y1415D01*
X8751Y1414D01*
X8752Y1413D01*
X8754Y1413D01*
X8756Y1411D01*
X8757Y1411D01*
X8758Y1411D01*
X8759Y1411D01*
X8760Y1411D01*
X8795Y1411D01*
X9036Y1170D01*
X9036Y830D01*
X8795Y589D01*
X8455Y589D01*
X8214Y830D01*
X8214Y1170D01*
X8455Y1411D01*
X8490Y1411D01*
X8492Y1411D01*
X8494Y1411D01*
X8495Y1412D01*
X8496Y1412D01*
X8498Y1414D01*
X8500Y1415D01*
X8501Y1416D01*
X8502Y1417D01*
X8502Y1419D01*
X8504Y1421D01*
X8504Y1422D01*
X8504Y1423D01*
X8504Y1424D01*
X8504Y1425D01*
X8504Y5699D01*
X8503Y5703D01*
X8503Y5706D01*
X8500Y5709D01*
X8395Y5814D01*
X8394Y5815D01*
X8393Y5816D01*
X8391Y5817D01*
X8389Y5818D01*
X8388Y5818D01*
X8387Y5818D01*
X8385Y5818D01*
X8383Y5818D01*
X8382Y5818D01*
X8381Y5818D01*
X8379Y5817D01*
X8377Y5816D01*
X8376Y5815D01*
X8375Y5814D01*
X8374Y5813D01*
X8372Y5811D01*
X8372Y5810D01*
X8371Y5809D01*
X8371Y5804D01*
X8371Y2075D01*
X7750Y1454D01*
X7746Y1448D01*
X7746Y1444D01*
X7746Y1425D01*
X7746Y1423D01*
X7746Y1421D01*
X7747Y1420D01*
X7747Y1419D01*
X7749Y1417D01*
X7750Y1415D01*
X7751Y1414D01*
X7752Y1413D01*
X7754Y1413D01*
X7756Y1411D01*
X7757Y1411D01*
X7758Y1411D01*
X7759Y1411D01*
X7760Y1411D01*
X7795Y1411D01*
X8036Y1170D01*
X8036Y830D01*
X7795Y589D01*
X7455Y589D01*
X7214Y830D01*
X7214Y1170D01*
X7455Y1411D01*
X7490Y1411D01*
X7492Y1411D01*
X7494Y1411D01*
X7495Y1412D01*
X7496Y1412D01*
X7498Y1414D01*
X7500Y1415D01*
X7501Y1416D01*
X7502Y1417D01*
X7502Y1419D01*
X7504Y1421D01*
X7504Y1422D01*
X7504Y1423D01*
X7504Y1424D01*
X7504Y1425D01*
X7504Y1550D01*
X7579Y1625D01*
X7845Y1891D01*
X7846Y1892D01*
X7847Y1893D01*
X7848Y1895D01*
X7849Y1897D01*
X7849Y1898D01*
X7849Y1899D01*
X7849Y1901D01*
X7849Y1903D01*
X7849Y1904D01*
X7849Y1906D01*
X7848Y1907D01*
X7847Y1909D01*
X7846Y1910D01*
X7845Y1911D01*
X7843Y1912D01*
X7842Y1914D01*
X7841Y1914D01*
X7840Y1915D01*
X7835Y1915D01*
X7717Y1915D01*
X7713Y1914D01*
X7711Y1914D01*
X7707Y1911D01*
X7300Y1504D01*
X3306Y1504D01*
X3302Y1503D01*
X3299Y1503D01*
X3296Y1500D01*
X3011Y1215D01*
X3010Y1213D01*
X3008Y1212D01*
X3008Y1210D01*
X3007Y1209D01*
X3007Y1207D01*
X3007Y1205D01*
X3007Y1204D01*
X3007Y1203D01*
X3008Y1201D01*
X3008Y1199D01*
X3009Y1197D01*
X3010Y1196D01*
X3011Y1195D01*
X3036Y1170D01*
X3036Y830D01*
X2795Y589D01*
X2455Y589D01*
G37*
%LPD*%
%LPC*%
G36*
X2913Y3165D02*
X2913Y3165D01*
X2828Y3250D01*
X2823Y3254D01*
X2818Y3254D01*
X1950Y3254D01*
X1875Y3329D01*
X1215Y3989D01*
X1213Y3990D01*
X1212Y3992D01*
X1210Y3992D01*
X1209Y3993D01*
X1207Y3993D01*
X1205Y3993D01*
X1204Y3993D01*
X1203Y3993D01*
X1201Y3992D01*
X1199Y3992D01*
X1197Y3991D01*
X1196Y3990D01*
X1195Y3989D01*
X1170Y3964D01*
X830Y3964D01*
X589Y4205D01*
X589Y4545D01*
X830Y4786D01*
X1170Y4786D01*
X1411Y4545D01*
X1411Y4205D01*
X1386Y4180D01*
X1385Y4178D01*
X1383Y4176D01*
X1383Y4175D01*
X1382Y4174D01*
X1382Y4172D01*
X1382Y4170D01*
X1382Y4169D01*
X1382Y4168D01*
X1383Y4166D01*
X1383Y4163D01*
X1384Y4162D01*
X1385Y4161D01*
X1386Y4160D01*
X2046Y3500D01*
X2052Y3496D01*
X2056Y3496D01*
X2818Y3496D01*
X2820Y3496D01*
X2825Y3497D01*
X2828Y3500D01*
X2913Y3585D01*
X3033Y3585D01*
X3035Y3585D01*
X3039Y3586D01*
X3043Y3589D01*
X4200Y4746D01*
X5443Y4746D01*
X5445Y4746D01*
X5450Y4747D01*
X5453Y4750D01*
X5500Y4797D01*
X5504Y4802D01*
X5504Y4807D01*
X5504Y7550D01*
X6536Y8582D01*
X6540Y8588D01*
X6540Y8592D01*
X6540Y8710D01*
X6540Y8711D01*
X6540Y8712D01*
X6539Y8714D01*
X6539Y8717D01*
X6538Y8718D01*
X6538Y8719D01*
X6536Y8720D01*
X6534Y8722D01*
X6533Y8722D01*
X6533Y8723D01*
X6530Y8723D01*
X6528Y8724D01*
X6527Y8724D01*
X6526Y8724D01*
X6524Y8724D01*
X6522Y8724D01*
X6521Y8723D01*
X6520Y8723D01*
X6516Y8720D01*
X4625Y6829D01*
X4621Y6823D01*
X4621Y6819D01*
X4621Y5307D01*
X4622Y5303D01*
X4622Y5300D01*
X4625Y5297D01*
X4710Y5212D01*
X4710Y5038D01*
X4587Y4915D01*
X4413Y4915D01*
X4290Y5038D01*
X4290Y5212D01*
X4375Y5297D01*
X4379Y5302D01*
X4379Y5307D01*
X4379Y6925D01*
X6345Y8891D01*
X6346Y8892D01*
X6347Y8893D01*
X6348Y8895D01*
X6349Y8897D01*
X6349Y8898D01*
X6349Y8899D01*
X6349Y8901D01*
X6349Y8903D01*
X6349Y8904D01*
X6349Y8906D01*
X6348Y8907D01*
X6347Y8909D01*
X6346Y8910D01*
X6345Y8911D01*
X6343Y8912D01*
X6342Y8914D01*
X6341Y8914D01*
X6340Y8915D01*
X6335Y8915D01*
X6163Y8915D01*
X6040Y9038D01*
X6040Y9158D01*
X6040Y9160D01*
X6039Y9164D01*
X6036Y9168D01*
X5619Y9585D01*
X5613Y9589D01*
X5609Y9589D01*
X5455Y9589D01*
X5214Y9830D01*
X5214Y10170D01*
X5455Y10411D01*
X5795Y10411D01*
X6036Y10170D01*
X6036Y9830D01*
X5886Y9680D01*
X5885Y9678D01*
X5883Y9676D01*
X5883Y9675D01*
X5882Y9674D01*
X5882Y9672D01*
X5882Y9670D01*
X5882Y9669D01*
X5882Y9668D01*
X5883Y9666D01*
X5883Y9663D01*
X5884Y9662D01*
X5885Y9661D01*
X5886Y9660D01*
X6207Y9339D01*
X6213Y9335D01*
X6217Y9335D01*
X6337Y9335D01*
X6460Y9212D01*
X6460Y9040D01*
X6460Y9039D01*
X6460Y9038D01*
X6461Y9036D01*
X6461Y9033D01*
X6462Y9032D01*
X6462Y9031D01*
X6464Y9030D01*
X6466Y9028D01*
X6467Y9028D01*
X6467Y9027D01*
X6470Y9027D01*
X6472Y9026D01*
X6473Y9026D01*
X6474Y9026D01*
X6476Y9026D01*
X6478Y9026D01*
X6479Y9027D01*
X6480Y9027D01*
X6484Y9030D01*
X7239Y9785D01*
X7240Y9787D01*
X7242Y9788D01*
X7242Y9790D01*
X7243Y9791D01*
X7243Y9793D01*
X7243Y9795D01*
X7243Y9796D01*
X7243Y9797D01*
X7242Y9799D01*
X7242Y9801D01*
X7241Y9803D01*
X7240Y9804D01*
X7239Y9805D01*
X7214Y9830D01*
X7214Y10170D01*
X7455Y10411D01*
X7795Y10411D01*
X8036Y10170D01*
X8036Y9830D01*
X7795Y9589D01*
X7455Y9589D01*
X7430Y9614D01*
X7428Y9615D01*
X7426Y9617D01*
X7425Y9617D01*
X7424Y9618D01*
X7422Y9618D01*
X7420Y9618D01*
X7419Y9618D01*
X7418Y9618D01*
X7416Y9617D01*
X7413Y9617D01*
X7412Y9616D01*
X7411Y9615D01*
X7410Y9614D01*
X6655Y8859D01*
X6654Y8858D01*
X6653Y8857D01*
X6652Y8855D01*
X6651Y8853D01*
X6651Y8852D01*
X6651Y8851D01*
X6651Y8849D01*
X6651Y8847D01*
X6651Y8846D01*
X6651Y8844D01*
X6652Y8843D01*
X6653Y8841D01*
X6654Y8840D01*
X6655Y8839D01*
X6657Y8838D01*
X6658Y8836D01*
X6659Y8836D01*
X6660Y8835D01*
X6665Y8835D01*
X6837Y8835D01*
X6960Y8712D01*
X6960Y8538D01*
X6837Y8415D01*
X6717Y8415D01*
X6713Y8414D01*
X6711Y8414D01*
X6707Y8411D01*
X5750Y7454D01*
X5746Y7448D01*
X5746Y7444D01*
X5746Y4807D01*
X5746Y4805D01*
X5747Y4800D01*
X5750Y4797D01*
X5835Y4712D01*
X5835Y4538D01*
X5712Y4415D01*
X5538Y4415D01*
X5453Y4500D01*
X5448Y4504D01*
X5443Y4504D01*
X4306Y4504D01*
X4302Y4503D01*
X4299Y4503D01*
X4296Y4500D01*
X3214Y3418D01*
X3212Y3416D01*
X3210Y3412D01*
X3210Y3410D01*
X3210Y3409D01*
X3210Y3408D01*
X3210Y3288D01*
X3087Y3165D01*
X2913Y3165D01*
G37*
%LPD*%
%LPC*%
G36*
X1788Y8665D02*
X1788Y8665D01*
X1665Y8788D01*
X1665Y8962D01*
X1788Y9085D01*
X1908Y9085D01*
X1910Y9085D01*
X1914Y9086D01*
X1918Y9089D01*
X2405Y9576D01*
X2427Y9597D01*
X2428Y9599D01*
X2429Y9601D01*
X2429Y9602D01*
X2430Y9603D01*
X2430Y9605D01*
X2431Y9607D01*
X2431Y9609D01*
X2431Y9610D01*
X2430Y9612D01*
X2429Y9614D01*
X2428Y9615D01*
X2428Y9616D01*
X2427Y9616D01*
X2427Y9618D01*
X2214Y9830D01*
X2214Y10170D01*
X2455Y10411D01*
X2795Y10411D01*
X3036Y10170D01*
X3036Y9951D01*
X3036Y9950D01*
X3036Y9949D01*
X3037Y9947D01*
X3037Y9945D01*
X3038Y9944D01*
X3038Y9943D01*
X3040Y9941D01*
X3042Y9940D01*
X3043Y9939D01*
X3044Y9939D01*
X3046Y9938D01*
X3048Y9937D01*
X3049Y9937D01*
X3050Y9937D01*
X3052Y9938D01*
X3054Y9938D01*
X3055Y9938D01*
X3056Y9939D01*
X3060Y9941D01*
X3210Y10091D01*
X3214Y10097D01*
X3214Y10101D01*
X3214Y10170D01*
X3455Y10411D01*
X3795Y10411D01*
X4036Y10170D01*
X4036Y9830D01*
X3795Y9589D01*
X3455Y9589D01*
X3262Y9782D01*
X3260Y9783D01*
X3259Y9784D01*
X3258Y9785D01*
X3257Y9785D01*
X3254Y9785D01*
X3252Y9786D01*
X3251Y9786D01*
X3250Y9786D01*
X3248Y9785D01*
X3246Y9784D01*
X3245Y9783D01*
X3244Y9783D01*
X3243Y9783D01*
X3242Y9782D01*
X2870Y9409D01*
X2586Y9409D01*
X2582Y9408D01*
X2579Y9408D01*
X2576Y9405D01*
X2089Y8918D01*
X2088Y8917D01*
X2087Y8916D01*
X2087Y8915D01*
X2085Y8912D01*
X2085Y8910D01*
X2085Y8909D01*
X2085Y8908D01*
X2085Y8788D01*
X1962Y8665D01*
X1788Y8665D01*
G37*
%LPD*%
%LPC*%
G36*
X817Y2059D02*
X817Y2059D01*
X559Y2317D01*
X559Y2683D01*
X817Y2941D01*
X1183Y2941D01*
X1441Y2683D01*
X1441Y2317D01*
X1183Y2059D01*
X817Y2059D01*
G37*
%LPD*%
%LPC*%
G36*
X830Y6964D02*
X830Y6964D01*
X589Y7205D01*
X589Y7545D01*
X830Y7786D01*
X1170Y7786D01*
X1411Y7545D01*
X1411Y7205D01*
X1170Y6964D01*
X830Y6964D01*
G37*
%LPD*%
%LPC*%
G36*
X3455Y589D02*
X3455Y589D01*
X3214Y830D01*
X3214Y1170D01*
X3455Y1411D01*
X3795Y1411D01*
X4036Y1170D01*
X4036Y830D01*
X3795Y589D01*
X3455Y589D01*
G37*
%LPD*%
%LPC*%
G36*
X4455Y589D02*
X4455Y589D01*
X4214Y830D01*
X4214Y1170D01*
X4455Y1411D01*
X4795Y1411D01*
X5036Y1170D01*
X5036Y830D01*
X4795Y589D01*
X4455Y589D01*
G37*
%LPD*%
%LPC*%
G36*
X5455Y589D02*
X5455Y589D01*
X5214Y830D01*
X5214Y1170D01*
X5455Y1411D01*
X5795Y1411D01*
X6036Y1170D01*
X6036Y830D01*
X5795Y589D01*
X5455Y589D01*
G37*
%LPD*%
%LPC*%
G36*
X6455Y589D02*
X6455Y589D01*
X6214Y830D01*
X6214Y1170D01*
X6455Y1411D01*
X6795Y1411D01*
X7036Y1170D01*
X7036Y830D01*
X6795Y589D01*
X6455Y589D01*
G37*
%LPD*%
%LPC*%
G36*
X830Y4964D02*
X830Y4964D01*
X589Y5205D01*
X589Y5545D01*
X830Y5786D01*
X1170Y5786D01*
X1411Y5545D01*
X1411Y5205D01*
X1170Y4964D01*
X830Y4964D01*
G37*
%LPD*%
%LPC*%
G36*
X10830Y4964D02*
X10830Y4964D01*
X10589Y5205D01*
X10589Y5545D01*
X10830Y5786D01*
X11170Y5786D01*
X11411Y5545D01*
X11411Y5205D01*
X11170Y4964D01*
X10830Y4964D01*
G37*
%LPD*%
%LPC*%
G36*
X10830Y5964D02*
X10830Y5964D01*
X10589Y6205D01*
X10589Y6545D01*
X10830Y6786D01*
X11170Y6786D01*
X11411Y6545D01*
X11411Y6205D01*
X11170Y5964D01*
X10830Y5964D01*
G37*
%LPD*%
%LPC*%
G36*
X10830Y6964D02*
X10830Y6964D01*
X10589Y7205D01*
X10589Y7545D01*
X10830Y7786D01*
X11170Y7786D01*
X11411Y7545D01*
X11411Y7205D01*
X11170Y6964D01*
X10830Y6964D01*
G37*
%LPD*%
%LPC*%
G36*
X10830Y7964D02*
X10830Y7964D01*
X10589Y8205D01*
X10589Y8545D01*
X10830Y8786D01*
X11170Y8786D01*
X11411Y8545D01*
X11411Y8205D01*
X11170Y7964D01*
X10830Y7964D01*
G37*
%LPD*%
%LPC*%
G36*
X830Y7964D02*
X830Y7964D01*
X589Y8205D01*
X589Y8545D01*
X830Y8786D01*
X1170Y8786D01*
X1411Y8545D01*
X1411Y8205D01*
X1170Y7964D01*
X830Y7964D01*
G37*
%LPD*%
%LPC*%
G36*
X830Y8964D02*
X830Y8964D01*
X589Y9205D01*
X589Y9545D01*
X830Y9786D01*
X1170Y9786D01*
X1411Y9545D01*
X1411Y9205D01*
X1170Y8964D01*
X830Y8964D01*
G37*
%LPD*%
%LPC*%
G36*
X6455Y9589D02*
X6455Y9589D01*
X6214Y9830D01*
X6214Y10170D01*
X6455Y10411D01*
X6795Y10411D01*
X7036Y10170D01*
X7036Y9830D01*
X6795Y9589D01*
X6455Y9589D01*
G37*
%LPD*%
%LPC*%
G36*
X4455Y9589D02*
X4455Y9589D01*
X4214Y9830D01*
X4214Y10170D01*
X4455Y10411D01*
X4795Y10411D01*
X5036Y10170D01*
X5036Y9830D01*
X4795Y9589D01*
X4455Y9589D01*
G37*
%LPD*%
D10*
X1000Y6375D03*
X1000Y5375D03*
X1000Y4375D03*
X1000Y7375D03*
X1000Y8375D03*
X1000Y9375D03*
D11*
X11000Y6375D03*
X11000Y7375D03*
X11000Y8375D03*
X11000Y5375D03*
X11000Y4375D03*
X11000Y3375D03*
D12*
X6625Y1000D03*
X7625Y1000D03*
X8625Y1000D03*
X9625Y1000D03*
X5625Y1000D03*
X4625Y1000D03*
X3625Y1000D03*
X2625Y1000D03*
D13*
X5625Y10000D03*
X4625Y10000D03*
X3625Y10000D03*
X2625Y10000D03*
X6625Y10000D03*
X7625Y10000D03*
X8625Y10000D03*
X9625Y10000D03*
D14*
X1000Y2500D03*
X1000Y1500D03*
D15*
X2000Y3375D02*
X1000Y4375D01*
X2000Y3375D02*
X3000Y3375D01*
D16*
X3000Y3375D03*
D15*
X4250Y4625D01*
X5625Y4625D01*
D16*
X5625Y4625D03*
D15*
X5625Y7500D01*
X6750Y8625D01*
D16*
X6750Y8625D03*
X6250Y9125D03*
D15*
X5625Y9750D01*
X5625Y10000D01*
D16*
X2125Y6875D03*
X2625Y6875D03*
X3375Y6625D03*
X4125Y6875D03*
X4000Y8250D03*
X7250Y9125D03*
X8375Y6750D03*
X7625Y5875D03*
X7875Y4875D03*
X9125Y4875D03*
X10000Y4875D03*
X9125Y2500D03*
X3750Y3375D03*
X3250Y2875D03*
X1875Y8875D03*
D15*
X2530Y9530D01*
X2820Y9530D01*
X3290Y10000D02*
X3625Y10000D01*
X3290Y10000D02*
X2820Y9530D01*
D16*
X4500Y5125D03*
D15*
X4500Y6875D01*
X7625Y10000D01*
D16*
X7750Y2125D03*
D15*
X7250Y1625D01*
X3250Y1625D01*
X2625Y1000D01*
D16*
X7625Y2750D03*
D15*
X6750Y1875D01*
X5750Y1875D01*
X5750Y1894D01*
D16*
X5750Y1894D03*
X7375Y6625D03*
D15*
X8250Y5750D01*
X8250Y2125D01*
X7625Y1500D01*
X7625Y1000D01*
D16*
X6625Y6625D03*
D15*
X7264Y6894D02*
X7486Y6894D01*
X8625Y5755D01*
X6995Y6625D02*
X6625Y6625D01*
X6995Y6625D02*
X7264Y6894D01*
X8625Y5755D02*
X8625Y1000D01*
D16*
X6125Y6625D03*
D15*
X6694Y7074D02*
X7561Y7074D01*
X9625Y5010D01*
X6245Y6625D02*
X6125Y6625D01*
X6245Y6625D02*
X6694Y7074D01*
X9625Y5010D02*
X9625Y1000D01*
M02*
