G04 EAGLE Gerber X2 export*
%TF.Part,Single*%
%TF.FileFunction,Legend,Bot,1*%
%TF.FilePolarity,Positive*%
%TF.GenerationSoftware,Autodesk,EAGLE,8.7.0*%
%TF.CreationDate,2018-03-20T01:21:41Z*%
G75*
%MOIN*%
%FSLAX34Y34*%
%LPD*%
%AMOC8*
5,1,8,0,0,1.08239X$1,22.5*%
G01*
%ADD10C,0.006000*%


D10*
X7970Y7530D02*
X7970Y7970D01*
X7848Y7970D01*
X7827Y7968D01*
X7806Y7963D01*
X7787Y7954D01*
X7770Y7941D01*
X7755Y7926D01*
X7742Y7909D01*
X7733Y7890D01*
X7728Y7869D01*
X7726Y7848D01*
X7728Y7827D01*
X7733Y7806D01*
X7742Y7787D01*
X7755Y7770D01*
X7770Y7755D01*
X7787Y7742D01*
X7806Y7733D01*
X7827Y7728D01*
X7848Y7726D01*
X7970Y7726D01*
X7511Y7530D02*
X7511Y7970D01*
X7560Y7530D02*
X7462Y7530D01*
X7462Y7970D02*
X7560Y7970D01*
X7177Y7530D02*
X7079Y7530D01*
X7177Y7530D02*
X7194Y7531D01*
X7211Y7536D01*
X7226Y7543D01*
X7240Y7553D01*
X7252Y7565D01*
X7262Y7579D01*
X7269Y7594D01*
X7274Y7611D01*
X7275Y7628D01*
X7275Y7872D01*
X7273Y7891D01*
X7268Y7910D01*
X7258Y7926D01*
X7246Y7941D01*
X7231Y7953D01*
X7215Y7963D01*
X7196Y7968D01*
X7177Y7970D01*
X7079Y7970D01*
X6898Y7872D02*
X6776Y7970D01*
X6776Y7530D01*
X6898Y7530D02*
X6654Y7530D01*
X6448Y7774D02*
X6302Y7774D01*
X6302Y7775D02*
X6285Y7774D01*
X6268Y7769D01*
X6253Y7762D01*
X6239Y7752D01*
X6227Y7740D01*
X6217Y7726D01*
X6210Y7711D01*
X6205Y7694D01*
X6204Y7677D01*
X6204Y7652D01*
X6206Y7631D01*
X6211Y7610D01*
X6220Y7591D01*
X6233Y7574D01*
X6248Y7559D01*
X6265Y7546D01*
X6284Y7537D01*
X6305Y7532D01*
X6326Y7530D01*
X6347Y7532D01*
X6368Y7537D01*
X6387Y7546D01*
X6404Y7559D01*
X6419Y7574D01*
X6432Y7591D01*
X6441Y7610D01*
X6446Y7631D01*
X6448Y7652D01*
X6448Y7774D01*
X6449Y7774D02*
X6447Y7800D01*
X6442Y7825D01*
X6434Y7849D01*
X6423Y7872D01*
X6408Y7893D01*
X6392Y7913D01*
X6372Y7929D01*
X6351Y7944D01*
X6328Y7955D01*
X6304Y7963D01*
X6279Y7968D01*
X6253Y7970D01*
X5982Y7970D02*
X5982Y7530D01*
X5982Y7970D02*
X5787Y7970D01*
X5787Y7774D02*
X5982Y7774D01*
X5608Y7872D02*
X5486Y7970D01*
X5486Y7530D01*
X5608Y7530D02*
X5364Y7530D01*
X5158Y7530D02*
X5012Y7530D01*
X4993Y7532D01*
X4974Y7537D01*
X4958Y7547D01*
X4943Y7559D01*
X4931Y7574D01*
X4921Y7590D01*
X4916Y7609D01*
X4914Y7628D01*
X4914Y7677D01*
X4915Y7694D01*
X4920Y7711D01*
X4927Y7726D01*
X4937Y7740D01*
X4949Y7752D01*
X4963Y7762D01*
X4978Y7769D01*
X4995Y7774D01*
X5012Y7775D01*
X5012Y7774D02*
X5158Y7774D01*
X5158Y7970D01*
X4914Y7970D01*
X4672Y7909D02*
X4685Y7879D01*
X4696Y7848D01*
X4703Y7816D01*
X4708Y7783D01*
X4709Y7750D01*
X4671Y7909D02*
X4663Y7926D01*
X4652Y7941D01*
X4638Y7953D01*
X4622Y7962D01*
X4604Y7968D01*
X4586Y7970D01*
X4568Y7968D01*
X4550Y7962D01*
X4534Y7953D01*
X4520Y7941D01*
X4509Y7926D01*
X4501Y7909D01*
X4500Y7909D02*
X4487Y7879D01*
X4476Y7848D01*
X4469Y7816D01*
X4464Y7783D01*
X4463Y7750D01*
X4709Y7750D02*
X4708Y7717D01*
X4703Y7685D01*
X4696Y7652D01*
X4685Y7621D01*
X4672Y7591D01*
X4671Y7591D02*
X4663Y7574D01*
X4652Y7559D01*
X4638Y7547D01*
X4622Y7538D01*
X4604Y7532D01*
X4586Y7530D01*
X4500Y7591D02*
X4487Y7621D01*
X4476Y7652D01*
X4469Y7684D01*
X4464Y7717D01*
X4463Y7750D01*
X4501Y7591D02*
X4509Y7574D01*
X4520Y7559D01*
X4534Y7547D01*
X4550Y7538D01*
X4568Y7532D01*
X4586Y7530D01*
X4684Y7628D02*
X4488Y7872D01*
X4258Y7652D02*
X4256Y7673D01*
X4251Y7694D01*
X4242Y7713D01*
X4229Y7730D01*
X4214Y7745D01*
X4197Y7758D01*
X4178Y7767D01*
X4157Y7772D01*
X4136Y7774D01*
X4115Y7772D01*
X4094Y7767D01*
X4075Y7758D01*
X4058Y7745D01*
X4043Y7730D01*
X4030Y7713D01*
X4021Y7694D01*
X4016Y7673D01*
X4014Y7652D01*
X4016Y7631D01*
X4021Y7610D01*
X4030Y7591D01*
X4043Y7574D01*
X4058Y7559D01*
X4075Y7546D01*
X4094Y7537D01*
X4115Y7532D01*
X4136Y7530D01*
X4157Y7532D01*
X4178Y7537D01*
X4197Y7546D01*
X4214Y7559D01*
X4229Y7574D01*
X4242Y7591D01*
X4251Y7610D01*
X4256Y7631D01*
X4258Y7652D01*
X4234Y7872D02*
X4232Y7890D01*
X4227Y7907D01*
X4219Y7924D01*
X4208Y7938D01*
X4195Y7950D01*
X4180Y7960D01*
X4163Y7966D01*
X4145Y7970D01*
X4127Y7970D01*
X4109Y7966D01*
X4092Y7960D01*
X4077Y7950D01*
X4064Y7938D01*
X4053Y7924D01*
X4045Y7907D01*
X4040Y7890D01*
X4038Y7872D01*
X4040Y7854D01*
X4045Y7837D01*
X4053Y7820D01*
X4064Y7806D01*
X4077Y7794D01*
X4092Y7784D01*
X4109Y7778D01*
X4127Y7774D01*
X4145Y7774D01*
X4163Y7778D01*
X4180Y7784D01*
X4195Y7794D01*
X4208Y7806D01*
X4219Y7820D01*
X4227Y7837D01*
X4232Y7854D01*
X4234Y7872D01*
X7098Y5780D02*
X7220Y5780D01*
X7098Y5780D02*
X7077Y5782D01*
X7056Y5787D01*
X7037Y5796D01*
X7020Y5809D01*
X7005Y5824D01*
X6992Y5841D01*
X6983Y5860D01*
X6978Y5881D01*
X6976Y5902D01*
X6978Y5923D01*
X6983Y5944D01*
X6992Y5963D01*
X7005Y5980D01*
X7020Y5995D01*
X7037Y6008D01*
X7056Y6017D01*
X7077Y6022D01*
X7098Y6024D01*
X7073Y6220D02*
X7220Y6220D01*
X7073Y6220D02*
X7055Y6218D01*
X7038Y6213D01*
X7021Y6205D01*
X7007Y6194D01*
X6995Y6181D01*
X6985Y6166D01*
X6979Y6149D01*
X6975Y6131D01*
X6975Y6113D01*
X6979Y6095D01*
X6985Y6078D01*
X6995Y6063D01*
X7007Y6050D01*
X7021Y6039D01*
X7038Y6031D01*
X7055Y6026D01*
X7073Y6024D01*
X7171Y6024D01*
X6791Y5731D02*
X6595Y6269D01*
X6410Y6122D02*
X6288Y6220D01*
X6288Y5780D01*
X6410Y5780D02*
X6166Y5780D01*
X5862Y5976D02*
X5716Y5976D01*
X5862Y5975D02*
X5879Y5976D01*
X5896Y5981D01*
X5911Y5988D01*
X5925Y5998D01*
X5937Y6010D01*
X5947Y6024D01*
X5954Y6039D01*
X5959Y6056D01*
X5960Y6073D01*
X5960Y6098D01*
X5958Y6119D01*
X5953Y6140D01*
X5944Y6159D01*
X5931Y6176D01*
X5916Y6191D01*
X5899Y6204D01*
X5880Y6213D01*
X5859Y6218D01*
X5838Y6220D01*
X5817Y6218D01*
X5796Y6213D01*
X5777Y6204D01*
X5760Y6191D01*
X5745Y6176D01*
X5732Y6159D01*
X5723Y6140D01*
X5718Y6119D01*
X5716Y6098D01*
X5716Y5976D01*
X5715Y5976D02*
X5717Y5950D01*
X5722Y5925D01*
X5730Y5901D01*
X5741Y5878D01*
X5756Y5857D01*
X5772Y5837D01*
X5792Y5821D01*
X5813Y5806D01*
X5836Y5795D01*
X5860Y5787D01*
X5885Y5782D01*
X5911Y5780D01*
X5531Y5731D02*
X5335Y6269D01*
X5016Y6220D02*
X4997Y6218D01*
X4978Y6213D01*
X4961Y6205D01*
X4945Y6194D01*
X4932Y6181D01*
X4921Y6165D01*
X4913Y6148D01*
X4908Y6129D01*
X4906Y6110D01*
X5016Y6220D02*
X5038Y6218D01*
X5060Y6213D01*
X5080Y6205D01*
X5099Y6193D01*
X5116Y6179D01*
X5130Y6162D01*
X5142Y6143D01*
X5150Y6122D01*
X4943Y6025D02*
X4930Y6039D01*
X4920Y6055D01*
X4912Y6072D01*
X4908Y6091D01*
X4906Y6110D01*
X4942Y6024D02*
X5150Y5780D01*
X4906Y5780D01*
X4700Y6000D02*
X4699Y6033D01*
X4694Y6066D01*
X4687Y6098D01*
X4676Y6129D01*
X4663Y6159D01*
X4655Y6176D01*
X4644Y6191D01*
X4630Y6203D01*
X4614Y6212D01*
X4596Y6218D01*
X4578Y6220D01*
X4560Y6218D01*
X4542Y6212D01*
X4526Y6203D01*
X4512Y6191D01*
X4501Y6176D01*
X4493Y6159D01*
X4492Y6159D02*
X4479Y6129D01*
X4468Y6098D01*
X4461Y6066D01*
X4456Y6033D01*
X4455Y6000D01*
X4700Y6000D02*
X4699Y5967D01*
X4694Y5935D01*
X4687Y5902D01*
X4676Y5871D01*
X4663Y5841D01*
X4655Y5824D01*
X4644Y5809D01*
X4630Y5797D01*
X4614Y5788D01*
X4596Y5782D01*
X4578Y5780D01*
X4492Y5841D02*
X4479Y5871D01*
X4468Y5902D01*
X4461Y5934D01*
X4456Y5967D01*
X4455Y6000D01*
X4493Y5841D02*
X4501Y5824D01*
X4512Y5809D01*
X4526Y5797D01*
X4542Y5788D01*
X4560Y5782D01*
X4578Y5780D01*
X4676Y5878D02*
X4480Y6122D01*
X4250Y6122D02*
X4128Y6220D01*
X4128Y5780D01*
X4250Y5780D02*
X4006Y5780D01*
X3800Y5902D02*
X3798Y5923D01*
X3793Y5944D01*
X3784Y5963D01*
X3771Y5980D01*
X3756Y5995D01*
X3739Y6008D01*
X3720Y6017D01*
X3699Y6022D01*
X3678Y6024D01*
X3657Y6022D01*
X3636Y6017D01*
X3617Y6008D01*
X3600Y5995D01*
X3585Y5980D01*
X3572Y5963D01*
X3563Y5944D01*
X3558Y5923D01*
X3556Y5902D01*
X3558Y5881D01*
X3563Y5860D01*
X3572Y5841D01*
X3585Y5824D01*
X3600Y5809D01*
X3617Y5796D01*
X3636Y5787D01*
X3657Y5782D01*
X3678Y5780D01*
X3699Y5782D01*
X3720Y5787D01*
X3739Y5796D01*
X3756Y5809D01*
X3771Y5824D01*
X3784Y5841D01*
X3793Y5860D01*
X3798Y5881D01*
X3800Y5902D01*
X3776Y6122D02*
X3774Y6140D01*
X3769Y6157D01*
X3761Y6174D01*
X3750Y6188D01*
X3737Y6200D01*
X3722Y6210D01*
X3705Y6216D01*
X3687Y6220D01*
X3669Y6220D01*
X3651Y6216D01*
X3634Y6210D01*
X3619Y6200D01*
X3606Y6188D01*
X3595Y6174D01*
X3587Y6157D01*
X3582Y6140D01*
X3580Y6122D01*
X3582Y6104D01*
X3587Y6087D01*
X3595Y6070D01*
X3606Y6056D01*
X3619Y6044D01*
X3634Y6034D01*
X3651Y6028D01*
X3669Y6024D01*
X3687Y6024D01*
X3705Y6028D01*
X3722Y6034D01*
X3737Y6044D01*
X3750Y6056D01*
X3761Y6070D01*
X3769Y6087D01*
X3774Y6104D01*
X3776Y6122D01*
X6098Y4220D02*
X6098Y3780D01*
X6220Y4220D02*
X5976Y4220D01*
X5704Y3780D02*
X5606Y3780D01*
X5704Y3780D02*
X5721Y3781D01*
X5738Y3786D01*
X5753Y3793D01*
X5767Y3803D01*
X5779Y3815D01*
X5789Y3829D01*
X5796Y3844D01*
X5801Y3861D01*
X5802Y3878D01*
X5802Y4122D01*
X5800Y4141D01*
X5795Y4160D01*
X5785Y4176D01*
X5773Y4191D01*
X5758Y4203D01*
X5742Y4213D01*
X5723Y4218D01*
X5704Y4220D01*
X5606Y4220D01*
X5449Y4220D02*
X5303Y4012D01*
X5156Y4220D01*
X5303Y4012D02*
X5303Y3780D01*
M02*
