M48
;GenerationSoftware,Autodesk,EAGLE,8.7.0*%
;CreationDate,2018-03-20T01:21:41Z*%
FMAT,2
ICI,OFF
INCH,TZ,00.0000
T3C0.0138
T2C0.0394
%
G90
M72
T2
X5625Y1000
X1000Y7375
X1000Y8375
X1000Y9375
X11000Y6375
X11000Y7375
X11000Y8375
X11000Y5375
X11000Y4375
X11000Y3375
X6625Y1000
X7625Y1000
X8625Y1000
X9625Y1000
X1000Y4375
X4625Y1000
X3625Y1000
X2625Y1000
X5625Y10000
X4625Y10000
X3625Y10000
X2625Y10000
X6625Y10000
X7625Y10000
X8625Y10000
X9625Y10000
X1000Y2500
X1000Y1500
X1000Y5375
X1000Y6375
T3
X5625Y4625
X3000Y3375
X6750Y8625
X6250Y9125
X2125Y6875
X2625Y6875
X3375Y6625
X4125Y6875
X4000Y8250
X7250Y9125
X8375Y6750
X7625Y5875
X7875Y4875
X9125Y4875
X10000Y4875
X9125Y2500
X3750Y3375
X3250Y2875
X1875Y8875
X4500Y5125
X7750Y2125
X7625Y2750
X5750Y1894
X7375Y6625
X6625Y6625
X6125Y6625
M30