G04 EAGLE Gerber X2 export*
%TF.Part,Single*%
%TF.FileFunction,Soldermask,Bot,1*%
%TF.FilePolarity,Negative*%
%TF.GenerationSoftware,Autodesk,EAGLE,8.7.0*%
%TF.CreationDate,2018-03-20T01:21:41Z*%
G75*
%MOIN*%
%FSLAX34Y34*%
%LPD*%
%AMOC8*
5,1,8,0,0,1.08239X$1,22.5*%
G01*
%ADD10P,0.084426X8X112.500000*%
%ADD11P,0.084426X8X292.500000*%
%ADD12P,0.084426X8X202.500000*%
%ADD13P,0.084426X8X22.500000*%
%ADD14P,0.090921X8X112.500000*%
%ADD15C,0.037780*%


D10*
X1000Y6375D03*
X1000Y5375D03*
X1000Y4375D03*
X1000Y7375D03*
X1000Y8375D03*
X1000Y9375D03*
D11*
X11000Y6375D03*
X11000Y7375D03*
X11000Y8375D03*
X11000Y5375D03*
X11000Y4375D03*
X11000Y3375D03*
D12*
X6625Y1000D03*
X7625Y1000D03*
X8625Y1000D03*
X9625Y1000D03*
X5625Y1000D03*
X4625Y1000D03*
X3625Y1000D03*
X2625Y1000D03*
D13*
X5625Y10000D03*
X4625Y10000D03*
X3625Y10000D03*
X2625Y10000D03*
X6625Y10000D03*
X7625Y10000D03*
X8625Y10000D03*
X9625Y10000D03*
D14*
X1000Y2500D03*
X1000Y1500D03*
D15*
X3000Y3375D03*
X5625Y4625D03*
X6750Y8625D03*
X6250Y9125D03*
X2125Y6875D03*
X2625Y6875D03*
X3375Y6625D03*
X4125Y6875D03*
X4000Y8250D03*
X7250Y9125D03*
X8375Y6750D03*
X7625Y5875D03*
X7875Y4875D03*
X9125Y4875D03*
X10000Y4875D03*
X9125Y2500D03*
X3750Y3375D03*
X3250Y2875D03*
X1875Y8875D03*
X4500Y5125D03*
X7750Y2125D03*
X7625Y2750D03*
X5750Y1894D03*
X7375Y6625D03*
X6625Y6625D03*
X6125Y6625D03*
M02*
