G04 EAGLE Gerber X2 export*
%TF.Part,Single*%
%TF.FileFunction,Copper,L1,Top,Mixed*%
%TF.FilePolarity,Positive*%
%TF.GenerationSoftware,Autodesk,EAGLE,8.7.0*%
%TF.CreationDate,2018-03-20T01:21:41Z*%
G75*
%MOIN*%
%FSLAX34Y34*%
%LPD*%
%AMOC8*
5,1,8,0,0,1.08239X$1,22.5*%
G01*
%ADD10R,0.062992X0.035433*%
%ADD11R,0.051181X0.035433*%
%ADD12R,0.023622X0.076772*%
%ADD13P,0.075767X8X112.500000*%
%ADD14R,0.055118X0.043307*%
%ADD15R,0.051181X0.043307*%
%ADD16R,0.031496X0.031496*%
%ADD17P,0.075767X8X292.500000*%
%ADD18P,0.075767X8X202.500000*%
%ADD19P,0.075767X8X22.500000*%
%ADD20P,0.082262X8X112.500000*%
%ADD21C,0.029780*%
%ADD22C,0.012000*%
%ADD23C,0.020000*%
%ADD24C,0.024000*%
%ADD25C,0.032000*%

G36*
X11579Y401D02*
X11579Y401D01*
X11582Y401D01*
X11582Y402D01*
X11584Y402D01*
X11585Y404D01*
X11587Y405D01*
X11588Y406D01*
X11589Y407D01*
X11590Y409D01*
X11591Y411D01*
X11591Y412D01*
X11591Y413D01*
X11591Y414D01*
X11591Y415D01*
X11591Y10580D01*
X11591Y10582D01*
X11591Y10584D01*
X11590Y10585D01*
X11590Y10587D01*
X11588Y10588D01*
X11587Y10590D01*
X11586Y10591D01*
X11586Y10592D01*
X11583Y10592D01*
X11582Y10594D01*
X11580Y10594D01*
X11579Y10594D01*
X11577Y10594D01*
X415Y10594D01*
X413Y10594D01*
X411Y10594D01*
X410Y10593D01*
X409Y10593D01*
X407Y10591D01*
X405Y10590D01*
X404Y10589D01*
X403Y10588D01*
X403Y10586D01*
X401Y10584D01*
X401Y10583D01*
X401Y10582D01*
X401Y10580D01*
X401Y415D01*
X401Y413D01*
X401Y411D01*
X402Y410D01*
X402Y409D01*
X404Y407D01*
X405Y405D01*
X406Y404D01*
X407Y403D01*
X409Y403D01*
X411Y401D01*
X412Y401D01*
X413Y401D01*
X414Y401D01*
X415Y401D01*
X11577Y401D01*
X11579Y401D01*
G37*
%LPC*%
G36*
X3455Y589D02*
X3455Y589D01*
X3214Y830D01*
X3214Y1170D01*
X3455Y1411D01*
X3795Y1411D01*
X3820Y1386D01*
X3822Y1385D01*
X3824Y1383D01*
X3825Y1383D01*
X3826Y1382D01*
X3828Y1382D01*
X3830Y1382D01*
X3831Y1382D01*
X3832Y1382D01*
X3834Y1383D01*
X3837Y1383D01*
X3838Y1384D01*
X3839Y1385D01*
X3840Y1386D01*
X4325Y1871D01*
X5526Y1871D01*
X5528Y1871D01*
X5531Y1871D01*
X5531Y1872D01*
X5533Y1872D01*
X5534Y1874D01*
X5536Y1875D01*
X5537Y1876D01*
X5538Y1877D01*
X5538Y1879D01*
X5540Y1881D01*
X5540Y1882D01*
X5540Y1883D01*
X5540Y1884D01*
X5540Y1885D01*
X5540Y1981D01*
X5663Y2104D01*
X5837Y2104D01*
X5960Y1981D01*
X5960Y1807D01*
X5837Y1684D01*
X5717Y1684D01*
X5713Y1683D01*
X5711Y1683D01*
X5707Y1680D01*
X5672Y1645D01*
X5671Y1644D01*
X5670Y1643D01*
X5670Y1641D01*
X5668Y1639D01*
X5668Y1638D01*
X5668Y1637D01*
X5668Y1635D01*
X5668Y1633D01*
X5668Y1632D01*
X5668Y1631D01*
X5670Y1629D01*
X5670Y1627D01*
X5671Y1626D01*
X5672Y1625D01*
X5674Y1624D01*
X5676Y1622D01*
X5677Y1622D01*
X5678Y1621D01*
X5682Y1621D01*
X5819Y1621D01*
X5821Y1621D01*
X5826Y1622D01*
X5829Y1625D01*
X6250Y2046D01*
X6254Y2052D01*
X6254Y2056D01*
X6254Y3069D01*
X6253Y3073D01*
X6253Y3076D01*
X6250Y3079D01*
X6243Y3087D01*
X6242Y3087D01*
X6241Y3088D01*
X6239Y3089D01*
X6237Y3090D01*
X6236Y3090D01*
X6235Y3091D01*
X6232Y3091D01*
X6230Y3091D01*
X6229Y3090D01*
X6228Y3090D01*
X6226Y3089D01*
X6224Y3088D01*
X6223Y3087D01*
X6222Y3087D01*
X6221Y3085D01*
X6220Y3083D01*
X6220Y3082D01*
X6219Y3081D01*
X6218Y3077D01*
X6218Y2738D01*
X6183Y2702D01*
X5817Y2702D01*
X5782Y2738D01*
X5782Y2844D01*
X5781Y2847D01*
X5781Y2849D01*
X5780Y2850D01*
X5780Y2851D01*
X5779Y2852D01*
X5778Y2854D01*
X5777Y2855D01*
X5776Y2856D01*
X5774Y2857D01*
X5772Y2858D01*
X5770Y2858D01*
X5769Y2858D01*
X5768Y2859D01*
X5659Y2859D01*
X5656Y2858D01*
X5654Y2858D01*
X5653Y2857D01*
X5652Y2857D01*
X5650Y2856D01*
X5649Y2854D01*
X5648Y2853D01*
X5647Y2853D01*
X5646Y2851D01*
X5645Y2849D01*
X5645Y2847D01*
X5645Y2846D01*
X5644Y2844D01*
X5644Y2738D01*
X5609Y2702D01*
X5047Y2702D01*
X5020Y2729D01*
X5019Y2729D01*
X5018Y2730D01*
X5016Y2731D01*
X5014Y2732D01*
X5013Y2732D01*
X5012Y2733D01*
X5010Y2732D01*
X5008Y2733D01*
X5007Y2732D01*
X5006Y2732D01*
X5004Y2731D01*
X5002Y2730D01*
X5001Y2729D01*
X5000Y2729D01*
X4999Y2727D01*
X4997Y2725D01*
X4997Y2724D01*
X4996Y2723D01*
X4996Y2719D01*
X4996Y2673D01*
X4743Y2421D01*
X4740Y2415D01*
X4739Y2412D01*
X4739Y2411D01*
X4739Y2029D01*
X4703Y1993D01*
X4141Y1993D01*
X4106Y2029D01*
X4106Y2136D01*
X4105Y2138D01*
X4105Y2140D01*
X4104Y2141D01*
X4104Y2142D01*
X4103Y2144D01*
X4101Y2146D01*
X4100Y2146D01*
X4100Y2147D01*
X4098Y2148D01*
X4096Y2149D01*
X4094Y2149D01*
X4094Y2150D01*
X4093Y2150D01*
X4091Y2150D01*
X3977Y2150D01*
X3973Y2149D01*
X3971Y2148D01*
X3967Y2146D01*
X3933Y2111D01*
X3567Y2111D01*
X3532Y2147D01*
X3532Y2512D01*
X3567Y2548D01*
X3933Y2548D01*
X3968Y2512D01*
X3968Y2406D01*
X3969Y2403D01*
X3969Y2401D01*
X3970Y2400D01*
X3970Y2399D01*
X3971Y2398D01*
X3972Y2396D01*
X3973Y2395D01*
X3974Y2394D01*
X3976Y2393D01*
X3978Y2392D01*
X3980Y2392D01*
X3981Y2392D01*
X3982Y2391D01*
X4091Y2391D01*
X4094Y2392D01*
X4096Y2392D01*
X4097Y2393D01*
X4098Y2393D01*
X4100Y2394D01*
X4101Y2396D01*
X4102Y2397D01*
X4103Y2397D01*
X4104Y2399D01*
X4105Y2401D01*
X4105Y2403D01*
X4105Y2404D01*
X4106Y2406D01*
X4106Y2512D01*
X4141Y2548D01*
X4523Y2548D01*
X4524Y2548D01*
X4529Y2550D01*
X4533Y2552D01*
X4750Y2769D01*
X4754Y2775D01*
X4754Y2778D01*
X4754Y2779D01*
X4754Y3319D01*
X4754Y3321D01*
X4753Y3326D01*
X4750Y3329D01*
X4628Y3451D01*
X4623Y3454D01*
X4618Y3455D01*
X4482Y3455D01*
X4446Y3491D01*
X4446Y4309D01*
X4482Y4344D01*
X4490Y4344D01*
X4492Y4345D01*
X4494Y4345D01*
X4495Y4346D01*
X4496Y4346D01*
X4498Y4347D01*
X4500Y4348D01*
X4501Y4349D01*
X4502Y4350D01*
X4502Y4352D01*
X4504Y4354D01*
X4504Y4356D01*
X4504Y4357D01*
X4504Y4358D01*
X4504Y4901D01*
X4504Y4903D01*
X4504Y4906D01*
X4503Y4906D01*
X4503Y4908D01*
X4501Y4909D01*
X4500Y4911D01*
X4499Y4912D01*
X4498Y4913D01*
X4496Y4913D01*
X4494Y4915D01*
X4493Y4915D01*
X4492Y4915D01*
X4491Y4915D01*
X4490Y4915D01*
X4413Y4915D01*
X4290Y5038D01*
X4290Y5212D01*
X4413Y5335D01*
X4587Y5335D01*
X4710Y5212D01*
X4710Y5092D01*
X4711Y5087D01*
X4711Y5086D01*
X4714Y5082D01*
X4746Y5050D01*
X4746Y4358D01*
X4746Y4356D01*
X4746Y4354D01*
X4747Y4353D01*
X4747Y4352D01*
X4749Y4350D01*
X4750Y4348D01*
X4751Y4348D01*
X4752Y4347D01*
X4754Y4346D01*
X4756Y4345D01*
X4757Y4345D01*
X4758Y4344D01*
X4759Y4344D01*
X4760Y4344D01*
X4768Y4344D01*
X4804Y4309D01*
X4804Y3623D01*
X4805Y3617D01*
X4805Y3616D01*
X4808Y3613D01*
X4922Y3499D01*
X4923Y3498D01*
X4924Y3497D01*
X4926Y3497D01*
X4927Y3495D01*
X4929Y3495D01*
X4930Y3495D01*
X4932Y3495D01*
X4934Y3495D01*
X4935Y3495D01*
X4936Y3495D01*
X4938Y3497D01*
X4940Y3497D01*
X4941Y3498D01*
X4942Y3499D01*
X4943Y3501D01*
X4945Y3503D01*
X4945Y3504D01*
X4945Y3505D01*
X4946Y3509D01*
X4946Y4309D01*
X4982Y4344D01*
X4990Y4344D01*
X4992Y4345D01*
X4994Y4345D01*
X4995Y4346D01*
X4996Y4346D01*
X4998Y4347D01*
X5000Y4348D01*
X5001Y4349D01*
X5002Y4350D01*
X5002Y4352D01*
X5004Y4354D01*
X5004Y4356D01*
X5004Y4357D01*
X5004Y4358D01*
X5004Y6479D01*
X5657Y7131D01*
X5657Y7132D01*
X5658Y7132D01*
X5658Y7133D01*
X5659Y7135D01*
X5660Y7137D01*
X5661Y7138D01*
X5661Y7139D01*
X5661Y7142D01*
X5661Y7144D01*
X5661Y7145D01*
X5660Y7146D01*
X5659Y7148D01*
X5658Y7150D01*
X5658Y7151D01*
X5657Y7152D01*
X5655Y7153D01*
X5653Y7154D01*
X5652Y7154D01*
X5651Y7155D01*
X5647Y7156D01*
X5482Y7156D01*
X5446Y7191D01*
X5446Y8009D01*
X5482Y8045D01*
X5490Y8045D01*
X5492Y8046D01*
X5494Y8046D01*
X5495Y8046D01*
X5496Y8047D01*
X5498Y8048D01*
X5500Y8049D01*
X5501Y8050D01*
X5502Y8051D01*
X5502Y8053D01*
X5504Y8055D01*
X5504Y8056D01*
X5504Y8057D01*
X5504Y8058D01*
X5504Y8059D01*
X5504Y8069D01*
X5504Y8071D01*
X5503Y8076D01*
X5500Y8079D01*
X4504Y9075D01*
X4504Y9575D01*
X4504Y9577D01*
X4504Y9579D01*
X4503Y9580D01*
X4503Y9581D01*
X4501Y9583D01*
X4500Y9585D01*
X4499Y9586D01*
X4498Y9587D01*
X4496Y9587D01*
X4494Y9589D01*
X4493Y9589D01*
X4492Y9589D01*
X4491Y9589D01*
X4490Y9589D01*
X4455Y9589D01*
X4214Y9830D01*
X4214Y10170D01*
X4455Y10411D01*
X4795Y10411D01*
X5036Y10170D01*
X5036Y9830D01*
X4795Y9589D01*
X4760Y9589D01*
X4758Y9589D01*
X4756Y9589D01*
X4755Y9588D01*
X4754Y9588D01*
X4752Y9586D01*
X4750Y9585D01*
X4749Y9584D01*
X4748Y9583D01*
X4748Y9581D01*
X4746Y9579D01*
X4746Y9578D01*
X4746Y9577D01*
X4746Y9576D01*
X4746Y9575D01*
X4746Y9181D01*
X4746Y9178D01*
X4747Y9174D01*
X4750Y9171D01*
X5718Y8203D01*
X5719Y8202D01*
X5720Y8201D01*
X5722Y8200D01*
X5724Y8199D01*
X5725Y8199D01*
X5726Y8199D01*
X5728Y8199D01*
X5730Y8199D01*
X5731Y8199D01*
X5733Y8199D01*
X5734Y8200D01*
X5736Y8201D01*
X5737Y8202D01*
X5738Y8203D01*
X5739Y8205D01*
X5741Y8206D01*
X5741Y8207D01*
X5742Y8208D01*
X5742Y8213D01*
X5742Y9288D01*
X5817Y9363D01*
X6239Y9785D01*
X6240Y9787D01*
X6242Y9788D01*
X6242Y9790D01*
X6243Y9791D01*
X6243Y9793D01*
X6243Y9795D01*
X6243Y9796D01*
X6243Y9797D01*
X6242Y9799D01*
X6242Y9801D01*
X6241Y9803D01*
X6240Y9804D01*
X6239Y9805D01*
X6214Y9830D01*
X6214Y10170D01*
X6455Y10411D01*
X6795Y10411D01*
X7036Y10170D01*
X7036Y9830D01*
X6795Y9589D01*
X6455Y9589D01*
X6430Y9614D01*
X6428Y9615D01*
X6426Y9617D01*
X6425Y9617D01*
X6424Y9618D01*
X6422Y9618D01*
X6420Y9618D01*
X6419Y9618D01*
X6418Y9618D01*
X6416Y9617D01*
X6413Y9617D01*
X6412Y9616D01*
X6411Y9615D01*
X6410Y9614D01*
X6155Y9359D01*
X6154Y9358D01*
X6153Y9357D01*
X6152Y9355D01*
X6151Y9353D01*
X6151Y9352D01*
X6151Y9351D01*
X6151Y9349D01*
X6151Y9347D01*
X6151Y9346D01*
X6151Y9344D01*
X6152Y9343D01*
X6153Y9341D01*
X6154Y9340D01*
X6155Y9339D01*
X6157Y9338D01*
X6158Y9336D01*
X6159Y9336D01*
X6160Y9335D01*
X6165Y9335D01*
X6337Y9335D01*
X6460Y9212D01*
X6460Y9092D01*
X6460Y9089D01*
X6461Y9088D01*
X6461Y9086D01*
X6464Y9082D01*
X6707Y8839D01*
X6713Y8835D01*
X6717Y8835D01*
X6837Y8835D01*
X6960Y8712D01*
X6960Y8538D01*
X6837Y8415D01*
X6663Y8415D01*
X6540Y8538D01*
X6540Y8658D01*
X6540Y8661D01*
X6539Y8664D01*
X6536Y8668D01*
X6293Y8911D01*
X6287Y8915D01*
X6283Y8915D01*
X6163Y8915D01*
X6040Y9038D01*
X6040Y9210D01*
X6040Y9211D01*
X6040Y9212D01*
X6039Y9214D01*
X6039Y9217D01*
X6038Y9218D01*
X6038Y9219D01*
X6036Y9220D01*
X6034Y9222D01*
X6033Y9222D01*
X6033Y9223D01*
X6030Y9223D01*
X6028Y9224D01*
X6027Y9224D01*
X6026Y9224D01*
X6024Y9224D01*
X6022Y9224D01*
X6021Y9223D01*
X6020Y9223D01*
X6016Y9220D01*
X5988Y9192D01*
X5985Y9187D01*
X5984Y9182D01*
X5984Y8059D01*
X5984Y8057D01*
X5985Y8055D01*
X5985Y8054D01*
X5985Y8053D01*
X5987Y8051D01*
X5988Y8049D01*
X5989Y8049D01*
X5990Y8048D01*
X5992Y8047D01*
X5994Y8046D01*
X5995Y8045D01*
X5996Y8045D01*
X5997Y8045D01*
X5998Y8045D01*
X6268Y8045D01*
X6304Y8009D01*
X6304Y7191D01*
X6268Y7156D01*
X6260Y7156D01*
X6258Y7155D01*
X6256Y7155D01*
X6255Y7154D01*
X6254Y7154D01*
X6252Y7153D01*
X6250Y7152D01*
X6249Y7151D01*
X6248Y7150D01*
X6248Y7148D01*
X6246Y7146D01*
X6246Y7144D01*
X6246Y7143D01*
X6246Y7142D01*
X6246Y6807D01*
X6246Y6805D01*
X6247Y6800D01*
X6250Y6797D01*
X6335Y6712D01*
X6335Y6538D01*
X6212Y6415D01*
X6038Y6415D01*
X5915Y6538D01*
X5915Y6712D01*
X6000Y6797D01*
X6004Y6802D01*
X6004Y6807D01*
X6004Y7103D01*
X6004Y7104D01*
X6004Y7105D01*
X6003Y7107D01*
X6003Y7109D01*
X6002Y7110D01*
X6002Y7111D01*
X6000Y7113D01*
X5998Y7114D01*
X5997Y7115D01*
X5996Y7116D01*
X5994Y7116D01*
X5992Y7117D01*
X5991Y7117D01*
X5990Y7117D01*
X5988Y7117D01*
X5986Y7116D01*
X5985Y7116D01*
X5984Y7116D01*
X5980Y7113D01*
X5250Y6383D01*
X5246Y6377D01*
X5246Y6373D01*
X5246Y4358D01*
X5246Y4356D01*
X5246Y4354D01*
X5247Y4353D01*
X5247Y4352D01*
X5249Y4350D01*
X5250Y4348D01*
X5251Y4348D01*
X5252Y4347D01*
X5254Y4346D01*
X5256Y4345D01*
X5257Y4345D01*
X5258Y4344D01*
X5259Y4344D01*
X5260Y4344D01*
X5268Y4344D01*
X5304Y4309D01*
X5304Y3491D01*
X5268Y3455D01*
X5260Y3455D01*
X5258Y3454D01*
X5256Y3454D01*
X5255Y3454D01*
X5254Y3453D01*
X5252Y3452D01*
X5250Y3451D01*
X5249Y3450D01*
X5248Y3449D01*
X5248Y3447D01*
X5246Y3445D01*
X5246Y3444D01*
X5246Y3443D01*
X5246Y3442D01*
X5246Y3441D01*
X5246Y3271D01*
X5246Y3269D01*
X5246Y3266D01*
X5247Y3265D01*
X5247Y3264D01*
X5249Y3263D01*
X5250Y3261D01*
X5251Y3260D01*
X5252Y3259D01*
X5254Y3258D01*
X5256Y3257D01*
X5257Y3257D01*
X5258Y3257D01*
X5259Y3257D01*
X5260Y3257D01*
X5609Y3257D01*
X5644Y3221D01*
X5644Y3114D01*
X5645Y3112D01*
X5645Y3110D01*
X5646Y3109D01*
X5646Y3108D01*
X5647Y3106D01*
X5649Y3104D01*
X5650Y3104D01*
X5650Y3103D01*
X5652Y3102D01*
X5654Y3101D01*
X5656Y3101D01*
X5656Y3100D01*
X5657Y3100D01*
X5659Y3100D01*
X5773Y3100D01*
X5774Y3100D01*
X5779Y3102D01*
X5783Y3104D01*
X5817Y3139D01*
X6156Y3139D01*
X6157Y3139D01*
X6159Y3139D01*
X6161Y3140D01*
X6163Y3140D01*
X6164Y3141D01*
X6165Y3141D01*
X6166Y3143D01*
X6168Y3144D01*
X6168Y3145D01*
X6169Y3146D01*
X6170Y3148D01*
X6170Y3151D01*
X6170Y3152D01*
X6171Y3153D01*
X6170Y3155D01*
X6170Y3157D01*
X6169Y3158D01*
X6169Y3159D01*
X6166Y3163D01*
X6004Y3325D01*
X6004Y3441D01*
X6004Y3443D01*
X6004Y3445D01*
X6003Y3446D01*
X6003Y3447D01*
X6001Y3449D01*
X6000Y3451D01*
X5999Y3451D01*
X5998Y3452D01*
X5996Y3453D01*
X5994Y3454D01*
X5993Y3455D01*
X5992Y3455D01*
X5991Y3455D01*
X5990Y3455D01*
X5982Y3455D01*
X5946Y3491D01*
X5946Y4309D01*
X5982Y4344D01*
X6268Y4344D01*
X6304Y4309D01*
X6304Y3491D01*
X6268Y3455D01*
X6260Y3455D01*
X6258Y3454D01*
X6256Y3454D01*
X6255Y3454D01*
X6254Y3453D01*
X6252Y3452D01*
X6250Y3451D01*
X6249Y3450D01*
X6248Y3449D01*
X6248Y3447D01*
X6246Y3445D01*
X6246Y3444D01*
X6246Y3443D01*
X6246Y3442D01*
X6246Y3441D01*
X6246Y3431D01*
X6247Y3426D01*
X6247Y3424D01*
X6250Y3421D01*
X6421Y3250D01*
X6480Y3191D01*
X6481Y3190D01*
X6482Y3189D01*
X6484Y3189D01*
X6486Y3187D01*
X6487Y3187D01*
X6488Y3187D01*
X6490Y3187D01*
X6492Y3187D01*
X6493Y3187D01*
X6494Y3187D01*
X6496Y3189D01*
X6498Y3189D01*
X6499Y3190D01*
X6500Y3191D01*
X6501Y3193D01*
X6503Y3194D01*
X6503Y3196D01*
X6504Y3197D01*
X6504Y3201D01*
X6504Y3441D01*
X6504Y3443D01*
X6504Y3445D01*
X6503Y3446D01*
X6503Y3447D01*
X6501Y3449D01*
X6500Y3451D01*
X6499Y3451D01*
X6498Y3452D01*
X6496Y3453D01*
X6494Y3454D01*
X6493Y3455D01*
X6492Y3455D01*
X6491Y3455D01*
X6490Y3455D01*
X6482Y3455D01*
X6446Y3491D01*
X6446Y4309D01*
X6482Y4344D01*
X6768Y4344D01*
X6804Y4309D01*
X6804Y3491D01*
X6768Y3455D01*
X6760Y3455D01*
X6758Y3454D01*
X6756Y3454D01*
X6755Y3454D01*
X6754Y3453D01*
X6752Y3452D01*
X6750Y3451D01*
X6749Y3450D01*
X6748Y3449D01*
X6748Y3447D01*
X6746Y3445D01*
X6746Y3444D01*
X6746Y3443D01*
X6746Y3442D01*
X6746Y3441D01*
X6746Y1825D01*
X6040Y1119D01*
X6036Y1113D01*
X6036Y1109D01*
X6036Y830D01*
X5795Y589D01*
X5455Y589D01*
X5214Y830D01*
X5214Y1170D01*
X5399Y1355D01*
X5400Y1356D01*
X5400Y1357D01*
X5401Y1359D01*
X5403Y1361D01*
X5403Y1362D01*
X5403Y1363D01*
X5403Y1365D01*
X5403Y1367D01*
X5403Y1368D01*
X5403Y1369D01*
X5401Y1371D01*
X5400Y1373D01*
X5400Y1374D01*
X5399Y1375D01*
X5397Y1376D01*
X5395Y1378D01*
X5394Y1378D01*
X5393Y1379D01*
X5389Y1379D01*
X5181Y1379D01*
X5177Y1378D01*
X5174Y1378D01*
X5171Y1375D01*
X5011Y1215D01*
X5010Y1213D01*
X5008Y1212D01*
X5008Y1210D01*
X5007Y1209D01*
X5007Y1207D01*
X5007Y1205D01*
X5007Y1204D01*
X5007Y1203D01*
X5008Y1201D01*
X5008Y1199D01*
X5009Y1197D01*
X5010Y1196D01*
X5011Y1195D01*
X5036Y1170D01*
X5036Y830D01*
X4795Y589D01*
X4455Y589D01*
X4214Y830D01*
X4214Y1170D01*
X4455Y1411D01*
X4795Y1411D01*
X4820Y1386D01*
X4822Y1385D01*
X4824Y1383D01*
X4825Y1383D01*
X4826Y1382D01*
X4828Y1382D01*
X4830Y1382D01*
X4831Y1382D01*
X4832Y1382D01*
X4834Y1383D01*
X4837Y1383D01*
X4838Y1384D01*
X4839Y1385D01*
X4840Y1386D01*
X5059Y1605D01*
X5060Y1606D01*
X5061Y1607D01*
X5061Y1609D01*
X5063Y1611D01*
X5063Y1612D01*
X5063Y1613D01*
X5063Y1615D01*
X5063Y1617D01*
X5063Y1618D01*
X5063Y1619D01*
X5061Y1621D01*
X5061Y1623D01*
X5060Y1624D01*
X5059Y1625D01*
X5057Y1626D01*
X5056Y1628D01*
X5054Y1628D01*
X5053Y1629D01*
X5049Y1629D01*
X4431Y1629D01*
X4427Y1628D01*
X4424Y1628D01*
X4421Y1625D01*
X4011Y1215D01*
X4010Y1213D01*
X4008Y1212D01*
X4008Y1210D01*
X4007Y1209D01*
X4007Y1207D01*
X4007Y1205D01*
X4007Y1204D01*
X4007Y1203D01*
X4008Y1201D01*
X4008Y1199D01*
X4009Y1197D01*
X4010Y1196D01*
X4011Y1195D01*
X4036Y1170D01*
X4036Y830D01*
X3795Y589D01*
X3455Y589D01*
G37*
%LPD*%
%LPC*%
G36*
X817Y2059D02*
X817Y2059D01*
X559Y2317D01*
X559Y2683D01*
X775Y2898D01*
X776Y2900D01*
X777Y2900D01*
X777Y2902D01*
X779Y2904D01*
X779Y2906D01*
X779Y2907D01*
X779Y2908D01*
X779Y3216D01*
X1909Y4346D01*
X2042Y4346D01*
X2044Y4346D01*
X2049Y4347D01*
X2052Y4350D01*
X2074Y4372D01*
X2180Y4372D01*
X2182Y4372D01*
X2184Y4372D01*
X2185Y4373D01*
X2186Y4373D01*
X2188Y4375D01*
X2190Y4376D01*
X2191Y4377D01*
X2192Y4378D01*
X2192Y4380D01*
X2194Y4382D01*
X2194Y4383D01*
X2194Y4384D01*
X2194Y4385D01*
X2194Y4386D01*
X2194Y4888D01*
X2194Y4890D01*
X2194Y4892D01*
X2193Y4893D01*
X2193Y4894D01*
X2191Y4896D01*
X2190Y4898D01*
X2189Y4898D01*
X2188Y4899D01*
X2186Y4900D01*
X2184Y4901D01*
X2183Y4901D01*
X2182Y4902D01*
X2181Y4902D01*
X2180Y4902D01*
X2034Y4902D01*
X2031Y4904D01*
X2027Y4904D01*
X1909Y4904D01*
X1775Y5038D01*
X1663Y5150D01*
X1657Y5154D01*
X1653Y5154D01*
X1366Y5154D01*
X1362Y5153D01*
X1360Y5153D01*
X1356Y5150D01*
X1170Y4964D01*
X830Y4964D01*
X589Y5205D01*
X589Y5545D01*
X830Y5786D01*
X1170Y5786D01*
X1356Y5600D01*
X1362Y5596D01*
X1366Y5596D01*
X1841Y5596D01*
X1975Y5462D01*
X2055Y5382D01*
X2061Y5378D01*
X2065Y5378D01*
X2715Y5378D01*
X2751Y5342D01*
X2751Y5335D01*
X2751Y5333D01*
X2751Y5330D01*
X2752Y5329D01*
X2752Y5328D01*
X2754Y5327D01*
X2755Y5325D01*
X2756Y5324D01*
X2757Y5323D01*
X2759Y5322D01*
X2761Y5321D01*
X2762Y5321D01*
X2763Y5321D01*
X2765Y5321D01*
X2995Y5321D01*
X2997Y5321D01*
X3000Y5321D01*
X3001Y5322D01*
X3002Y5322D01*
X3002Y5323D01*
X3004Y5323D01*
X3053Y5360D01*
X3053Y5361D01*
X3054Y5361D01*
X3055Y5363D01*
X3057Y5365D01*
X3057Y5366D01*
X3058Y5367D01*
X3058Y5372D01*
X3058Y5578D01*
X3094Y5614D01*
X3656Y5614D01*
X3692Y5578D01*
X3692Y5280D01*
X3692Y5277D01*
X3693Y5274D01*
X3693Y5273D01*
X3694Y5273D01*
X3696Y5270D01*
X4240Y4692D01*
X4241Y4692D01*
X4287Y4645D01*
X4287Y4643D01*
X4288Y4642D01*
X4286Y4578D01*
X4286Y4577D01*
X4286Y4333D01*
X4286Y4330D01*
X4286Y4329D01*
X4287Y4329D01*
X4287Y4326D01*
X4290Y4323D01*
X4304Y4309D01*
X4304Y3491D01*
X4268Y3455D01*
X3982Y3455D01*
X3946Y3491D01*
X3946Y4309D01*
X3960Y4323D01*
X3962Y4326D01*
X3964Y4328D01*
X3964Y4331D01*
X3964Y4333D01*
X3964Y4510D01*
X3964Y4513D01*
X3963Y4516D01*
X3963Y4517D01*
X3962Y4517D01*
X3960Y4520D01*
X3382Y5134D01*
X3380Y5136D01*
X3377Y5137D01*
X3372Y5138D01*
X3364Y5138D01*
X3361Y5138D01*
X3359Y5137D01*
X3358Y5137D01*
X3357Y5137D01*
X3357Y5136D01*
X3355Y5135D01*
X3180Y5003D01*
X3179Y5003D01*
X3178Y5002D01*
X3135Y4959D01*
X3125Y4959D01*
X3123Y4958D01*
X3120Y4958D01*
X3119Y4958D01*
X3119Y4957D01*
X3118Y4957D01*
X3116Y4956D01*
X3109Y4950D01*
X3048Y4959D01*
X3046Y4959D01*
X2765Y4959D01*
X2763Y4958D01*
X2761Y4958D01*
X2760Y4958D01*
X2758Y4957D01*
X2757Y4956D01*
X2755Y4955D01*
X2754Y4954D01*
X2753Y4953D01*
X2753Y4951D01*
X2751Y4949D01*
X2751Y4948D01*
X2751Y4947D01*
X2751Y4946D01*
X2751Y4945D01*
X2751Y4937D01*
X2715Y4902D01*
X2570Y4902D01*
X2568Y4901D01*
X2566Y4901D01*
X2565Y4901D01*
X2564Y4900D01*
X2562Y4899D01*
X2560Y4898D01*
X2559Y4897D01*
X2558Y4896D01*
X2558Y4894D01*
X2556Y4892D01*
X2556Y4891D01*
X2556Y4890D01*
X2556Y4889D01*
X2556Y4888D01*
X2556Y4386D01*
X2556Y4384D01*
X2556Y4382D01*
X2557Y4381D01*
X2557Y4380D01*
X2559Y4378D01*
X2560Y4376D01*
X2561Y4375D01*
X2562Y4374D01*
X2564Y4374D01*
X2566Y4372D01*
X2567Y4372D01*
X2568Y4372D01*
X2569Y4372D01*
X2570Y4372D01*
X2676Y4372D01*
X2711Y4336D01*
X2711Y3853D01*
X2676Y3817D01*
X2074Y3817D01*
X2049Y3842D01*
X2047Y3843D01*
X2046Y3845D01*
X2045Y3845D01*
X2044Y3846D01*
X2041Y3846D01*
X2039Y3846D01*
X2038Y3846D01*
X2037Y3846D01*
X2035Y3845D01*
X2033Y3845D01*
X2032Y3844D01*
X2031Y3844D01*
X2030Y3843D01*
X2029Y3842D01*
X1225Y3038D01*
X1221Y3032D01*
X1221Y3028D01*
X1221Y2908D01*
X1221Y2906D01*
X1221Y2904D01*
X1222Y2903D01*
X1222Y2902D01*
X1225Y2898D01*
X1441Y2683D01*
X1441Y2317D01*
X1183Y2059D01*
X817Y2059D01*
G37*
%LPD*%
%LPC*%
G36*
X830Y6964D02*
X830Y6964D01*
X589Y7205D01*
X589Y7545D01*
X830Y7786D01*
X1170Y7786D01*
X1195Y7761D01*
X1197Y7760D01*
X1199Y7758D01*
X1200Y7758D01*
X1201Y7757D01*
X1203Y7757D01*
X1205Y7757D01*
X1206Y7757D01*
X1207Y7757D01*
X1209Y7758D01*
X1212Y7758D01*
X1213Y7759D01*
X1214Y7760D01*
X1215Y7761D01*
X2500Y9046D01*
X2504Y9052D01*
X2504Y9056D01*
X2504Y9575D01*
X2504Y9577D01*
X2504Y9579D01*
X2503Y9580D01*
X2503Y9581D01*
X2501Y9583D01*
X2500Y9585D01*
X2499Y9586D01*
X2498Y9587D01*
X2496Y9587D01*
X2494Y9589D01*
X2493Y9589D01*
X2492Y9589D01*
X2491Y9589D01*
X2490Y9589D01*
X2455Y9589D01*
X2214Y9830D01*
X2214Y10170D01*
X2455Y10411D01*
X2795Y10411D01*
X3036Y10170D01*
X3036Y9886D01*
X3037Y9881D01*
X3037Y9880D01*
X3040Y9876D01*
X3480Y9436D01*
X3481Y9436D01*
X3482Y9435D01*
X3484Y9434D01*
X3486Y9433D01*
X3487Y9433D01*
X3488Y9432D01*
X3490Y9432D01*
X3492Y9432D01*
X3493Y9433D01*
X3494Y9433D01*
X3496Y9434D01*
X3498Y9435D01*
X3499Y9436D01*
X3500Y9436D01*
X3501Y9438D01*
X3503Y9440D01*
X3503Y9441D01*
X3504Y9442D01*
X3504Y9446D01*
X3504Y9575D01*
X3504Y9577D01*
X3504Y9579D01*
X3503Y9580D01*
X3503Y9581D01*
X3501Y9583D01*
X3500Y9585D01*
X3499Y9586D01*
X3498Y9587D01*
X3496Y9587D01*
X3494Y9589D01*
X3493Y9589D01*
X3492Y9589D01*
X3491Y9589D01*
X3490Y9589D01*
X3455Y9589D01*
X3214Y9830D01*
X3214Y10170D01*
X3455Y10411D01*
X3795Y10411D01*
X4036Y10170D01*
X4036Y9830D01*
X3795Y9589D01*
X3760Y9589D01*
X3758Y9589D01*
X3756Y9589D01*
X3755Y9588D01*
X3754Y9588D01*
X3752Y9586D01*
X3750Y9585D01*
X3749Y9584D01*
X3748Y9583D01*
X3748Y9581D01*
X3746Y9579D01*
X3746Y9578D01*
X3746Y9577D01*
X3746Y9576D01*
X3746Y9575D01*
X3746Y9431D01*
X3747Y9425D01*
X3747Y9424D01*
X3750Y9421D01*
X5122Y8049D01*
X5127Y8046D01*
X5132Y8045D01*
X5268Y8045D01*
X5304Y8009D01*
X5304Y7191D01*
X5268Y7156D01*
X4982Y7156D01*
X4946Y7191D01*
X4946Y7877D01*
X4945Y7880D01*
X4945Y7884D01*
X4942Y7887D01*
X4828Y8001D01*
X4827Y8002D01*
X4826Y8003D01*
X4824Y8003D01*
X4823Y8005D01*
X4821Y8005D01*
X4820Y8005D01*
X4818Y8005D01*
X4816Y8005D01*
X4815Y8005D01*
X4814Y8005D01*
X4812Y8003D01*
X4810Y8003D01*
X4809Y8002D01*
X4808Y8001D01*
X4807Y7999D01*
X4805Y7997D01*
X4805Y7996D01*
X4805Y7995D01*
X4804Y7991D01*
X4804Y7191D01*
X4768Y7156D01*
X4482Y7156D01*
X4446Y7191D01*
X4446Y8009D01*
X4482Y8045D01*
X4490Y8045D01*
X4492Y8046D01*
X4494Y8046D01*
X4495Y8046D01*
X4496Y8047D01*
X4498Y8048D01*
X4500Y8049D01*
X4501Y8050D01*
X4502Y8051D01*
X4502Y8053D01*
X4504Y8055D01*
X4504Y8056D01*
X4504Y8057D01*
X4504Y8058D01*
X4504Y8059D01*
X4504Y8065D01*
X4503Y8068D01*
X4503Y8071D01*
X4500Y8075D01*
X2900Y9674D01*
X2898Y9675D01*
X2897Y9677D01*
X2896Y9677D01*
X2895Y9678D01*
X2892Y9678D01*
X2890Y9678D01*
X2889Y9678D01*
X2888Y9678D01*
X2886Y9677D01*
X2884Y9677D01*
X2883Y9676D01*
X2882Y9676D01*
X2881Y9675D01*
X2880Y9674D01*
X2795Y9589D01*
X2760Y9589D01*
X2758Y9589D01*
X2756Y9589D01*
X2755Y9588D01*
X2754Y9588D01*
X2752Y9586D01*
X2750Y9585D01*
X2749Y9584D01*
X2748Y9583D01*
X2748Y9581D01*
X2746Y9579D01*
X2746Y9578D01*
X2746Y9577D01*
X2746Y9576D01*
X2746Y9575D01*
X2746Y8950D01*
X2671Y8875D01*
X1386Y7590D01*
X1385Y7588D01*
X1383Y7587D01*
X1383Y7585D01*
X1382Y7584D01*
X1382Y7582D01*
X1382Y7580D01*
X1382Y7579D01*
X1382Y7578D01*
X1383Y7576D01*
X1383Y7574D01*
X1384Y7572D01*
X1385Y7571D01*
X1386Y7570D01*
X1411Y7545D01*
X1411Y7205D01*
X1170Y6964D01*
X830Y6964D01*
G37*
%LPD*%
%LPC*%
G36*
X10830Y6964D02*
X10830Y6964D01*
X10589Y7205D01*
X10589Y7240D01*
X10589Y7242D01*
X10589Y7244D01*
X10588Y7245D01*
X10588Y7246D01*
X10586Y7248D01*
X10585Y7250D01*
X10584Y7251D01*
X10583Y7252D01*
X10581Y7252D01*
X10579Y7254D01*
X10578Y7254D01*
X10577Y7254D01*
X10576Y7254D01*
X10575Y7254D01*
X9700Y7254D01*
X8829Y8125D01*
X8823Y8129D01*
X8819Y8129D01*
X8306Y8129D01*
X8302Y8128D01*
X8299Y8128D01*
X8296Y8125D01*
X8250Y8079D01*
X8246Y8073D01*
X8246Y8069D01*
X8246Y8059D01*
X8246Y8057D01*
X8246Y8055D01*
X8247Y8054D01*
X8247Y8053D01*
X8249Y8051D01*
X8250Y8049D01*
X8251Y8049D01*
X8252Y8048D01*
X8254Y8047D01*
X8256Y8046D01*
X8257Y8045D01*
X8258Y8045D01*
X8259Y8045D01*
X8260Y8045D01*
X8268Y8045D01*
X8304Y8009D01*
X8304Y7191D01*
X8268Y7156D01*
X7982Y7156D01*
X7946Y7191D01*
X7946Y8009D01*
X7982Y8045D01*
X7990Y8045D01*
X7992Y8046D01*
X7994Y8046D01*
X7995Y8046D01*
X7996Y8047D01*
X7998Y8048D01*
X8000Y8049D01*
X8001Y8050D01*
X8002Y8051D01*
X8002Y8053D01*
X8004Y8055D01*
X8004Y8056D01*
X8004Y8057D01*
X8004Y8058D01*
X8004Y8059D01*
X8004Y8175D01*
X8125Y8296D01*
X8184Y8355D01*
X8185Y8356D01*
X8186Y8357D01*
X8186Y8359D01*
X8188Y8361D01*
X8188Y8362D01*
X8188Y8363D01*
X8188Y8365D01*
X8188Y8367D01*
X8188Y8368D01*
X8188Y8369D01*
X8186Y8371D01*
X8186Y8373D01*
X8185Y8374D01*
X8184Y8375D01*
X8182Y8376D01*
X8181Y8378D01*
X8179Y8378D01*
X8178Y8379D01*
X8174Y8379D01*
X8056Y8379D01*
X8052Y8378D01*
X8049Y8378D01*
X8046Y8375D01*
X7750Y8079D01*
X7746Y8073D01*
X7746Y8069D01*
X7746Y8059D01*
X7746Y8057D01*
X7746Y8055D01*
X7747Y8054D01*
X7747Y8053D01*
X7749Y8051D01*
X7750Y8049D01*
X7751Y8049D01*
X7752Y8048D01*
X7754Y8047D01*
X7756Y8046D01*
X7757Y8045D01*
X7758Y8045D01*
X7759Y8045D01*
X7760Y8045D01*
X7768Y8045D01*
X7804Y8009D01*
X7804Y7191D01*
X7768Y7156D01*
X7482Y7156D01*
X7446Y7191D01*
X7446Y8009D01*
X7482Y8045D01*
X7490Y8045D01*
X7492Y8046D01*
X7494Y8046D01*
X7495Y8046D01*
X7496Y8047D01*
X7498Y8048D01*
X7500Y8049D01*
X7501Y8050D01*
X7502Y8051D01*
X7502Y8053D01*
X7504Y8055D01*
X7504Y8056D01*
X7504Y8057D01*
X7504Y8058D01*
X7504Y8059D01*
X7504Y8175D01*
X7950Y8621D01*
X10659Y8621D01*
X10661Y8621D01*
X10665Y8622D01*
X10669Y8625D01*
X10830Y8786D01*
X11170Y8786D01*
X11411Y8545D01*
X11411Y8205D01*
X11170Y7964D01*
X10830Y7964D01*
X10589Y8205D01*
X10589Y8365D01*
X10589Y8367D01*
X10589Y8369D01*
X10588Y8370D01*
X10588Y8371D01*
X10586Y8373D01*
X10585Y8375D01*
X10584Y8376D01*
X10583Y8377D01*
X10581Y8377D01*
X10579Y8379D01*
X10578Y8379D01*
X10577Y8379D01*
X10576Y8379D01*
X10575Y8379D01*
X8951Y8379D01*
X8950Y8379D01*
X8949Y8379D01*
X8947Y8378D01*
X8944Y8378D01*
X8944Y8377D01*
X8943Y8377D01*
X8941Y8375D01*
X8939Y8373D01*
X8939Y8372D01*
X8938Y8371D01*
X8938Y8369D01*
X8937Y8367D01*
X8937Y8366D01*
X8937Y8365D01*
X8937Y8363D01*
X8937Y8361D01*
X8938Y8360D01*
X8938Y8359D01*
X8941Y8355D01*
X9796Y7500D01*
X9802Y7496D01*
X9806Y7496D01*
X10575Y7496D01*
X10577Y7496D01*
X10579Y7496D01*
X10580Y7497D01*
X10581Y7497D01*
X10583Y7499D01*
X10585Y7500D01*
X10586Y7501D01*
X10587Y7502D01*
X10587Y7504D01*
X10589Y7506D01*
X10589Y7507D01*
X10589Y7508D01*
X10589Y7509D01*
X10589Y7510D01*
X10589Y7545D01*
X10830Y7786D01*
X11170Y7786D01*
X11411Y7545D01*
X11411Y7205D01*
X11170Y6964D01*
X10830Y6964D01*
G37*
%LPD*%
%LPC*%
G36*
X8482Y3455D02*
X8482Y3455D01*
X8446Y3491D01*
X8446Y4309D01*
X8482Y4344D01*
X8768Y4344D01*
X8804Y4309D01*
X8804Y4284D01*
X8804Y4283D01*
X8804Y4281D01*
X8805Y4279D01*
X8805Y4277D01*
X8806Y4276D01*
X8807Y4275D01*
X8808Y4274D01*
X8810Y4272D01*
X8811Y4272D01*
X8812Y4271D01*
X8814Y4270D01*
X8816Y4270D01*
X8817Y4270D01*
X8818Y4269D01*
X8820Y4270D01*
X8823Y4270D01*
X8823Y4271D01*
X8825Y4271D01*
X8828Y4274D01*
X9975Y5421D01*
X10050Y5496D01*
X10575Y5496D01*
X10577Y5496D01*
X10579Y5496D01*
X10580Y5497D01*
X10581Y5497D01*
X10583Y5499D01*
X10585Y5500D01*
X10586Y5501D01*
X10587Y5502D01*
X10587Y5504D01*
X10589Y5506D01*
X10589Y5507D01*
X10589Y5508D01*
X10589Y5509D01*
X10589Y5510D01*
X10589Y5545D01*
X10830Y5786D01*
X11170Y5786D01*
X11411Y5545D01*
X11411Y5205D01*
X11170Y4964D01*
X10830Y4964D01*
X10589Y5205D01*
X10589Y5240D01*
X10589Y5242D01*
X10589Y5244D01*
X10588Y5245D01*
X10588Y5246D01*
X10586Y5248D01*
X10585Y5250D01*
X10584Y5251D01*
X10583Y5252D01*
X10581Y5252D01*
X10579Y5254D01*
X10578Y5254D01*
X10577Y5254D01*
X10576Y5254D01*
X10575Y5254D01*
X10156Y5254D01*
X10152Y5253D01*
X10150Y5253D01*
X10146Y5250D01*
X8808Y3912D01*
X8805Y3906D01*
X8804Y3902D01*
X8804Y3491D01*
X8768Y3455D01*
X8482Y3455D01*
G37*
%LPD*%
%LPC*%
G36*
X6455Y589D02*
X6455Y589D01*
X6214Y830D01*
X6214Y1170D01*
X6455Y1411D01*
X6795Y1411D01*
X6820Y1386D01*
X6822Y1385D01*
X6824Y1383D01*
X6825Y1383D01*
X6826Y1382D01*
X6828Y1382D01*
X6830Y1382D01*
X6831Y1382D01*
X6832Y1382D01*
X6834Y1383D01*
X6837Y1383D01*
X6838Y1384D01*
X6839Y1385D01*
X6840Y1386D01*
X7000Y1546D01*
X7000Y1547D01*
X7001Y1547D01*
X7004Y1552D01*
X7004Y1556D01*
X7004Y3441D01*
X7004Y3443D01*
X7004Y3445D01*
X7003Y3446D01*
X7003Y3447D01*
X7001Y3449D01*
X7000Y3451D01*
X6999Y3451D01*
X6998Y3452D01*
X6996Y3453D01*
X6994Y3454D01*
X6993Y3455D01*
X6992Y3455D01*
X6991Y3455D01*
X6990Y3455D01*
X6982Y3455D01*
X6946Y3491D01*
X6946Y4309D01*
X6982Y4344D01*
X7268Y4344D01*
X7304Y4309D01*
X7304Y3491D01*
X7268Y3455D01*
X7260Y3455D01*
X7258Y3454D01*
X7256Y3454D01*
X7255Y3454D01*
X7254Y3453D01*
X7252Y3452D01*
X7250Y3451D01*
X7249Y3450D01*
X7248Y3449D01*
X7248Y3447D01*
X7246Y3445D01*
X7246Y3444D01*
X7246Y3443D01*
X7246Y3442D01*
X7246Y3441D01*
X7246Y1450D01*
X7011Y1215D01*
X7010Y1213D01*
X7008Y1212D01*
X7008Y1210D01*
X7007Y1209D01*
X7007Y1207D01*
X7007Y1205D01*
X7007Y1204D01*
X7007Y1203D01*
X7008Y1201D01*
X7008Y1199D01*
X7009Y1197D01*
X7010Y1196D01*
X7011Y1195D01*
X7036Y1170D01*
X7036Y830D01*
X6795Y589D01*
X6455Y589D01*
G37*
%LPD*%
%LPC*%
G36*
X10830Y5964D02*
X10830Y5964D01*
X10589Y6205D01*
X10589Y6240D01*
X10589Y6242D01*
X10589Y6244D01*
X10588Y6245D01*
X10588Y6246D01*
X10586Y6248D01*
X10585Y6250D01*
X10584Y6251D01*
X10583Y6252D01*
X10581Y6252D01*
X10579Y6254D01*
X10578Y6254D01*
X10577Y6254D01*
X10576Y6254D01*
X10575Y6254D01*
X9825Y6254D01*
X9750Y6329D01*
X8828Y7251D01*
X8827Y7252D01*
X8826Y7253D01*
X8824Y7253D01*
X8823Y7255D01*
X8821Y7255D01*
X8820Y7255D01*
X8818Y7255D01*
X8816Y7255D01*
X8815Y7255D01*
X8814Y7255D01*
X8812Y7253D01*
X8810Y7253D01*
X8809Y7252D01*
X8808Y7251D01*
X8807Y7249D01*
X8805Y7247D01*
X8805Y7246D01*
X8805Y7245D01*
X8804Y7243D01*
X8804Y7242D01*
X8804Y7241D01*
X8804Y7191D01*
X8768Y7156D01*
X8482Y7156D01*
X8446Y7191D01*
X8446Y8009D01*
X8482Y8045D01*
X8768Y8045D01*
X8804Y8009D01*
X8804Y7623D01*
X8805Y7618D01*
X8805Y7616D01*
X8808Y7613D01*
X9921Y6500D01*
X9927Y6496D01*
X9931Y6496D01*
X10575Y6496D01*
X10577Y6496D01*
X10579Y6496D01*
X10580Y6497D01*
X10581Y6497D01*
X10583Y6499D01*
X10585Y6500D01*
X10586Y6501D01*
X10587Y6502D01*
X10587Y6504D01*
X10589Y6506D01*
X10589Y6507D01*
X10589Y6508D01*
X10589Y6509D01*
X10589Y6510D01*
X10589Y6545D01*
X10830Y6786D01*
X11170Y6786D01*
X11411Y6545D01*
X11411Y6205D01*
X11170Y5964D01*
X10830Y5964D01*
G37*
%LPD*%
%LPC*%
G36*
X830Y7964D02*
X830Y7964D01*
X589Y8205D01*
X589Y8545D01*
X830Y8786D01*
X1170Y8786D01*
X1195Y8761D01*
X1197Y8760D01*
X1199Y8758D01*
X1200Y8758D01*
X1201Y8757D01*
X1203Y8757D01*
X1205Y8757D01*
X1206Y8757D01*
X1207Y8757D01*
X1209Y8758D01*
X1212Y8758D01*
X1213Y8759D01*
X1214Y8760D01*
X1215Y8761D01*
X1375Y8921D01*
X1450Y8996D01*
X1693Y8996D01*
X1695Y8996D01*
X1700Y8997D01*
X1703Y9000D01*
X1788Y9085D01*
X1962Y9085D01*
X2085Y8962D01*
X2085Y8788D01*
X1962Y8665D01*
X1788Y8665D01*
X1703Y8750D01*
X1698Y8754D01*
X1693Y8754D01*
X1556Y8754D01*
X1552Y8753D01*
X1549Y8753D01*
X1546Y8750D01*
X1386Y8590D01*
X1385Y8589D01*
X1385Y8588D01*
X1384Y8588D01*
X1383Y8587D01*
X1383Y8585D01*
X1382Y8584D01*
X1382Y8583D01*
X1382Y8582D01*
X1382Y8581D01*
X1382Y8580D01*
X1382Y8579D01*
X1382Y8578D01*
X1382Y8577D01*
X1383Y8576D01*
X1383Y8575D01*
X1383Y8574D01*
X1384Y8572D01*
X1385Y8571D01*
X1386Y8570D01*
X1411Y8545D01*
X1411Y8205D01*
X1170Y7964D01*
X830Y7964D01*
G37*
%LPD*%
%LPC*%
G36*
X7663Y1915D02*
X7663Y1915D01*
X7540Y2038D01*
X7540Y2212D01*
X7663Y2335D01*
X7783Y2335D01*
X7785Y2335D01*
X7789Y2336D01*
X7793Y2339D01*
X8000Y2546D01*
X8004Y2552D01*
X8004Y2556D01*
X8004Y3441D01*
X8004Y3443D01*
X8004Y3445D01*
X8003Y3446D01*
X8003Y3447D01*
X8001Y3449D01*
X8000Y3451D01*
X7999Y3451D01*
X7998Y3452D01*
X7996Y3453D01*
X7994Y3454D01*
X7993Y3455D01*
X7992Y3455D01*
X7991Y3455D01*
X7990Y3455D01*
X7982Y3455D01*
X7946Y3491D01*
X7946Y4309D01*
X7982Y4344D01*
X8268Y4344D01*
X8304Y4309D01*
X8304Y3491D01*
X8268Y3455D01*
X8260Y3455D01*
X8258Y3454D01*
X8256Y3454D01*
X8255Y3454D01*
X8254Y3453D01*
X8252Y3452D01*
X8250Y3451D01*
X8249Y3450D01*
X8248Y3449D01*
X8248Y3447D01*
X8246Y3445D01*
X8246Y3444D01*
X8246Y3443D01*
X8246Y3442D01*
X8246Y3441D01*
X8246Y2450D01*
X7964Y2168D01*
X7960Y2162D01*
X7960Y2158D01*
X7960Y2038D01*
X7837Y1915D01*
X7663Y1915D01*
G37*
%LPD*%
%LPC*%
G36*
X7538Y2540D02*
X7538Y2540D01*
X7415Y2663D01*
X7415Y2837D01*
X7500Y2922D01*
X7504Y2927D01*
X7504Y2932D01*
X7504Y3441D01*
X7504Y3443D01*
X7504Y3445D01*
X7503Y3446D01*
X7503Y3447D01*
X7501Y3449D01*
X7500Y3451D01*
X7499Y3451D01*
X7498Y3452D01*
X7496Y3453D01*
X7494Y3454D01*
X7493Y3455D01*
X7492Y3455D01*
X7491Y3455D01*
X7490Y3455D01*
X7482Y3455D01*
X7446Y3491D01*
X7446Y4309D01*
X7482Y4344D01*
X7768Y4344D01*
X7804Y4309D01*
X7804Y3491D01*
X7768Y3455D01*
X7760Y3455D01*
X7758Y3454D01*
X7756Y3454D01*
X7755Y3454D01*
X7754Y3453D01*
X7752Y3452D01*
X7750Y3451D01*
X7749Y3450D01*
X7748Y3449D01*
X7748Y3447D01*
X7746Y3445D01*
X7746Y3444D01*
X7746Y3443D01*
X7746Y3442D01*
X7746Y3441D01*
X7746Y2932D01*
X7746Y2929D01*
X7747Y2925D01*
X7750Y2922D01*
X7835Y2837D01*
X7835Y2663D01*
X7712Y2540D01*
X7538Y2540D01*
G37*
%LPD*%
%LPC*%
G36*
X7288Y6415D02*
X7288Y6415D01*
X7165Y6538D01*
X7165Y6658D01*
X7164Y6662D01*
X7164Y6664D01*
X7161Y6668D01*
X7004Y6825D01*
X7004Y7142D01*
X7004Y7144D01*
X7004Y7146D01*
X7003Y7147D01*
X7003Y7148D01*
X7001Y7150D01*
X7000Y7152D01*
X6999Y7152D01*
X6998Y7153D01*
X6996Y7154D01*
X6994Y7155D01*
X6993Y7155D01*
X6992Y7156D01*
X6991Y7156D01*
X6990Y7156D01*
X6982Y7156D01*
X6946Y7191D01*
X6946Y8009D01*
X6982Y8045D01*
X7268Y8045D01*
X7304Y8009D01*
X7304Y7191D01*
X7268Y7156D01*
X7260Y7156D01*
X7258Y7155D01*
X7256Y7155D01*
X7255Y7154D01*
X7254Y7154D01*
X7252Y7153D01*
X7250Y7152D01*
X7249Y7151D01*
X7248Y7150D01*
X7248Y7148D01*
X7246Y7146D01*
X7246Y7144D01*
X7246Y7143D01*
X7246Y7142D01*
X7246Y6931D01*
X7247Y6928D01*
X7247Y6924D01*
X7250Y6921D01*
X7332Y6839D01*
X7338Y6835D01*
X7342Y6835D01*
X7462Y6835D01*
X7585Y6712D01*
X7585Y6538D01*
X7462Y6415D01*
X7288Y6415D01*
G37*
%LPD*%
%LPC*%
G36*
X7455Y9589D02*
X7455Y9589D01*
X7214Y9830D01*
X7214Y10170D01*
X7455Y10411D01*
X7795Y10411D01*
X8036Y10170D01*
X8036Y9830D01*
X7795Y9589D01*
X7455Y9589D01*
G37*
%LPD*%
%LPC*%
G36*
X9455Y589D02*
X9455Y589D01*
X9214Y830D01*
X9214Y1170D01*
X9455Y1411D01*
X9795Y1411D01*
X10036Y1170D01*
X10036Y830D01*
X9795Y589D01*
X9455Y589D01*
G37*
%LPD*%
%LPC*%
G36*
X8455Y589D02*
X8455Y589D01*
X8214Y830D01*
X8214Y1170D01*
X8455Y1411D01*
X8795Y1411D01*
X9036Y1170D01*
X9036Y830D01*
X8795Y589D01*
X8455Y589D01*
G37*
%LPD*%
%LPC*%
G36*
X2455Y589D02*
X2455Y589D01*
X2214Y830D01*
X2214Y1170D01*
X2455Y1411D01*
X2795Y1411D01*
X3036Y1170D01*
X3036Y830D01*
X2795Y589D01*
X2455Y589D01*
G37*
%LPD*%
%LPC*%
G36*
X7455Y589D02*
X7455Y589D01*
X7214Y830D01*
X7214Y1170D01*
X7455Y1411D01*
X7795Y1411D01*
X8036Y1170D01*
X8036Y830D01*
X7795Y589D01*
X7455Y589D01*
G37*
%LPD*%
%LPC*%
G36*
X830Y3964D02*
X830Y3964D01*
X589Y4205D01*
X589Y4545D01*
X830Y4786D01*
X1170Y4786D01*
X1411Y4545D01*
X1411Y4205D01*
X1170Y3964D01*
X830Y3964D01*
G37*
%LPD*%
%LPC*%
G36*
X5455Y9589D02*
X5455Y9589D01*
X5214Y9830D01*
X5214Y10170D01*
X5455Y10411D01*
X5795Y10411D01*
X6036Y10170D01*
X6036Y9830D01*
X5795Y9589D01*
X5455Y9589D01*
G37*
%LPD*%
%LPC*%
G36*
X830Y8964D02*
X830Y8964D01*
X589Y9205D01*
X589Y9545D01*
X830Y9786D01*
X1170Y9786D01*
X1411Y9545D01*
X1411Y9205D01*
X1170Y8964D01*
X830Y8964D01*
G37*
%LPD*%
%LPC*%
G36*
X6538Y6415D02*
X6538Y6415D01*
X6415Y6538D01*
X6415Y6712D01*
X6500Y6797D01*
X6504Y6802D01*
X6504Y6807D01*
X6504Y7142D01*
X6504Y7144D01*
X6504Y7146D01*
X6503Y7147D01*
X6503Y7148D01*
X6501Y7150D01*
X6500Y7152D01*
X6499Y7152D01*
X6498Y7153D01*
X6496Y7154D01*
X6494Y7155D01*
X6493Y7155D01*
X6492Y7156D01*
X6491Y7156D01*
X6490Y7156D01*
X6482Y7156D01*
X6446Y7191D01*
X6446Y8009D01*
X6482Y8045D01*
X6768Y8045D01*
X6804Y8009D01*
X6804Y7191D01*
X6768Y7156D01*
X6760Y7156D01*
X6758Y7155D01*
X6756Y7155D01*
X6755Y7154D01*
X6754Y7154D01*
X6752Y7153D01*
X6750Y7152D01*
X6749Y7151D01*
X6748Y7150D01*
X6748Y7148D01*
X6746Y7146D01*
X6746Y7144D01*
X6746Y7143D01*
X6746Y7142D01*
X6746Y6807D01*
X6746Y6804D01*
X6747Y6800D01*
X6750Y6797D01*
X6835Y6712D01*
X6835Y6538D01*
X6712Y6415D01*
X6538Y6415D01*
G37*
%LPD*%
%LPC*%
G36*
X2074Y3128D02*
X2074Y3128D01*
X2039Y3164D01*
X2039Y3647D01*
X2074Y3683D01*
X2676Y3683D01*
X2711Y3647D01*
X2711Y3541D01*
X2712Y3538D01*
X2712Y3536D01*
X2713Y3535D01*
X2713Y3534D01*
X2714Y3532D01*
X2716Y3530D01*
X2717Y3529D01*
X2719Y3528D01*
X2721Y3527D01*
X2723Y3527D01*
X2723Y3526D01*
X2724Y3526D01*
X2726Y3526D01*
X2849Y3526D01*
X2850Y3527D01*
X2855Y3528D01*
X2859Y3530D01*
X2913Y3585D01*
X3087Y3585D01*
X3210Y3462D01*
X3210Y3288D01*
X3087Y3165D01*
X2913Y3165D01*
X2798Y3281D01*
X2792Y3284D01*
X2788Y3285D01*
X2726Y3285D01*
X2723Y3284D01*
X2721Y3284D01*
X2720Y3283D01*
X2719Y3283D01*
X2717Y3282D01*
X2716Y3281D01*
X2715Y3280D01*
X2714Y3279D01*
X2713Y3277D01*
X2712Y3275D01*
X2712Y3273D01*
X2712Y3272D01*
X2711Y3271D01*
X2711Y3164D01*
X2676Y3128D01*
X2074Y3128D01*
G37*
%LPD*%
%LPC*%
G36*
X5482Y3455D02*
X5482Y3455D01*
X5446Y3491D01*
X5446Y4309D01*
X5482Y4344D01*
X5490Y4344D01*
X5492Y4345D01*
X5494Y4345D01*
X5495Y4346D01*
X5496Y4346D01*
X5498Y4347D01*
X5500Y4348D01*
X5501Y4349D01*
X5502Y4350D01*
X5502Y4352D01*
X5504Y4354D01*
X5504Y4356D01*
X5504Y4357D01*
X5504Y4358D01*
X5504Y4443D01*
X5503Y4447D01*
X5503Y4450D01*
X5500Y4453D01*
X5415Y4538D01*
X5415Y4712D01*
X5538Y4835D01*
X5712Y4835D01*
X5835Y4712D01*
X5835Y4538D01*
X5750Y4453D01*
X5746Y4448D01*
X5746Y4443D01*
X5746Y4358D01*
X5746Y4356D01*
X5746Y4354D01*
X5747Y4353D01*
X5747Y4352D01*
X5749Y4350D01*
X5750Y4348D01*
X5751Y4348D01*
X5752Y4347D01*
X5754Y4346D01*
X5756Y4345D01*
X5757Y4345D01*
X5758Y4344D01*
X5759Y4344D01*
X5760Y4344D01*
X5768Y4344D01*
X5804Y4309D01*
X5804Y3491D01*
X5768Y3455D01*
X5482Y3455D01*
G37*
%LPD*%
D10*
X2375Y6360D03*
X2375Y5140D03*
D11*
X3375Y6124D03*
X3375Y5376D03*
D12*
X6125Y7600D03*
X5625Y7600D03*
X5125Y7600D03*
X4625Y7600D03*
X4125Y7600D03*
X6625Y7600D03*
X7125Y7600D03*
X7625Y7600D03*
X8125Y7600D03*
X8625Y7600D03*
X6125Y3900D03*
X5625Y3900D03*
X5125Y3900D03*
X4625Y3900D03*
X4125Y3900D03*
X6625Y3900D03*
X7125Y3900D03*
X7625Y3900D03*
X8125Y3900D03*
X8625Y3900D03*
D13*
X1000Y6375D03*
X1000Y5375D03*
X1000Y4375D03*
X1000Y7375D03*
X1000Y8375D03*
X1000Y9375D03*
D14*
X2375Y4094D03*
X2375Y3406D03*
D15*
X5328Y2271D03*
X4422Y2271D03*
X4422Y2979D03*
X5328Y2979D03*
D16*
X6000Y2330D03*
X6000Y2920D03*
X3750Y2920D03*
X3750Y2330D03*
D17*
X11000Y6375D03*
X11000Y7375D03*
X11000Y8375D03*
X11000Y5375D03*
X11000Y4375D03*
X11000Y3375D03*
D18*
X6625Y1000D03*
X7625Y1000D03*
X8625Y1000D03*
X9625Y1000D03*
X5625Y1000D03*
X4625Y1000D03*
X3625Y1000D03*
X2625Y1000D03*
D19*
X5625Y10000D03*
X4625Y10000D03*
X3625Y10000D03*
X2625Y10000D03*
X6625Y10000D03*
X7625Y10000D03*
X8625Y10000D03*
X9625Y10000D03*
D20*
X1000Y2500D03*
X1000Y1500D03*
D21*
X3000Y3375D03*
D22*
X2969Y3406D01*
X2375Y3406D01*
D21*
X5625Y4625D03*
D22*
X5625Y3900D01*
D21*
X6750Y8625D03*
D22*
X6250Y9125D01*
D21*
X6250Y9125D03*
D23*
X4125Y4580D02*
X4125Y3900D01*
X4125Y4580D02*
X3375Y5376D01*
D24*
X3060Y5140D02*
X2375Y5140D01*
X3060Y5140D02*
X3375Y5376D01*
X2375Y5140D02*
X2375Y4094D01*
D25*
X1000Y3125D02*
X1000Y2500D01*
X1000Y3125D02*
X2000Y4125D01*
X2031Y4094D01*
X2375Y4094D01*
X1750Y5375D02*
X1000Y5375D01*
X1750Y5375D02*
X2000Y5125D01*
X2485Y5125D01*
X2375Y5140D01*
D21*
X2125Y6875D03*
X2625Y6875D03*
X3375Y6625D03*
X4125Y6875D03*
X4000Y8250D03*
X7250Y9125D03*
X8375Y6750D03*
X7625Y5875D03*
X7875Y4875D03*
X9125Y4875D03*
X10000Y4875D03*
X9125Y2500D03*
X3750Y3375D03*
X3250Y2875D03*
D22*
X5125Y7600D02*
X5125Y7875D01*
X3625Y9375D01*
X3625Y10000D01*
X1500Y8875D02*
X1000Y8375D01*
X1500Y8875D02*
X1875Y8875D01*
D21*
X1875Y8875D03*
D22*
X4625Y8120D02*
X4625Y7600D01*
X2745Y10000D02*
X2625Y10000D01*
X2745Y10000D02*
X4625Y8120D01*
X2625Y9000D02*
X1000Y7375D01*
X2625Y9000D02*
X2625Y10000D01*
X5125Y3182D02*
X5328Y2979D01*
X5125Y3182D02*
X5125Y3900D01*
X5328Y2979D02*
X5941Y2979D01*
X6000Y2920D01*
X5863Y9238D02*
X6625Y10000D01*
X5863Y9238D02*
X5863Y7167D01*
X5125Y6429D02*
X5125Y3900D01*
X5125Y6429D02*
X5863Y7167D01*
X4875Y2723D02*
X4422Y2271D01*
X4875Y2723D02*
X4875Y3375D01*
X4625Y3625D01*
X4625Y3900D01*
X4422Y2271D02*
X3809Y2271D01*
X3750Y2330D01*
X4625Y3900D02*
X4625Y5000D01*
X4500Y5125D01*
D21*
X4500Y5125D03*
D22*
X5625Y7600D02*
X5625Y8125D01*
X4625Y9125D01*
X4625Y10000D01*
X7625Y8125D02*
X7625Y7600D01*
X7625Y8125D02*
X8000Y8500D01*
X10875Y8500D02*
X11000Y8375D01*
X10875Y8500D02*
X8000Y8500D01*
X8125Y8125D02*
X8125Y7600D01*
X8125Y8125D02*
X8250Y8250D01*
X8875Y8250D01*
X9750Y7375D02*
X11000Y7375D01*
X9750Y7375D02*
X8875Y8250D01*
X8650Y7600D02*
X8625Y7600D01*
X8650Y7600D02*
X9875Y6375D01*
X11000Y6375D01*
X10100Y5375D02*
X8625Y3900D01*
X10100Y5375D02*
X11000Y5375D01*
X8125Y3900D02*
X8125Y2500D01*
X7750Y2125D01*
D21*
X7750Y2125D03*
D22*
X7625Y2750D02*
X7625Y3900D01*
D21*
X7625Y2750D03*
X5750Y1894D03*
D22*
X5606Y1750D01*
X4375Y1750D01*
X3625Y1000D01*
X6125Y3375D02*
X6125Y3900D01*
X6125Y3375D02*
X6375Y3125D01*
X6375Y2000D01*
X5875Y1500D02*
X5125Y1500D01*
X4625Y1000D01*
X5875Y1500D02*
X6375Y2000D01*
X6625Y1875D02*
X6625Y3900D01*
X5750Y1000D02*
X5625Y1000D01*
X5750Y1000D02*
X6625Y1875D01*
X7125Y1500D02*
X7125Y3900D01*
X7125Y1500D02*
X6625Y1000D01*
X7125Y6875D02*
X7125Y7600D01*
X7125Y6875D02*
X7375Y6625D01*
D21*
X7375Y6625D03*
D22*
X6625Y6625D02*
X6625Y7600D01*
D21*
X6625Y6625D03*
D22*
X6125Y6625D02*
X6125Y7600D01*
D21*
X6125Y6625D03*
M02*
