G04 EAGLE Gerber X2 export*
%TF.Part,Single*%
%TF.FileFunction,Copper,L1,Top,Mixed*%
%TF.FilePolarity,Positive*%
%TF.GenerationSoftware,Autodesk,EAGLE,8.7.0*%
%TF.CreationDate,2018-03-19T18:44:23Z*%
G75*
%MOIN*%
%FSLAX34Y34*%
%LPD*%
%AMOC8*
5,1,8,0,0,1.08239X$1,22.5*%
G01*
%ADD10R,0.051181X0.035433*%
%ADD11R,0.062992X0.035433*%
%ADD12R,0.070866X0.031496*%
%ADD13R,0.055118X0.043307*%
%ADD14P,0.082262X8X112.500000*%
%ADD15C,0.032000*%
%ADD16C,0.024000*%
%ADD17C,0.023780*%
%ADD18C,0.012000*%

G36*
X6829Y151D02*
X6829Y151D01*
X6832Y151D01*
X6832Y152D01*
X6834Y152D01*
X6835Y154D01*
X6837Y155D01*
X6838Y156D01*
X6839Y157D01*
X6840Y159D01*
X6841Y161D01*
X6841Y162D01*
X6841Y163D01*
X6841Y164D01*
X6841Y165D01*
X6841Y3830D01*
X6841Y3832D01*
X6841Y3834D01*
X6840Y3835D01*
X6840Y3837D01*
X6838Y3838D01*
X6837Y3840D01*
X6836Y3841D01*
X6836Y3842D01*
X6833Y3842D01*
X6832Y3844D01*
X6830Y3844D01*
X6829Y3844D01*
X6827Y3844D01*
X165Y3844D01*
X163Y3844D01*
X161Y3844D01*
X160Y3843D01*
X159Y3843D01*
X157Y3841D01*
X155Y3840D01*
X154Y3839D01*
X153Y3838D01*
X153Y3836D01*
X151Y3834D01*
X151Y3833D01*
X151Y3832D01*
X151Y3830D01*
X151Y165D01*
X151Y163D01*
X151Y161D01*
X152Y160D01*
X152Y159D01*
X154Y157D01*
X155Y155D01*
X156Y154D01*
X157Y153D01*
X159Y153D01*
X161Y151D01*
X162Y151D01*
X163Y151D01*
X164Y151D01*
X165Y151D01*
X6827Y151D01*
X6829Y151D01*
G37*
%LPC*%
G36*
X2219Y1386D02*
X2219Y1386D01*
X2183Y1422D01*
X2183Y1515D01*
X2183Y1517D01*
X2183Y1519D01*
X2182Y1520D01*
X2182Y1521D01*
X2180Y1523D01*
X2179Y1525D01*
X2178Y1526D01*
X2177Y1527D01*
X2175Y1527D01*
X2173Y1529D01*
X2172Y1529D01*
X2171Y1529D01*
X2169Y1529D01*
X1533Y1529D01*
X1530Y1531D01*
X1525Y1532D01*
X1246Y1532D01*
X1210Y1567D01*
X1210Y1933D01*
X1246Y1968D01*
X1525Y1968D01*
X1527Y1969D01*
X1532Y1970D01*
X1533Y1971D01*
X2265Y1971D01*
X2267Y1971D01*
X2269Y1971D01*
X2270Y1972D01*
X2271Y1972D01*
X2273Y1974D01*
X2275Y1975D01*
X2276Y1976D01*
X2277Y1977D01*
X2277Y1979D01*
X2279Y1981D01*
X2279Y1982D01*
X2279Y1983D01*
X2279Y1984D01*
X2279Y1985D01*
X2279Y1989D01*
X2279Y1991D01*
X2279Y1993D01*
X2278Y1994D01*
X2278Y1995D01*
X2276Y1997D01*
X2275Y1999D01*
X2274Y2000D01*
X2273Y2001D01*
X2271Y2001D01*
X2269Y2003D01*
X2268Y2003D01*
X2267Y2003D01*
X2266Y2003D01*
X2265Y2003D01*
X2199Y2003D01*
X2164Y2039D01*
X2164Y2401D01*
X2163Y2402D01*
X2163Y2403D01*
X2163Y2405D01*
X2162Y2407D01*
X2161Y2408D01*
X2161Y2409D01*
X2159Y2411D01*
X2158Y2412D01*
X2157Y2413D01*
X2156Y2414D01*
X2154Y2414D01*
X2152Y2415D01*
X2151Y2415D01*
X2149Y2415D01*
X2147Y2415D01*
X2145Y2414D01*
X2144Y2414D01*
X2143Y2414D01*
X2139Y2411D01*
X2044Y2316D01*
X2041Y2310D01*
X2040Y2306D01*
X2040Y2067D01*
X2004Y2032D01*
X1246Y2032D01*
X1210Y2067D01*
X1210Y2433D01*
X1246Y2468D01*
X1849Y2468D01*
X1851Y2469D01*
X1856Y2470D01*
X1859Y2472D01*
X2125Y2738D01*
X2149Y2738D01*
X2152Y2738D01*
X2154Y2738D01*
X2155Y2739D01*
X2156Y2739D01*
X2158Y2741D01*
X2159Y2742D01*
X2160Y2743D01*
X2161Y2744D01*
X2162Y2746D01*
X2163Y2748D01*
X2163Y2749D01*
X2163Y2750D01*
X2163Y2751D01*
X2164Y2752D01*
X2164Y3211D01*
X2199Y3247D01*
X2801Y3247D01*
X2836Y3211D01*
X2836Y3164D01*
X2837Y3162D01*
X2837Y3160D01*
X2838Y3159D01*
X2838Y3158D01*
X2839Y3156D01*
X2841Y3154D01*
X2842Y3153D01*
X2844Y3152D01*
X2846Y3151D01*
X2848Y3151D01*
X2848Y3150D01*
X2849Y3150D01*
X2851Y3150D01*
X3480Y3150D01*
X3681Y2950D01*
X3681Y2862D01*
X3681Y2860D01*
X3681Y2858D01*
X3682Y2857D01*
X3682Y2856D01*
X3684Y2854D01*
X3685Y2852D01*
X3686Y2852D01*
X3687Y2851D01*
X3689Y2850D01*
X3691Y2849D01*
X3692Y2849D01*
X3693Y2848D01*
X3694Y2848D01*
X3695Y2848D01*
X3840Y2848D01*
X3853Y2835D01*
X3859Y2832D01*
X3863Y2831D01*
X4263Y2831D01*
X4264Y2831D01*
X4269Y2833D01*
X4273Y2835D01*
X4305Y2867D01*
X4309Y2873D01*
X4309Y2877D01*
X4309Y3183D01*
X4567Y3441D01*
X4933Y3441D01*
X5191Y3183D01*
X5191Y2817D01*
X4933Y2559D01*
X4627Y2559D01*
X4623Y2558D01*
X4621Y2558D01*
X4617Y2555D01*
X4457Y2395D01*
X4457Y2394D01*
X4456Y2393D01*
X4455Y2391D01*
X4454Y2389D01*
X4454Y2388D01*
X4453Y2387D01*
X4453Y2385D01*
X4453Y2383D01*
X4454Y2382D01*
X4454Y2381D01*
X4455Y2379D01*
X4456Y2377D01*
X4457Y2376D01*
X4457Y2375D01*
X4459Y2374D01*
X4461Y2372D01*
X4462Y2372D01*
X4463Y2371D01*
X4467Y2371D01*
X4492Y2371D01*
X4493Y2371D01*
X4498Y2372D01*
X4502Y2375D01*
X4567Y2441D01*
X4933Y2441D01*
X5191Y2183D01*
X5191Y1817D01*
X4933Y1559D01*
X4567Y1559D01*
X4309Y1817D01*
X4309Y2115D01*
X4309Y2117D01*
X4309Y2119D01*
X4308Y2120D01*
X4308Y2121D01*
X4306Y2123D01*
X4305Y2125D01*
X4304Y2126D01*
X4303Y2127D01*
X4301Y2127D01*
X4299Y2129D01*
X4298Y2129D01*
X4297Y2129D01*
X4296Y2129D01*
X4295Y2129D01*
X3142Y2129D01*
X2861Y2411D01*
X2860Y2412D01*
X2859Y2412D01*
X2857Y2413D01*
X2855Y2414D01*
X2854Y2414D01*
X2853Y2415D01*
X2851Y2415D01*
X2848Y2415D01*
X2847Y2414D01*
X2846Y2414D01*
X2844Y2413D01*
X2842Y2412D01*
X2841Y2412D01*
X2841Y2411D01*
X2839Y2409D01*
X2838Y2407D01*
X2838Y2406D01*
X2837Y2405D01*
X2836Y2401D01*
X2836Y2039D01*
X2801Y2003D01*
X2735Y2003D01*
X2733Y2003D01*
X2731Y2003D01*
X2730Y2002D01*
X2729Y2002D01*
X2727Y2000D01*
X2725Y1999D01*
X2724Y1998D01*
X2723Y1997D01*
X2723Y1995D01*
X2721Y1993D01*
X2721Y1992D01*
X2721Y1991D01*
X2721Y1990D01*
X2721Y1989D01*
X2721Y1876D01*
X2721Y1874D01*
X2721Y1872D01*
X2722Y1871D01*
X2722Y1870D01*
X2724Y1868D01*
X2725Y1866D01*
X2726Y1866D01*
X2727Y1865D01*
X2729Y1864D01*
X2731Y1863D01*
X2732Y1862D01*
X2733Y1862D01*
X2734Y1862D01*
X2735Y1862D01*
X2781Y1862D01*
X2817Y1826D01*
X2817Y1422D01*
X2781Y1386D01*
X2219Y1386D01*
G37*
%LPD*%
D10*
X2500Y876D03*
X2500Y1624D03*
D11*
X3500Y1390D03*
X3500Y2610D03*
D12*
X1625Y1750D03*
X1625Y2250D03*
X1625Y2750D03*
X1625Y1250D03*
D13*
X2500Y2969D03*
X2500Y2281D03*
D14*
X4750Y2000D03*
X4750Y1000D03*
X4750Y3000D03*
D15*
X4360Y2610D02*
X3500Y2610D01*
X4360Y2610D02*
X4750Y3000D01*
D16*
X3406Y2969D02*
X2500Y2969D01*
X3406Y2969D02*
X3500Y2875D01*
X3500Y2610D01*
D15*
X2500Y2281D02*
X2500Y1750D01*
X2500Y1624D01*
X2500Y1750D02*
X1625Y1750D01*
D17*
X1125Y3625D03*
X375Y2875D03*
X375Y2000D03*
X375Y1125D03*
X1125Y375D03*
X2250Y375D03*
X2625Y375D03*
X3125Y875D03*
X3500Y875D03*
X3875Y875D03*
D18*
X4750Y2000D02*
X4500Y2250D01*
X2825Y2617D02*
X2175Y2617D01*
X1808Y2250D02*
X1625Y2250D01*
X3192Y2250D02*
X4500Y2250D01*
X2175Y2617D02*
X1808Y2250D01*
X2825Y2617D02*
X3192Y2250D01*
M02*
