G04 EAGLE Gerber X2 export*
%TF.Part,Single*%
%TF.FileFunction,Copper,L1,Top,Mixed*%
%TF.FilePolarity,Positive*%
%TF.GenerationSoftware,Autodesk,EAGLE,8.7.0*%
%TF.CreationDate,2018-03-19T19:13:02Z*%
G75*
%MOIN*%
%FSLAX34Y34*%
%LPD*%
%AMOC8*
5,1,8,0,0,1.08239X$1,22.5*%
G01*
%ADD10R,0.062992X0.035433*%
%ADD11R,0.051181X0.035433*%
%ADD12R,0.086614X0.035433*%
%ADD13R,0.055118X0.043307*%
%ADD14P,0.082262X8X112.500000*%
%ADD15C,0.032000*%
%ADD16C,0.023780*%
%ADD17C,0.012000*%

G36*
X7704Y151D02*
X7704Y151D01*
X7707Y151D01*
X7707Y152D01*
X7709Y152D01*
X7710Y154D01*
X7712Y155D01*
X7713Y156D01*
X7714Y157D01*
X7715Y159D01*
X7716Y161D01*
X7716Y162D01*
X7716Y163D01*
X7716Y164D01*
X7716Y165D01*
X7716Y3955D01*
X7716Y3957D01*
X7716Y3959D01*
X7715Y3960D01*
X7715Y3962D01*
X7713Y3963D01*
X7712Y3965D01*
X7711Y3966D01*
X7711Y3967D01*
X7708Y3967D01*
X7707Y3969D01*
X7705Y3969D01*
X7704Y3969D01*
X7702Y3969D01*
X165Y3969D01*
X163Y3969D01*
X161Y3969D01*
X160Y3968D01*
X159Y3968D01*
X157Y3966D01*
X155Y3965D01*
X154Y3964D01*
X153Y3963D01*
X153Y3961D01*
X151Y3959D01*
X151Y3958D01*
X151Y3957D01*
X151Y3955D01*
X151Y165D01*
X151Y163D01*
X151Y161D01*
X152Y160D01*
X152Y159D01*
X154Y157D01*
X155Y155D01*
X156Y154D01*
X157Y153D01*
X159Y153D01*
X161Y151D01*
X162Y151D01*
X163Y151D01*
X164Y151D01*
X165Y151D01*
X7702Y151D01*
X7704Y151D01*
G37*
%LPC*%
G36*
X3094Y1386D02*
X3094Y1386D01*
X3058Y1422D01*
X3058Y1826D01*
X3094Y1862D01*
X3140Y1862D01*
X3142Y1862D01*
X3144Y1863D01*
X3145Y1863D01*
X3146Y1863D01*
X3148Y1865D01*
X3150Y1866D01*
X3151Y1867D01*
X3152Y1868D01*
X3152Y1870D01*
X3154Y1872D01*
X3154Y1873D01*
X3154Y1874D01*
X3154Y1875D01*
X3154Y1876D01*
X3154Y2140D01*
X3154Y2142D01*
X3154Y2144D01*
X3153Y2145D01*
X3153Y2146D01*
X3151Y2148D01*
X3150Y2150D01*
X3149Y2151D01*
X3148Y2152D01*
X3146Y2152D01*
X3144Y2154D01*
X3143Y2154D01*
X3142Y2154D01*
X3141Y2154D01*
X3140Y2154D01*
X2856Y2154D01*
X2852Y2153D01*
X2850Y2153D01*
X2846Y2150D01*
X2831Y2135D01*
X2830Y2133D01*
X2829Y2131D01*
X2828Y2130D01*
X2828Y2129D01*
X2828Y2127D01*
X2827Y2125D01*
X2827Y2124D01*
X2827Y2123D01*
X2828Y2121D01*
X2829Y2119D01*
X2829Y2117D01*
X2830Y2117D01*
X2830Y2116D01*
X2831Y2115D01*
X2869Y2077D01*
X2869Y1673D01*
X2833Y1637D01*
X1917Y1637D01*
X1881Y1673D01*
X1881Y2077D01*
X1919Y2115D01*
X1920Y2117D01*
X1921Y2119D01*
X1922Y2120D01*
X1922Y2121D01*
X1922Y2123D01*
X1923Y2125D01*
X1923Y2126D01*
X1923Y2127D01*
X1922Y2129D01*
X1921Y2131D01*
X1921Y2133D01*
X1920Y2133D01*
X1920Y2134D01*
X1919Y2135D01*
X1881Y2173D01*
X1881Y2577D01*
X1919Y2615D01*
X1920Y2617D01*
X1921Y2619D01*
X1922Y2620D01*
X1922Y2621D01*
X1922Y2623D01*
X1923Y2625D01*
X1923Y2626D01*
X1923Y2627D01*
X1922Y2629D01*
X1921Y2631D01*
X1921Y2633D01*
X1920Y2633D01*
X1920Y2634D01*
X1919Y2635D01*
X1881Y2673D01*
X1881Y3077D01*
X1917Y3113D01*
X2833Y3113D01*
X2869Y3077D01*
X2869Y3010D01*
X2869Y3008D01*
X2870Y3006D01*
X2870Y3005D01*
X2870Y3004D01*
X2872Y3002D01*
X2873Y3000D01*
X2874Y2999D01*
X2875Y2998D01*
X2877Y2998D01*
X2879Y2996D01*
X2880Y2996D01*
X2881Y2996D01*
X2882Y2996D01*
X2883Y2996D01*
X3024Y2996D01*
X3027Y2996D01*
X3029Y2996D01*
X3030Y2997D01*
X3031Y2997D01*
X3033Y2999D01*
X3034Y3000D01*
X3035Y3001D01*
X3036Y3002D01*
X3037Y3004D01*
X3038Y3006D01*
X3038Y3007D01*
X3038Y3008D01*
X3038Y3009D01*
X3039Y3010D01*
X3039Y3461D01*
X3074Y3497D01*
X3676Y3497D01*
X3711Y3461D01*
X3711Y3454D01*
X3712Y3452D01*
X3712Y3450D01*
X3713Y3449D01*
X3713Y3448D01*
X3714Y3446D01*
X3716Y3444D01*
X3717Y3443D01*
X3719Y3442D01*
X3721Y3441D01*
X3723Y3441D01*
X3723Y3440D01*
X3724Y3440D01*
X3726Y3440D01*
X3982Y3440D01*
X4445Y2977D01*
X4451Y2974D01*
X4455Y2973D01*
X4715Y2973D01*
X4728Y2960D01*
X4734Y2957D01*
X4738Y2956D01*
X4763Y2956D01*
X4764Y2956D01*
X4769Y2958D01*
X4773Y2960D01*
X5159Y3346D01*
X5217Y3346D01*
X5218Y3346D01*
X5223Y3347D01*
X5227Y3350D01*
X5442Y3566D01*
X5808Y3566D01*
X6066Y3308D01*
X6066Y2942D01*
X5808Y2684D01*
X5442Y2684D01*
X5292Y2835D01*
X5290Y2836D01*
X5288Y2837D01*
X5287Y2838D01*
X5286Y2838D01*
X5284Y2838D01*
X5282Y2839D01*
X5281Y2839D01*
X5280Y2839D01*
X5278Y2838D01*
X5275Y2837D01*
X5274Y2836D01*
X5273Y2836D01*
X5272Y2835D01*
X4952Y2514D01*
X4941Y2514D01*
X4940Y2514D01*
X4938Y2514D01*
X4936Y2513D01*
X4934Y2513D01*
X4933Y2512D01*
X4932Y2512D01*
X4931Y2510D01*
X4929Y2509D01*
X4929Y2508D01*
X4928Y2507D01*
X4927Y2505D01*
X4927Y2502D01*
X4927Y2501D01*
X4926Y2500D01*
X4927Y2498D01*
X4927Y2496D01*
X4928Y2495D01*
X4928Y2494D01*
X4931Y2490D01*
X4937Y2484D01*
X5160Y2261D01*
X5161Y2260D01*
X5162Y2259D01*
X5164Y2259D01*
X5166Y2257D01*
X5167Y2257D01*
X5168Y2257D01*
X5170Y2257D01*
X5172Y2257D01*
X5173Y2257D01*
X5174Y2257D01*
X5176Y2259D01*
X5178Y2259D01*
X5179Y2260D01*
X5180Y2261D01*
X5181Y2263D01*
X5183Y2264D01*
X5183Y2266D01*
X5184Y2267D01*
X5184Y2271D01*
X5184Y2308D01*
X5442Y2566D01*
X5808Y2566D01*
X6066Y2308D01*
X6066Y1942D01*
X5808Y1684D01*
X5442Y1684D01*
X5184Y1942D01*
X5184Y1990D01*
X5184Y1992D01*
X5184Y1994D01*
X5183Y1995D01*
X5183Y1996D01*
X5181Y1998D01*
X5180Y2000D01*
X5179Y2001D01*
X5178Y2002D01*
X5176Y2002D01*
X5174Y2004D01*
X5173Y2004D01*
X5172Y2004D01*
X5171Y2004D01*
X5170Y2004D01*
X5075Y2004D01*
X4766Y2313D01*
X4760Y2317D01*
X4756Y2317D01*
X3960Y2317D01*
X3819Y2458D01*
X3819Y2718D01*
X3819Y2720D01*
X3818Y2725D01*
X3815Y2728D01*
X3793Y2750D01*
X3788Y2754D01*
X3783Y2754D01*
X3726Y2754D01*
X3723Y2754D01*
X3721Y2754D01*
X3720Y2753D01*
X3719Y2753D01*
X3717Y2751D01*
X3716Y2750D01*
X3715Y2749D01*
X3714Y2748D01*
X3713Y2746D01*
X3712Y2744D01*
X3712Y2743D01*
X3712Y2742D01*
X3712Y2741D01*
X3711Y2740D01*
X3711Y2289D01*
X3676Y2253D01*
X3610Y2253D01*
X3608Y2253D01*
X3606Y2253D01*
X3605Y2252D01*
X3604Y2252D01*
X3602Y2250D01*
X3600Y2249D01*
X3599Y2248D01*
X3598Y2247D01*
X3598Y2245D01*
X3596Y2243D01*
X3596Y2242D01*
X3596Y2241D01*
X3596Y2240D01*
X3596Y2239D01*
X3596Y1876D01*
X3596Y1874D01*
X3596Y1872D01*
X3597Y1871D01*
X3597Y1870D01*
X3599Y1868D01*
X3600Y1866D01*
X3601Y1866D01*
X3602Y1865D01*
X3604Y1864D01*
X3606Y1863D01*
X3607Y1862D01*
X3608Y1862D01*
X3609Y1862D01*
X3610Y1862D01*
X3656Y1862D01*
X3692Y1826D01*
X3692Y1422D01*
X3656Y1386D01*
X3094Y1386D01*
G37*
%LPD*%
D10*
X4375Y1515D03*
X4375Y2735D03*
D11*
X3375Y876D03*
X3375Y1624D03*
D12*
X2375Y2375D03*
X2375Y1875D03*
X2375Y1375D03*
X2375Y2875D03*
D13*
X3375Y3219D03*
X3375Y2531D03*
D14*
X5625Y2125D03*
X5625Y1125D03*
X5625Y3125D03*
D15*
X5250Y3125D01*
X4860Y2735D02*
X4375Y2735D01*
X4860Y2735D02*
X5250Y3125D01*
X4375Y2735D02*
X3891Y3219D01*
X3375Y3219D01*
D16*
X375Y3500D03*
X375Y2625D03*
X375Y750D03*
X375Y1625D03*
X1125Y3750D03*
X2000Y3750D03*
X1000Y375D03*
X2000Y375D03*
X2875Y3625D03*
X2750Y500D03*
X4125Y1000D03*
X4500Y1000D03*
X3125Y500D03*
X3625Y500D03*
D15*
X3375Y1624D02*
X3375Y2250D01*
X3375Y2531D01*
X3250Y2375D02*
X2375Y2375D01*
X3250Y2375D02*
X3375Y2250D01*
D17*
X3839Y2875D02*
X2375Y2875D01*
X3839Y2875D02*
X3940Y2774D01*
X3940Y2508D01*
X4010Y2438D01*
X4812Y2438D02*
X5125Y2125D01*
X4812Y2438D02*
X4010Y2438D01*
X5125Y2125D02*
X5625Y2125D01*
M02*
