G04 EAGLE Gerber X2 export*
%TF.Part,Single*%
%TF.FileFunction,Copper,L2,Bot,Mixed*%
%TF.FilePolarity,Positive*%
%TF.GenerationSoftware,Autodesk,EAGLE,8.7.0*%
%TF.CreationDate,2018-03-19T18:44:23Z*%
G75*
%MOIN*%
%FSLAX34Y34*%
%LPD*%
%AMOC8*
5,1,8,0,0,1.08239X$1,22.5*%
G01*
%ADD10P,0.082262X8X112.500000*%
%ADD11C,0.023780*%

G36*
X6829Y151D02*
X6829Y151D01*
X6832Y151D01*
X6832Y152D01*
X6834Y152D01*
X6835Y154D01*
X6837Y155D01*
X6838Y156D01*
X6839Y157D01*
X6840Y159D01*
X6841Y161D01*
X6841Y162D01*
X6841Y163D01*
X6841Y164D01*
X6841Y165D01*
X6841Y3830D01*
X6841Y3832D01*
X6841Y3834D01*
X6840Y3835D01*
X6840Y3837D01*
X6838Y3838D01*
X6837Y3840D01*
X6836Y3841D01*
X6836Y3842D01*
X6833Y3842D01*
X6832Y3844D01*
X6830Y3844D01*
X6829Y3844D01*
X6827Y3844D01*
X165Y3844D01*
X163Y3844D01*
X161Y3844D01*
X160Y3843D01*
X159Y3843D01*
X157Y3841D01*
X155Y3840D01*
X154Y3839D01*
X153Y3838D01*
X153Y3836D01*
X151Y3834D01*
X151Y3833D01*
X151Y3832D01*
X151Y3830D01*
X151Y165D01*
X151Y163D01*
X151Y161D01*
X152Y160D01*
X152Y159D01*
X154Y157D01*
X155Y155D01*
X156Y154D01*
X157Y153D01*
X159Y153D01*
X161Y151D01*
X162Y151D01*
X163Y151D01*
X164Y151D01*
X165Y151D01*
X6827Y151D01*
X6829Y151D01*
G37*
%LPC*%
G36*
X4567Y2559D02*
X4567Y2559D01*
X4309Y2817D01*
X4309Y3183D01*
X4567Y3441D01*
X4933Y3441D01*
X5191Y3183D01*
X5191Y2817D01*
X4933Y2559D01*
X4567Y2559D01*
G37*
%LPD*%
%LPC*%
G36*
X4567Y1559D02*
X4567Y1559D01*
X4309Y1817D01*
X4309Y2183D01*
X4567Y2441D01*
X4933Y2441D01*
X5191Y2183D01*
X5191Y1817D01*
X4933Y1559D01*
X4567Y1559D01*
G37*
%LPD*%
D10*
X4750Y2000D03*
X4750Y1000D03*
X4750Y3000D03*
D11*
X1125Y3625D03*
X375Y2875D03*
X375Y2000D03*
X375Y1125D03*
X1125Y375D03*
X2250Y375D03*
X2625Y375D03*
X3125Y875D03*
X3500Y875D03*
X3875Y875D03*
M02*
