G04 EAGLE Gerber X2 export*
%TF.Part,Single*%
%TF.FileFunction,Legend,Top,1*%
%TF.FilePolarity,Positive*%
%TF.GenerationSoftware,Autodesk,EAGLE,8.7.0*%
%TF.CreationDate,2018-03-19T18:44:23Z*%
G75*
%MOIN*%
%FSLAX34Y34*%
%LPD*%
%AMOC8*
5,1,8,0,0,1.08239X$1,22.5*%
G01*
%ADD10C,0.006000*%
%ADD11C,0.005000*%


D10*
X5576Y1024D02*
X5649Y1024D01*
X5649Y780D01*
X5503Y780D01*
X5486Y781D01*
X5469Y786D01*
X5454Y793D01*
X5440Y803D01*
X5428Y815D01*
X5418Y829D01*
X5411Y844D01*
X5406Y861D01*
X5405Y878D01*
X5405Y1122D01*
X5407Y1141D01*
X5412Y1160D01*
X5422Y1176D01*
X5434Y1191D01*
X5449Y1203D01*
X5465Y1213D01*
X5484Y1218D01*
X5503Y1220D01*
X5649Y1220D01*
X5885Y1220D02*
X5885Y780D01*
X6129Y780D02*
X5885Y1220D01*
X6129Y1220D02*
X6129Y780D01*
X6365Y780D02*
X6365Y1220D01*
X6487Y1220D01*
X6508Y1218D01*
X6529Y1213D01*
X6548Y1204D01*
X6565Y1191D01*
X6580Y1176D01*
X6593Y1159D01*
X6602Y1140D01*
X6607Y1119D01*
X6609Y1098D01*
X6609Y902D01*
X6607Y881D01*
X6602Y860D01*
X6593Y841D01*
X6580Y824D01*
X6565Y809D01*
X6548Y796D01*
X6529Y787D01*
X6508Y782D01*
X6487Y780D01*
X6365Y780D01*
X5405Y1902D02*
X5405Y2098D01*
X5407Y2119D01*
X5412Y2140D01*
X5421Y2159D01*
X5434Y2176D01*
X5449Y2191D01*
X5466Y2204D01*
X5485Y2213D01*
X5506Y2218D01*
X5527Y2220D01*
X5548Y2218D01*
X5569Y2213D01*
X5588Y2204D01*
X5605Y2191D01*
X5620Y2176D01*
X5633Y2159D01*
X5642Y2140D01*
X5647Y2119D01*
X5649Y2098D01*
X5649Y1902D01*
X5647Y1881D01*
X5642Y1860D01*
X5633Y1841D01*
X5620Y1824D01*
X5605Y1809D01*
X5588Y1796D01*
X5569Y1787D01*
X5548Y1782D01*
X5527Y1780D01*
X5506Y1782D01*
X5485Y1787D01*
X5466Y1796D01*
X5449Y1809D01*
X5434Y1824D01*
X5421Y1841D01*
X5412Y1860D01*
X5407Y1881D01*
X5405Y1902D01*
X5864Y1853D02*
X5864Y2073D01*
X5865Y1853D02*
X5867Y1837D01*
X5872Y1821D01*
X5881Y1807D01*
X5892Y1796D01*
X5906Y1787D01*
X5922Y1782D01*
X5938Y1780D01*
X6060Y1780D01*
X6060Y2073D01*
X6229Y2073D02*
X6376Y2073D01*
X6278Y2220D02*
X6278Y1853D01*
X6279Y1853D02*
X6281Y1837D01*
X6286Y1821D01*
X6295Y1807D01*
X6306Y1796D01*
X6320Y1787D01*
X6336Y1782D01*
X6352Y1780D01*
X6376Y1780D01*
X5527Y2780D02*
X5405Y2780D01*
X5527Y2780D02*
X5548Y2782D01*
X5569Y2787D01*
X5588Y2796D01*
X5605Y2809D01*
X5620Y2824D01*
X5633Y2841D01*
X5642Y2860D01*
X5647Y2881D01*
X5649Y2902D01*
X5647Y2923D01*
X5642Y2944D01*
X5633Y2963D01*
X5620Y2980D01*
X5605Y2995D01*
X5588Y3008D01*
X5569Y3017D01*
X5548Y3022D01*
X5527Y3024D01*
X5552Y3220D02*
X5405Y3220D01*
X5552Y3220D02*
X5570Y3218D01*
X5587Y3213D01*
X5604Y3205D01*
X5618Y3194D01*
X5630Y3181D01*
X5640Y3166D01*
X5646Y3149D01*
X5650Y3131D01*
X5650Y3113D01*
X5646Y3095D01*
X5640Y3078D01*
X5630Y3063D01*
X5618Y3050D01*
X5604Y3039D01*
X5587Y3031D01*
X5570Y3026D01*
X5552Y3024D01*
X5454Y3024D01*
X5830Y2804D02*
X5830Y2780D01*
X5830Y2804D02*
X5854Y2804D01*
X5854Y2780D01*
X5830Y2780D01*
X6035Y2780D02*
X6157Y2780D01*
X6178Y2782D01*
X6199Y2787D01*
X6218Y2796D01*
X6235Y2809D01*
X6250Y2824D01*
X6263Y2841D01*
X6272Y2860D01*
X6277Y2881D01*
X6279Y2902D01*
X6277Y2923D01*
X6272Y2944D01*
X6263Y2963D01*
X6250Y2980D01*
X6235Y2995D01*
X6218Y3008D01*
X6199Y3017D01*
X6178Y3022D01*
X6157Y3024D01*
X6182Y3220D02*
X6035Y3220D01*
X6182Y3220D02*
X6200Y3218D01*
X6217Y3213D01*
X6234Y3205D01*
X6248Y3194D01*
X6260Y3181D01*
X6270Y3166D01*
X6276Y3149D01*
X6280Y3131D01*
X6280Y3113D01*
X6276Y3095D01*
X6270Y3078D01*
X6260Y3063D01*
X6248Y3050D01*
X6234Y3039D01*
X6217Y3031D01*
X6200Y3026D01*
X6182Y3024D01*
X6084Y3024D01*
X6461Y3220D02*
X6607Y2780D01*
X6754Y3220D01*
D11*
X2864Y658D02*
X2136Y658D01*
X2864Y658D02*
X2864Y1842D01*
X2136Y1842D01*
X2136Y658D01*
X3057Y1124D02*
X3057Y2876D01*
X3943Y2876D01*
X3943Y1124D01*
X3057Y1124D01*
X1525Y1559D02*
X1546Y1523D01*
X1563Y1485D01*
X1577Y1446D01*
X1587Y1406D01*
X1594Y1365D01*
X1597Y1324D01*
X1596Y1282D01*
X1591Y1241D01*
X1583Y1200D01*
X1571Y1161D01*
X1555Y1122D01*
X1536Y1085D01*
X1514Y1050D01*
X1488Y1017D01*
X1460Y987D01*
X1429Y959D01*
X1396Y935D01*
X1360Y913D01*
X1323Y895D01*
X1284Y880D01*
X1244Y869D01*
X1203Y861D01*
X1162Y857D01*
X1120Y857D01*
X1079Y861D01*
X1038Y869D01*
X998Y880D01*
X959Y895D01*
X922Y913D01*
X886Y935D01*
X853Y959D01*
X822Y987D01*
X794Y1017D01*
X768Y1050D01*
X746Y1085D01*
X727Y1122D01*
X711Y1161D01*
X699Y1200D01*
X691Y1241D01*
X686Y1282D01*
X685Y1324D01*
X688Y1365D01*
X695Y1406D01*
X705Y1446D01*
X719Y1485D01*
X736Y1523D01*
X757Y1559D01*
X757Y2425D02*
X737Y2461D01*
X720Y2499D01*
X707Y2539D01*
X697Y2579D01*
X692Y2620D01*
X690Y2662D01*
X692Y2703D01*
X698Y2745D01*
X707Y2785D01*
X721Y2825D01*
X738Y2863D01*
X758Y2899D01*
X781Y2933D01*
X808Y2965D01*
X837Y2995D01*
X870Y3021D01*
X904Y3045D01*
X940Y3065D01*
X978Y3082D01*
X1018Y3095D01*
X1058Y3104D01*
X1099Y3110D01*
X1141Y3112D01*
X1183Y3110D01*
X1224Y3104D01*
X1264Y3095D01*
X1304Y3082D01*
X1342Y3065D01*
X1378Y3045D01*
X1412Y3021D01*
X1445Y2995D01*
X1474Y2965D01*
X1501Y2933D01*
X1524Y2899D01*
X1544Y2863D01*
X1561Y2825D01*
X1575Y2785D01*
X1584Y2745D01*
X1590Y2703D01*
X1592Y2662D01*
X1590Y2620D01*
X1585Y2579D01*
X1575Y2539D01*
X1562Y2499D01*
X1545Y2461D01*
X1525Y2425D01*
X1505Y1559D02*
X757Y1559D01*
X757Y2425D02*
X1525Y2425D01*
X678Y3311D02*
X678Y654D01*
X678Y3311D02*
X1781Y3311D01*
X1781Y3272D02*
X1840Y3272D01*
X1840Y2996D01*
X1741Y2996D01*
X1741Y988D01*
X1840Y988D01*
X1840Y654D01*
X678Y654D01*
X1052Y1323D02*
X1269Y1323D01*
X1151Y1421D02*
X1151Y1224D01*
X1151Y2563D02*
X1151Y2760D01*
X1249Y2661D02*
X1052Y2661D01*
X2854Y3255D02*
X2854Y1995D01*
X2146Y1995D01*
X2146Y3255D01*
X2854Y3255D01*
X4250Y500D02*
X5250Y500D01*
X5250Y3500D01*
X4250Y3500D01*
X4250Y500D01*
M02*
