G04 EAGLE Gerber X2 export*
%TF.Part,Single*%
%TF.FileFunction,Copper,L2,Bot,Mixed*%
%TF.FilePolarity,Positive*%
%TF.GenerationSoftware,Autodesk,EAGLE,8.7.0*%
%TF.CreationDate,2018-03-19T19:13:02Z*%
G75*
%MOIN*%
%FSLAX34Y34*%
%LPD*%
%AMOC8*
5,1,8,0,0,1.08239X$1,22.5*%
G01*
%ADD10P,0.082262X8X112.500000*%
%ADD11C,0.023780*%

G36*
X7704Y151D02*
X7704Y151D01*
X7707Y151D01*
X7707Y152D01*
X7709Y152D01*
X7710Y154D01*
X7712Y155D01*
X7713Y156D01*
X7714Y157D01*
X7715Y159D01*
X7716Y161D01*
X7716Y162D01*
X7716Y163D01*
X7716Y164D01*
X7716Y165D01*
X7716Y3955D01*
X7716Y3957D01*
X7716Y3959D01*
X7715Y3960D01*
X7715Y3962D01*
X7713Y3963D01*
X7712Y3965D01*
X7711Y3966D01*
X7711Y3967D01*
X7708Y3967D01*
X7707Y3969D01*
X7705Y3969D01*
X7704Y3969D01*
X7702Y3969D01*
X165Y3969D01*
X163Y3969D01*
X161Y3969D01*
X160Y3968D01*
X159Y3968D01*
X157Y3966D01*
X155Y3965D01*
X154Y3964D01*
X153Y3963D01*
X153Y3961D01*
X151Y3959D01*
X151Y3958D01*
X151Y3957D01*
X151Y3955D01*
X151Y165D01*
X151Y163D01*
X151Y161D01*
X152Y160D01*
X152Y159D01*
X154Y157D01*
X155Y155D01*
X156Y154D01*
X157Y153D01*
X159Y153D01*
X161Y151D01*
X162Y151D01*
X163Y151D01*
X164Y151D01*
X165Y151D01*
X7702Y151D01*
X7704Y151D01*
G37*
%LPC*%
G36*
X5442Y2684D02*
X5442Y2684D01*
X5184Y2942D01*
X5184Y3308D01*
X5442Y3566D01*
X5808Y3566D01*
X6066Y3308D01*
X6066Y2942D01*
X5808Y2684D01*
X5442Y2684D01*
G37*
%LPD*%
%LPC*%
G36*
X5442Y1684D02*
X5442Y1684D01*
X5184Y1942D01*
X5184Y2308D01*
X5442Y2566D01*
X5808Y2566D01*
X6066Y2308D01*
X6066Y1942D01*
X5808Y1684D01*
X5442Y1684D01*
G37*
%LPD*%
D10*
X5625Y2125D03*
X5625Y1125D03*
X5625Y3125D03*
D11*
X375Y3500D03*
X375Y2625D03*
X375Y750D03*
X375Y1625D03*
X1125Y3750D03*
X2000Y3750D03*
X1000Y375D03*
X2000Y375D03*
X2875Y3625D03*
X2750Y500D03*
X4125Y1000D03*
X4500Y1000D03*
X3125Y500D03*
X3625Y500D03*
M02*
